{"glyphs":{"0":{"ha":659,"x_min":45,"x_max":614,"o":"m 45 396 q 81 610 45 515 q 184 760 117 705 q 337 814 251 814 q 483 761 419 814 q 580 612 546 708 q 614 393 614 516 q 534 96 614 210 q 328 -18 454 -18 q 180 37 244 -18 q 80 185 115 91 q 45 396 45 279 m 330 44 q 380 63 357 44 q 427 118 404 82 q 462 357 462 201 l 462 413 l 462 435 q 460 521 462 486 q 450 605 459 555 q 424 684 441 654 q 329 753 383 753 q 226 665 267 753 q 197 419 197 600 q 205 220 197 288 q 235 113 213 153 q 330 44 275 44 z "},"1":{"ha":659,"x_min":124,"x_max":582,"o":"m 128 729 q 275 753 200 729 q 380 814 350 778 l 440 814 q 436 709 440 774 q 432 621 432 644 l 432 148 l 432 115 q 440 77 432 83 q 536 60 452 60 l 582 60 l 582 0 l 124 0 l 124 60 l 182 60 q 268 70 250 60 q 285 115 285 79 l 285 601 q 274 662 285 652 q 213 673 264 673 l 128 673 l 128 729 z "},"2":{"ha":659,"x_min":49,"x_max":604,"o":"m 328 814 q 528 752 456 814 q 600 589 600 690 q 589 518 600 552 q 561 456 578 484 q 512 395 544 428 q 450 337 480 363 q 370 274 419 312 q 213 132 297 216 l 440 132 q 512 144 496 132 q 537 201 528 157 l 547 250 l 604 250 l 604 0 l 49 0 l 49 33 l 162 175 l 321 344 q 446 609 446 473 q 405 714 446 676 q 292 752 363 752 q 199 719 241 752 q 156 646 156 685 q 158 639 156 642 q 162 633 159 635 q 168 628 165 630 q 174 625 170 627 q 178 623 178 623 q 228 597 207 616 q 249 545 249 578 q 227 494 249 513 q 168 475 204 475 q 93 508 119 475 q 67 597 67 542 q 141 751 67 688 q 328 814 214 814 z "},"3":{"ha":659,"x_min":49,"x_max":604,"o":"m 581 616 q 566 541 581 575 q 529 487 551 507 q 485 454 507 467 q 448 435 463 440 l 432 431 q 419 426 429 429 q 554 358 503 412 q 604 218 604 304 q 523 45 604 108 q 313 -18 442 -18 q 122 35 195 -18 q 49 172 49 87 q 75 245 49 216 q 139 274 100 274 q 201 255 178 274 q 224 201 224 237 q 215 168 224 183 q 195 144 205 152 q 172 129 185 137 q 157 120 159 121 q 154 108 154 115 q 202 63 154 81 q 294 44 250 44 q 411 91 368 44 q 454 220 454 138 q 448 280 454 252 q 428 334 441 308 q 388 375 414 359 q 324 390 361 390 l 242 390 q 206 422 206 390 q 243 460 206 460 q 257 459 249 460 q 269 458 266 458 q 297 457 282 458 q 315 456 313 456 q 375 470 350 456 q 414 508 401 484 q 433 558 427 532 q 439 614 439 584 q 433 662 439 640 q 414 706 427 685 q 375 741 401 728 q 315 753 350 753 q 231 736 269 753 q 193 698 193 718 q 201 683 193 691 q 219 668 209 675 q 236 648 229 661 q 244 618 244 635 q 225 569 244 590 q 164 549 207 549 q 100 573 119 549 q 81 629 81 598 q 153 763 81 711 q 332 814 226 814 q 514 760 447 814 q 581 616 581 706 z "},"4":{"ha":659,"x_min":41,"x_max":618,"o":"m 262 60 q 320 65 302 60 q 343 80 338 70 q 349 115 349 91 l 349 203 l 41 203 l 41 267 l 434 814 l 501 814 q 498 713 501 791 q 495 583 495 636 l 495 267 l 618 267 l 618 203 l 495 203 l 495 115 q 510 69 495 78 q 582 60 524 60 l 587 60 l 587 0 l 249 0 l 249 60 l 262 60 m 349 267 l 349 574 l 124 267 l 349 267 z "},"5":{"ha":659,"x_min":49,"x_max":601,"o":"m 564 804 q 548 754 564 782 q 505 701 532 727 q 433 658 478 675 q 338 641 389 641 q 195 661 282 641 l 195 488 q 221 499 205 491 q 248 511 237 507 q 279 518 258 515 q 328 522 300 522 q 526 450 452 522 q 601 259 601 377 q 517 56 601 130 q 292 -18 433 -18 q 177 1 227 -18 q 100 50 127 20 q 61 111 74 80 q 49 172 49 142 q 75 243 49 216 q 144 270 101 270 q 205 250 182 270 q 228 198 228 231 q 217 160 228 176 q 194 138 207 144 q 171 122 182 131 q 161 104 161 114 q 204 61 161 77 q 290 44 247 44 q 409 95 366 44 q 452 252 452 145 q 437 352 452 310 q 397 414 422 393 q 349 444 373 435 q 298 452 324 452 l 294 452 q 185 419 242 452 q 163 391 177 415 q 136 367 149 367 q 107 373 116 367 q 95 398 98 380 l 95 403 l 104 452 q 113 534 107 478 q 122 617 119 590 q 129 684 125 644 q 134 755 133 724 q 136 814 136 786 q 385 780 281 780 q 469 789 430 780 q 529 806 507 798 q 554 814 551 814 q 564 804 564 814 z "},"6":{"ha":659,"x_min":45,"x_max":617,"o":"m 426 661 q 436 701 426 680 q 446 726 446 722 q 388 752 446 752 q 299 719 342 752 q 234 629 257 685 q 203 523 216 589 q 191 401 191 456 q 376 498 266 498 q 547 428 476 498 q 617 259 617 361 q 600 165 617 212 q 550 76 583 117 q 462 8 517 35 q 339 -18 407 -18 q 126 83 206 -18 q 45 357 45 184 q 58 486 45 422 q 99 610 71 550 q 167 715 127 669 q 266 787 207 760 q 397 814 326 814 q 540 775 486 814 q 595 676 595 736 q 571 616 595 639 q 508 593 548 593 q 450 608 473 593 q 426 661 426 624 m 467 250 q 436 370 467 325 q 344 416 405 416 q 241 365 277 416 q 205 235 205 314 q 219 147 205 189 q 266 74 234 104 q 341 44 298 44 q 399 61 374 44 q 438 109 424 79 q 460 174 453 138 q 467 250 467 210 z "},"7":{"ha":659,"x_min":65,"x_max":596,"o":"m 405 121 q 387 18 405 53 q 317 -16 368 -16 q 233 69 233 -16 q 259 201 233 124 q 311 330 285 277 q 397 500 336 383 q 418 539 411 526 l 485 675 l 413 675 q 337 679 400 675 q 222 683 273 683 l 197 683 q 160 666 172 683 q 138 595 149 649 l 121 527 l 65 534 l 100 814 q 270 809 165 814 q 416 803 375 803 q 508 807 448 803 q 596 810 568 810 l 596 749 l 544 640 q 449 409 477 493 q 412 270 420 324 q 405 121 405 215 z "},"8":{"ha":659,"x_min":44,"x_max":614,"o":"m 338 814 q 511 764 443 814 q 578 631 578 713 q 446 452 578 521 q 505 420 480 436 q 557 379 530 405 q 599 317 585 354 q 614 233 614 279 q 606 168 614 200 q 576 101 597 136 q 522 41 555 67 q 437 -1 490 16 q 317 -18 384 -18 q 159 14 223 -18 q 67 104 95 45 q 44 195 44 144 q 56 264 44 233 q 85 315 68 295 q 128 352 101 334 q 173 379 155 370 q 220 398 191 387 q 173 426 192 412 q 131 463 153 439 q 96 519 108 486 q 83 594 83 553 q 152 750 83 686 q 338 814 220 814 m 334 753 q 232 721 269 753 q 195 637 195 689 q 205 586 195 608 q 234 547 215 563 q 272 520 254 530 q 318 499 291 510 l 389 473 q 452 543 433 510 q 471 619 471 575 q 433 717 471 680 q 334 753 394 753 m 323 44 q 450 82 401 44 q 498 190 498 121 q 473 275 498 239 q 380 336 449 311 l 281 372 q 193 306 223 345 q 163 199 163 268 q 205 85 163 126 q 323 44 248 44 z "},"9":{"ha":659,"x_min":41,"x_max":614,"o":"m 233 132 q 222 93 233 117 q 211 66 211 68 q 274 44 211 44 q 366 80 323 44 q 431 180 409 116 q 464 389 464 281 q 387 320 428 344 q 280 296 346 296 q 109 365 176 296 q 41 536 41 433 q 123 734 41 652 q 318 814 201 814 q 533 712 452 814 q 614 433 614 609 q 601 301 614 365 q 559 179 588 237 q 490 77 531 121 q 390 8 450 34 q 259 -18 330 -18 q 120 20 177 -18 q 64 117 64 58 q 87 176 64 151 q 153 200 111 200 q 213 180 193 200 q 233 132 233 159 m 454 551 q 418 699 454 644 q 323 753 382 753 q 223 693 254 753 q 191 557 191 644 q 203 465 191 503 q 236 409 216 427 q 276 384 256 391 q 317 377 296 377 q 350 381 334 377 q 386 396 366 385 q 419 426 405 408 q 444 476 434 444 q 454 551 454 509 z "},"\u0000":{"ha":1389,"x_min":0,"x_max":0,"o":""}," ":{"ha":463,"x_min":0,"x_max":0,"o":""},"!":{"ha":335,"x_min":83,"x_max":250,"o":"m 193 301 q 180 272 191 286 q 164 259 170 259 q 148 275 159 259 q 136 301 136 291 l 89 634 q 83 706 83 683 q 165 814 83 814 q 247 705 247 814 q 239 635 247 684 l 193 301 m 89 111 l 148 193 q 167 207 159 207 q 184 193 174 207 l 243 111 q 250 93 250 100 q 243 74 250 85 l 184 -8 q 167 -23 174 -23 q 148 -8 160 -23 l 89 74 q 83 93 83 85 q 89 111 83 100 z "},"\"":{"ha":495,"x_min":59,"x_max":455,"o":"m 391 806 q 441 792 427 806 q 455 760 455 778 q 444 713 455 747 l 307 428 l 275 428 l 275 458 q 293 713 275 571 q 297 735 293 722 q 310 766 300 749 q 341 794 319 783 q 391 806 362 806 m 175 814 q 239 768 239 814 q 236 751 239 763 q 231 731 233 740 l 227 722 l 90 437 l 59 437 l 59 467 q 77 722 59 581 q 81 747 77 734 q 94 777 85 761 q 125 804 104 793 q 175 814 146 814 z "},"#":{"ha":659,"x_min":38,"x_max":623,"o":"m 155 252 l 38 252 l 38 329 l 165 329 l 187 481 l 69 481 l 69 558 l 198 558 l 233 794 l 316 794 l 281 558 l 424 558 l 458 794 l 542 794 l 507 558 l 623 558 l 623 481 l 496 481 l 475 329 l 591 329 l 591 252 l 464 252 l 427 0 l 344 0 l 380 252 l 239 252 l 201 0 l 118 0 l 155 252 m 271 481 l 249 329 l 391 329 l 413 481 l 271 481 z "},"$":{"ha":643,"x_min":52,"x_max":590,"o":"m 67 587 q 125 735 67 680 q 281 804 183 790 l 281 927 l 354 927 l 354 806 q 500 750 438 806 q 555 637 555 705 q 477 555 555 555 q 420 576 440 555 q 401 627 401 597 q 408 659 401 646 q 424 678 416 672 q 440 689 433 684 q 448 701 448 695 q 354 742 448 730 l 354 475 l 372 471 q 470 431 429 454 q 534 385 512 408 q 570 334 557 362 q 587 283 583 305 q 590 234 590 261 q 568 122 590 172 q 510 44 545 73 q 434 1 474 16 q 354 -13 394 -13 l 354 -151 l 281 -151 l 281 -13 q 222 -6 253 -13 q 161 15 192 0 q 106 51 130 30 q 67 103 82 71 q 52 172 52 134 q 56 204 52 188 q 70 235 60 220 q 98 261 79 251 q 142 271 117 271 q 196 250 176 271 q 215 199 215 229 q 206 161 215 178 q 186 136 197 144 q 166 121 176 128 q 157 109 157 113 q 198 69 157 88 q 281 50 239 50 l 281 352 q 67 587 67 414 m 281 742 q 199 706 238 742 q 160 624 160 670 q 281 498 160 537 l 281 742 m 354 51 q 457 95 420 59 q 495 193 495 131 q 357 333 495 298 q 354 334 355 334 l 354 51 z "},"%":{"ha":981,"x_min":52,"x_max":934,"o":"m 52 515 q 65 589 52 549 q 102 670 78 630 q 159 744 127 711 q 234 799 191 778 q 321 819 277 819 q 427 765 385 819 q 511 740 471 740 q 699 836 628 740 l 770 836 l 290 0 l 215 0 l 625 718 q 508 684 566 684 q 450 693 482 684 q 452 673 452 683 q 434 576 452 628 q 384 478 416 524 q 304 402 353 433 q 200 372 255 372 q 94 411 136 372 q 52 515 52 451 m 223 433 q 341 509 286 433 q 396 671 396 585 q 390 714 396 690 q 326 757 349 728 q 276 728 292 744 q 231 660 260 711 q 199 604 210 625 q 177 551 189 584 q 165 495 165 519 q 181 451 165 469 q 223 433 197 433 m 532 157 q 567 296 532 226 q 665 415 602 367 q 799 464 728 464 q 897 426 859 464 q 934 326 934 387 q 924 258 934 296 q 893 177 914 219 q 844 99 872 134 q 773 41 815 64 q 683 18 730 18 q 574 57 616 18 q 532 157 532 96 m 878 316 q 859 375 878 350 q 812 401 840 401 q 721 324 768 401 q 644 140 644 201 q 661 97 644 113 q 703 80 678 80 q 822 154 766 80 q 878 316 878 228 z "},"&":{"ha":943,"x_min":59,"x_max":897,"o":"m 743 79 q 811 113 785 79 q 846 195 836 146 l 897 189 q 831 41 884 96 q 694 -13 778 -13 q 608 5 646 -13 q 530 65 570 24 q 308 -18 424 -18 q 195 4 245 -18 q 117 61 145 26 q 74 137 88 96 q 59 219 59 177 q 111 362 59 296 q 259 475 163 429 q 211 648 211 579 q 266 797 211 740 q 413 853 321 853 q 544 810 494 853 q 594 696 594 768 q 570 606 594 649 q 506 534 545 563 q 393 475 471 510 q 580 189 500 280 q 661 363 661 282 q 557 418 661 418 l 545 418 l 545 467 l 871 467 l 871 418 l 859 418 q 826 415 841 418 q 801 408 812 412 q 779 395 790 405 q 762 378 768 385 q 745 355 755 372 q 729 329 734 338 q 711 296 724 319 q 692 260 699 273 q 616 149 663 209 q 743 79 682 79 m 410 803 q 345 771 370 803 q 319 688 319 739 q 369 524 319 626 q 380 529 370 524 q 401 539 391 534 q 427 554 412 545 q 454 577 441 564 q 477 606 466 590 q 495 646 488 623 q 501 694 501 669 q 476 773 501 743 q 410 803 450 803 m 494 104 q 382 250 425 184 q 281 428 339 315 q 210 369 236 402 q 183 281 183 335 q 242 126 183 192 q 377 61 301 61 q 494 104 427 61 z "},"'":{"ha":259,"x_min":59,"x_max":239,"o":"m 175 814 q 239 768 239 814 q 236 751 239 763 q 231 731 233 740 l 227 722 l 90 437 l 59 437 l 59 467 q 77 722 59 581 q 81 747 77 734 q 94 777 85 761 q 125 804 104 793 q 175 814 146 814 z "},"(":{"ha":402,"x_min":41,"x_max":340,"o":"m 215 623 q 197 570 215 623 q 178 352 178 517 q 215 80 178 186 q 340 -103 252 -26 l 323 -142 q 161 -3 223 -81 q 41 355 41 153 q 177 732 41 571 q 323 853 231 797 l 340 806 q 215 623 252 729 z "},")":{"ha":402,"x_min":62,"x_max":361,"o":"m 80 853 q 176 783 133 821 q 248 706 219 744 q 298 626 276 668 q 331 547 319 583 q 350 473 342 511 q 359 408 357 435 q 361 355 361 382 q 287 65 361 193 q 80 -142 212 -62 l 62 -100 q 188 84 151 -22 q 224 355 224 190 q 188 626 224 521 q 62 809 151 732 l 80 853 z "},"*":{"ha":598,"x_min":65,"x_max":534,"o":"m 251 385 q 258 418 251 403 q 274 459 266 434 q 281 527 281 485 l 281 568 l 245 547 l 218 532 q 206 523 214 530 q 195 514 198 517 l 172 481 q 122 448 150 448 q 85 463 96 448 q 73 492 73 477 q 160 553 73 553 q 227 578 181 553 l 262 600 l 227 621 q 190 640 198 637 q 169 646 182 644 q 125 654 149 654 q 82 670 98 654 q 65 707 65 686 q 82 744 65 732 q 113 755 98 755 q 142 745 130 755 q 169 716 155 735 q 195 688 184 698 q 212 672 208 675 q 225 665 217 669 q 245 654 233 661 l 281 632 l 281 720 q 266 763 281 726 q 251 814 251 800 q 266 849 251 836 q 300 863 281 863 q 331 849 319 860 q 345 829 342 838 q 347 812 347 821 q 333 763 347 798 q 319 706 319 728 q 317 673 317 698 l 317 631 l 354 654 q 365 660 360 658 q 375 665 370 662 q 411 694 398 679 q 432 720 418 701 q 458 747 447 739 q 483 755 469 755 q 499 752 489 755 q 522 739 509 750 q 534 709 534 728 q 515 669 534 684 q 475 654 495 654 q 441 650 464 654 q 412 641 418 646 q 372 621 401 637 l 336 600 l 372 578 q 414 558 405 559 q 450 549 435 549 l 468 547 q 497 540 485 544 q 522 524 509 536 q 534 493 534 512 q 517 455 534 467 q 485 444 500 444 q 458 453 471 444 q 436 474 445 462 q 413 503 428 486 q 383 530 399 519 q 353 547 376 534 l 318 568 l 318 527 q 318 516 318 522 q 317 507 317 510 q 333 437 317 478 q 349 385 349 397 q 333 350 349 365 q 300 336 317 336 q 267 349 282 336 q 251 385 251 361 z "},"+":{"ha":701,"x_min":59,"x_max":642,"o":"m 304 339 l 304 585 l 397 585 l 397 339 l 642 339 l 642 247 l 397 247 l 397 0 l 304 0 l 304 247 l 59 247 l 59 339 l 304 339 z "},",":{"ha":336,"x_min":95,"x_max":279,"o":"m 136 -141 q 133 -141 136 -141 q 129 -141 130 -141 q 125 -140 128 -141 q 122 -139 123 -140 q 119 -136 121 -138 q 117 -130 118 -134 q 117 -123 117 -127 q 118 -113 117 -116 l 146 -5 l 146 10 q 138 33 146 24 l 103 74 q 95 93 95 83 q 103 111 95 102 l 168 190 q 189 203 179 203 q 208 190 197 203 l 273 111 q 279 95 279 106 q 273 74 279 81 l 155 -130 q 136 -141 145 -141 z "},"-":{"ha":451,"x_min":35,"x_max":404,"o":"m 403 389 l 380 303 q 375 289 380 292 q 359 286 370 286 l 54 286 q 35 309 25 286 l 59 395 q 65 409 61 405 q 80 412 69 412 l 385 412 q 403 408 399 412 q 403 389 408 404 z "},".":{"ha":335,"x_min":95,"x_max":281,"o":"m 103 111 l 168 190 q 189 203 179 203 q 208 190 197 203 l 273 111 q 281 93 281 100 q 273 74 281 85 l 208 -5 q 189 -20 196 -20 q 168 -5 180 -20 l 103 74 q 95 93 95 83 q 103 111 95 102 z "},"/":{"ha":339,"x_min":-26,"x_max":367,"o":"m 282 853 l 367 853 l 58 -16 l -26 -16 l 282 853 z "},":":{"ha":335,"x_min":95,"x_max":281,"o":"m 103 516 l 168 595 q 189 609 180 609 q 208 595 196 609 l 273 516 q 281 498 281 505 q 273 479 281 491 l 208 401 q 189 385 197 385 q 168 401 179 385 l 103 479 q 95 498 95 488 q 103 516 95 507 m 103 111 l 168 190 q 189 203 179 203 q 208 190 197 203 l 273 111 q 281 93 281 100 q 273 74 281 85 l 208 -5 q 189 -20 196 -20 q 168 -5 180 -20 l 103 74 q 95 93 95 83 q 103 111 95 102 z "},";":{"ha":336,"x_min":95,"x_max":281,"o":"m 136 -141 q 117 -123 117 -141 q 118 -113 117 -116 l 146 -5 q 146 10 146 -5 q 138 33 146 24 l 103 74 q 95 93 95 83 q 103 111 95 102 l 168 190 q 189 203 179 203 q 208 190 197 203 l 273 111 q 279 95 279 106 q 273 74 279 81 l 155 -130 q 136 -141 145 -141 m 103 516 l 168 595 q 189 609 180 609 q 208 595 196 609 l 273 516 q 281 498 281 505 q 273 479 281 491 l 208 401 q 189 385 197 385 q 168 401 179 385 l 103 479 q 95 498 95 488 q 103 516 95 507 z "},"<":{"ha":701,"x_min":57,"x_max":646,"o":"m 646 507 l 185 293 l 646 79 l 646 -20 l 57 249 l 57 337 l 646 606 l 646 507 z "},"=":{"ha":701,"x_min":59,"x_max":642,"o":"m 59 130 l 59 222 l 642 222 l 642 130 l 59 130 m 59 363 l 59 456 l 642 456 l 642 363 l 59 363 z "},">":{"ha":701,"x_min":56,"x_max":645,"o":"m 56 507 l 56 606 l 645 337 l 645 249 l 56 -20 l 56 79 l 516 293 l 56 507 z "},"?":{"ha":560,"x_min":29,"x_max":522,"o":"m 278 814 q 456 763 389 814 q 522 625 522 711 q 509 559 522 589 q 473 506 496 529 q 426 464 450 483 q 369 419 401 445 q 316 370 338 394 q 285 315 294 344 q 267 275 276 287 q 250 258 255 258 q 232 274 243 258 q 220 300 220 290 q 254 412 220 358 q 340 514 298 471 q 377 632 377 557 q 369 676 377 656 q 347 707 360 695 q 316 726 334 718 q 282 736 298 733 q 248 739 265 739 q 189 721 205 739 q 174 655 174 703 q 173 635 174 647 q 172 621 172 624 q 111 570 172 570 q 48 594 66 570 q 29 654 29 618 q 100 770 29 725 q 278 814 171 814 m 172 111 l 231 193 q 250 207 242 207 q 267 193 258 207 l 326 111 q 332 93 332 100 q 326 74 332 85 l 267 -8 q 249 -23 255 -23 q 231 -8 243 -23 l 172 74 q 165 93 165 83 q 172 111 165 102 z "},"@":{"ha":852,"x_min":50,"x_max":816,"o":"m 456 793 q 210 687 306 793 q 115 418 115 582 q 213 148 115 254 q 462 43 310 43 q 737 218 639 43 l 808 218 q 780 165 798 193 q 731 104 762 138 q 661 45 699 71 q 568 1 623 19 q 452 -16 513 -16 q 247 39 339 -16 q 102 193 155 94 q 50 412 50 291 q 76 578 50 503 q 143 703 102 654 q 238 788 184 753 q 345 838 292 823 q 450 853 399 853 q 634 806 549 853 q 767 679 718 759 q 816 503 816 598 q 791 374 816 437 q 729 267 767 311 q 644 197 690 223 q 552 170 597 170 q 494 191 516 170 q 472 245 472 212 l 472 269 q 414 199 442 221 q 349 177 386 177 q 246 224 288 177 q 203 349 203 271 q 228 467 203 412 q 288 556 252 522 q 363 609 323 590 q 436 629 402 629 q 527 553 503 629 l 545 618 l 647 618 l 562 283 q 558 249 558 268 q 567 229 558 237 q 588 221 575 221 q 639 242 610 221 q 693 299 667 264 q 738 387 720 334 q 755 495 755 439 q 734 602 755 549 q 676 697 713 654 q 581 766 639 740 q 456 793 523 793 m 505 498 q 492 557 505 534 q 452 581 479 581 q 380 532 410 581 q 327 420 345 481 q 308 314 308 359 q 325 243 308 262 q 363 223 341 223 q 434 271 400 223 q 486 381 467 318 q 505 498 505 445 z "},"A":{"ha":836,"x_min":-9,"x_max":846,"o":"m 437 853 l 732 128 q 768 68 751 83 q 830 54 785 54 l 846 54 l 846 0 l 488 0 l 488 54 l 536 54 q 608 85 608 54 q 598 116 608 92 l 536 271 l 229 271 l 191 169 q 180 120 180 142 q 274 54 180 54 l 298 54 l 298 0 l -9 0 l -9 54 l -5 54 q 71 82 45 54 q 123 177 96 111 l 389 853 l 437 853 m 380 662 l 252 334 l 511 334 l 380 662 z "},"B":{"ha":836,"x_min":35,"x_max":775,"o":"m 775 227 q 732 98 775 151 q 618 23 688 46 q 455 0 548 0 l 35 0 l 35 54 l 56 54 q 144 62 124 54 q 160 109 160 73 l 160 727 q 144 773 160 762 q 56 781 124 781 l 35 781 l 35 836 l 450 836 q 607 812 547 836 q 699 736 666 789 q 732 632 732 688 q 544 436 732 477 q 715 367 655 416 q 775 227 775 317 m 366 781 q 306 769 322 781 q 290 724 290 758 l 290 460 l 393 460 q 548 494 498 460 q 597 617 597 528 q 583 702 597 668 q 539 753 568 736 q 482 775 511 769 q 412 781 452 781 l 366 781 m 405 54 q 579 92 524 54 q 633 231 633 130 q 550 383 633 343 q 391 405 500 405 l 290 405 l 290 127 q 302 68 290 82 q 357 54 314 54 l 405 54 z "},"C":{"ha":836,"x_min":52,"x_max":773,"o":"m 444 853 q 548 834 501 853 q 649 775 595 816 l 696 844 l 740 844 q 748 676 740 788 q 757 509 757 565 l 706 509 q 639 682 669 628 q 555 768 609 736 q 444 799 502 799 q 336 769 385 799 q 262 693 286 740 q 205 405 205 596 q 223 232 205 304 q 275 117 241 159 q 353 56 309 75 q 457 37 398 37 q 537 48 500 37 q 598 76 574 60 q 644 117 623 92 q 676 164 665 142 q 698 214 688 186 q 711 259 707 243 q 719 295 715 275 l 773 286 q 670 64 754 145 q 444 -18 587 -18 q 240 37 330 -18 q 101 189 151 92 q 52 410 52 286 q 161 714 52 585 q 444 853 277 853 z "},"D":{"ha":900,"x_min":33,"x_max":847,"o":"m 159 109 l 159 727 q 141 773 159 763 q 56 781 123 781 l 33 781 l 33 836 l 401 836 q 661 789 568 836 q 806 633 754 742 q 847 422 847 542 q 801 197 847 292 q 665 51 754 102 q 422 0 574 0 l 33 0 l 33 54 l 56 54 q 141 62 123 54 q 159 109 159 73 m 694 418 q 686 543 694 488 q 659 643 678 597 q 607 719 639 689 q 527 765 576 749 q 414 781 479 781 l 354 781 q 300 771 312 781 q 288 716 288 760 l 288 118 q 298 65 288 75 q 354 54 310 54 l 433 54 q 521 64 483 54 q 592 98 559 73 q 648 162 626 122 q 682 267 669 203 q 694 418 694 331 z "},"E":{"ha":836,"x_min":33,"x_max":768,"o":"m 448 54 q 634 110 577 54 q 716 309 691 165 l 768 309 l 768 0 l 33 0 l 33 54 l 54 54 q 141 62 123 54 q 159 109 159 73 l 159 727 q 141 773 159 763 q 54 781 123 781 l 33 781 l 33 836 l 729 836 q 745 539 729 682 l 696 539 q 675 632 686 593 q 647 697 664 670 q 610 741 629 724 q 561 766 591 757 q 499 778 531 775 q 421 781 468 781 l 361 781 q 302 771 315 781 q 288 724 288 760 l 288 460 l 316 460 q 478 618 478 460 l 532 618 l 532 239 l 478 239 q 453 349 478 307 q 391 398 428 391 q 311 405 365 405 l 288 405 l 288 110 q 290 87 288 96 q 300 71 292 79 q 326 58 308 62 q 372 54 343 54 l 448 54 z "},"F":{"ha":772,"x_min":33,"x_max":722,"o":"m 316 460 q 478 618 478 460 l 532 618 l 532 239 l 478 239 q 453 350 478 309 q 391 398 428 391 q 311 405 366 405 l 288 405 l 288 109 q 306 62 288 72 q 393 54 323 54 l 431 54 l 431 0 l 33 0 l 33 54 l 54 54 q 141 62 123 54 q 159 109 159 73 l 159 727 q 141 773 159 763 q 54 781 123 781 l 33 781 l 33 836 l 722 836 l 722 539 l 677 539 q 650 667 664 622 q 611 734 635 713 q 414 781 559 781 l 361 781 q 302 771 315 781 q 288 724 288 760 l 288 460 l 316 460 z "},"G":{"ha":900,"x_min":49,"x_max":894,"o":"m 452 853 q 560 836 515 853 q 663 773 606 819 l 708 844 l 752 844 l 752 692 l 752 519 l 711 519 q 611 729 675 660 q 448 799 547 799 q 384 791 414 799 q 319 758 353 783 q 259 690 284 732 q 218 575 235 649 q 201 403 201 500 q 212 273 201 330 q 237 181 222 215 q 273 121 251 146 q 310 84 294 95 q 344 64 325 73 q 452 37 396 37 q 557 63 509 37 q 629 133 606 90 q 653 257 653 180 q 637 315 653 304 q 547 326 621 326 l 526 326 l 526 380 l 894 380 l 894 326 l 876 326 q 779 310 795 326 q 772 239 772 301 l 772 -18 l 724 -18 l 681 88 q 568 7 624 31 q 440 -18 513 -18 q 326 -1 382 -18 q 220 50 270 16 q 132 134 170 85 q 71 252 94 182 q 49 403 49 321 q 216 768 49 633 q 452 853 320 853 z "},"H":{"ha":964,"x_min":33,"x_max":930,"o":"m 393 781 q 322 777 344 781 q 295 762 301 772 q 288 727 288 751 l 288 464 l 676 464 l 676 727 q 660 773 676 762 q 572 781 640 781 l 555 781 l 555 836 l 930 836 l 930 781 l 909 781 q 822 773 842 781 q 806 727 806 763 l 806 109 q 822 62 806 73 q 909 54 842 54 l 930 54 l 930 0 l 551 0 l 551 54 l 572 54 q 660 62 640 54 q 676 109 676 73 l 676 401 l 288 401 l 288 109 q 306 62 288 72 q 393 54 323 54 l 414 54 l 414 0 l 33 0 l 33 54 l 54 54 q 141 62 123 54 q 159 109 159 73 l 159 727 q 141 773 159 763 q 54 781 123 781 l 33 781 l 33 836 l 414 836 l 414 781 l 393 781 z "},"I":{"ha":471,"x_min":44,"x_max":427,"o":"m 301 727 l 301 109 q 317 62 301 73 q 404 54 337 54 l 427 54 l 427 0 l 44 0 l 44 54 l 67 54 q 155 62 136 54 q 172 109 172 73 l 172 727 q 155 773 172 762 q 67 781 136 781 l 44 781 l 44 836 l 427 836 l 427 781 l 404 781 q 317 773 337 781 q 301 727 301 763 z "},"J":{"ha":643,"x_min":6,"x_max":621,"o":"m 75 141 q 83 109 75 126 q 107 76 92 92 q 152 48 123 59 q 215 37 180 37 q 352 138 319 37 q 367 321 367 182 l 367 727 q 349 773 367 763 q 264 781 332 781 l 242 781 l 242 836 l 621 836 l 621 781 l 600 781 q 511 773 531 781 q 495 727 495 762 l 495 310 q 490 205 495 250 q 469 116 485 161 q 425 44 453 72 q 350 0 397 17 q 236 -18 302 -18 q 73 33 130 -18 q 6 180 6 87 q 38 281 6 241 q 121 321 71 321 q 184 298 159 321 q 208 237 208 275 q 186 177 208 199 q 136 154 165 154 q 93 160 117 154 l 89 160 q 75 141 75 160 z "},"K":{"ha":900,"x_min":35,"x_max":929,"o":"m 290 378 l 573 663 q 629 747 629 720 q 554 781 629 781 l 526 781 l 526 836 l 882 836 l 882 781 q 686 688 773 781 l 514 516 l 794 113 q 840 65 819 77 q 907 54 861 54 l 929 54 l 929 0 l 534 0 l 534 54 l 570 54 q 648 81 648 54 q 625 130 648 94 l 424 425 l 290 290 l 290 109 q 306 62 290 73 q 393 54 326 54 l 416 54 l 416 0 l 35 0 l 35 54 l 56 54 q 144 62 124 54 q 160 109 160 73 l 160 727 q 144 773 160 762 q 56 781 124 781 l 35 781 l 35 836 l 416 836 l 416 781 l 393 781 q 306 773 326 781 q 290 727 290 763 l 290 378 z "},"L":{"ha":772,"x_min":41,"x_max":748,"o":"m 295 110 q 297 87 295 96 q 307 71 299 79 q 332 58 315 62 q 378 54 350 54 l 427 54 q 627 121 574 54 q 696 317 678 186 l 748 317 l 748 0 l 41 0 l 41 54 l 61 54 q 148 62 130 54 q 165 109 165 72 l 165 727 q 148 773 165 764 q 61 781 130 781 l 41 781 l 41 836 l 420 836 l 420 781 l 399 781 q 313 773 330 781 q 295 727 295 763 l 295 110 z "},"M":{"ha":1093,"x_min":26,"x_max":1057,"o":"m 332 836 l 554 219 l 766 836 l 1057 836 l 1057 781 l 1036 781 q 949 773 967 781 q 932 727 932 763 l 932 109 q 949 62 932 73 q 1036 54 967 54 l 1057 54 l 1057 0 l 677 0 l 677 54 l 698 54 q 785 62 767 54 q 802 109 802 73 l 802 762 l 544 0 l 498 0 l 222 762 l 222 250 q 248 95 222 131 q 355 54 277 54 l 355 0 l 26 0 l 26 54 q 134 95 105 54 q 160 250 160 131 l 160 727 q 144 773 160 762 q 56 781 124 781 l 33 781 l 33 836 l 332 836 z "},"N":{"ha":943,"x_min":22,"x_max":919,"o":"m 157 743 q 118 773 142 765 q 51 781 94 781 l 22 781 l 22 836 l 260 836 l 722 221 l 722 585 q 719 660 722 630 q 708 715 716 690 q 685 753 700 740 q 646 774 669 767 q 589 781 623 781 l 589 836 l 919 836 l 919 781 q 811 739 837 781 q 785 585 785 697 l 785 -16 l 736 -16 l 220 681 l 220 251 q 246 96 220 138 q 353 54 272 54 l 353 0 l 23 0 l 23 54 q 132 95 103 54 q 157 251 157 131 l 157 743 z "},"O":{"ha":900,"x_min":52,"x_max":848,"o":"m 52 416 q 81 585 52 505 q 161 724 110 665 q 289 818 213 783 q 455 853 366 853 q 735 727 622 853 q 848 418 848 602 q 734 106 848 231 q 450 -18 620 -18 q 247 38 338 -18 q 104 194 156 94 q 52 416 52 294 m 454 799 q 382 789 415 799 q 326 764 349 779 q 284 727 303 749 q 255 687 265 705 q 235 645 244 668 q 223 610 227 622 q 218 586 220 599 q 205 420 205 522 q 216 258 205 323 q 262 136 228 194 q 450 37 328 37 q 521 47 488 37 q 576 73 554 58 q 617 110 599 88 q 647 151 636 132 q 666 193 657 170 q 677 227 675 216 q 683 250 680 238 q 696 418 696 316 q 681 597 696 537 q 637 699 665 657 q 454 799 573 799 z "},"P":{"ha":772,"x_min":33,"x_max":751,"o":"m 437 836 q 575 820 516 836 q 667 782 634 804 q 719 726 699 759 q 745 666 739 694 q 751 606 751 638 q 746 558 751 583 q 729 505 741 534 q 689 448 716 475 q 623 401 662 420 q 418 372 557 372 l 287 372 l 287 109 q 303 62 287 73 q 391 54 323 54 l 421 54 l 421 0 l 33 0 l 33 54 l 54 54 q 141 62 121 54 q 157 109 157 73 l 157 727 q 141 773 157 763 q 54 781 121 781 l 33 781 l 33 836 l 437 836 m 357 781 q 299 770 311 781 q 287 722 287 760 l 287 426 l 427 426 q 609 602 609 426 q 601 671 609 641 q 574 727 593 701 q 519 767 555 753 q 432 781 484 781 l 357 781 z "},"Q":{"ha":900,"x_min":52,"x_max":866,"o":"m 768 -125 q 803 -93 792 -125 q 814 -23 814 -61 l 866 -23 q 856 -106 866 -70 q 831 -163 846 -142 q 795 -197 816 -184 q 756 -215 774 -210 q 718 -219 737 -219 q 601 -156 641 -219 q 560 0 560 -92 q 457 -18 507 -18 q 170 109 288 -18 q 52 416 52 236 q 81 579 52 500 q 162 719 111 659 q 288 817 213 780 q 449 853 363 853 q 651 798 559 853 q 796 645 743 743 q 850 427 850 547 q 667 50 850 202 q 695 -32 682 2 q 719 -83 709 -66 q 738 -111 728 -101 q 754 -123 748 -121 q 768 -125 760 -125 m 439 307 q 558 267 505 307 q 637 138 611 227 q 682 248 667 189 q 696 420 696 306 q 688 552 696 494 q 666 646 679 610 q 635 708 654 681 q 602 746 616 734 q 570 768 588 758 q 452 799 515 799 q 264 696 321 799 q 205 416 205 591 q 272 128 205 218 l 272 149 q 319 263 272 220 q 439 307 366 307 m 326 138 q 361 60 326 83 q 447 37 396 37 q 555 62 506 37 l 555 74 q 526 203 555 154 q 433 252 496 252 q 355 220 385 252 q 326 138 326 189 z "},"R":{"ha":836,"x_min":30,"x_max":825,"o":"m 528 226 q 514 296 523 267 q 486 351 505 325 q 434 391 467 378 q 352 405 400 405 l 285 405 l 285 109 q 301 62 285 73 q 389 54 321 54 l 410 54 l 410 0 l 30 0 l 30 54 l 51 54 q 139 62 119 54 q 155 109 155 73 l 155 727 q 139 773 155 762 q 51 781 119 781 l 30 781 l 30 836 l 431 836 q 549 824 495 836 q 645 789 602 812 q 712 724 688 765 q 736 629 736 684 q 490 421 736 456 q 592 365 554 404 q 650 243 631 326 l 669 170 q 694 93 683 115 q 727 71 705 71 q 765 105 753 71 q 777 185 777 140 l 825 185 q 822 125 825 153 q 808 71 818 98 q 782 24 798 43 q 741 -6 766 5 q 682 -18 715 -18 q 614 -2 643 -18 q 567 41 585 14 q 541 99 550 68 q 528 167 532 130 l 528 226 m 365 781 q 306 777 325 781 q 287 757 287 772 q 285 714 285 752 l 285 460 l 412 460 q 553 503 512 460 q 594 627 594 546 q 552 744 594 707 q 427 781 511 781 l 365 781 z "},"S":{"ha":729,"x_min":59,"x_max":683,"o":"m 79 611 q 148 787 79 721 q 332 853 216 853 q 543 773 460 853 l 589 842 l 632 842 l 632 539 l 596 539 q 563 634 583 591 q 512 715 543 677 q 436 776 481 754 q 334 798 390 798 q 214 760 259 798 q 169 661 169 722 q 321 519 169 559 l 444 488 q 614 414 570 456 q 683 237 683 346 q 607 51 683 120 q 404 -18 531 -18 q 272 0 321 -18 q 161 69 223 18 l 109 -9 l 59 -9 l 59 321 l 109 321 q 115 289 112 304 q 130 244 119 275 q 154 188 140 213 q 191 134 167 163 q 242 84 214 104 q 311 50 270 64 q 401 36 353 36 q 544 84 494 36 q 593 198 593 133 q 587 239 593 220 q 574 272 582 258 q 553 296 567 285 q 529 315 540 308 q 500 328 519 321 q 473 338 482 335 q 445 345 464 340 q 421 351 426 349 l 311 378 q 135 461 191 410 q 79 611 79 512 z "},"T":{"ha":772,"x_min":39,"x_max":732,"o":"m 267 781 q 201 769 229 781 q 153 735 172 756 q 119 678 134 713 q 96 606 104 643 q 79 515 87 568 l 39 515 l 39 836 l 732 836 l 732 514 l 692 514 q 686 556 688 540 q 678 597 683 572 q 668 638 673 622 q 654 675 663 654 q 637 710 646 696 q 614 739 628 724 q 586 762 601 753 q 550 776 570 770 q 506 781 530 781 q 452 740 452 781 l 452 109 q 467 62 452 73 q 554 54 488 54 l 585 54 l 585 0 l 187 0 l 187 54 l 218 54 q 306 62 285 54 q 321 109 321 73 l 321 740 q 267 781 321 781 z "},"U":{"ha":943,"x_min":20,"x_max":925,"o":"m 728 585 q 702 741 728 701 q 595 781 676 781 l 595 836 l 925 836 l 925 781 q 816 741 845 781 q 791 585 791 705 l 791 321 q 782 216 791 264 q 750 124 773 169 q 692 50 728 80 q 597 1 656 19 q 463 -18 539 -18 q 177 102 260 -18 q 142 233 142 153 l 142 727 q 125 773 142 763 q 39 781 107 781 l 20 781 l 20 836 l 398 836 l 398 781 l 376 781 q 290 773 307 781 q 272 727 272 763 l 272 306 q 279 192 272 224 q 309 127 286 160 q 494 45 370 45 q 585 60 545 45 q 650 95 626 75 q 690 142 673 116 q 714 188 707 169 q 722 224 720 208 q 728 329 728 261 l 728 585 z "},"V":{"ha":836,"x_min":-9,"x_max":846,"o":"m 648 721 q 621 766 648 751 q 554 781 593 781 l 532 781 l 532 836 l 846 836 l 846 781 l 835 781 q 760 760 787 781 q 708 668 734 734 l 442 -18 l 396 -18 l 103 716 q 69 769 88 757 q 14 781 50 781 l -9 781 l -9 836 l 352 836 l 352 781 l 306 781 q 234 752 234 781 q 243 718 234 742 l 455 180 l 634 656 q 648 721 648 694 z "},"W":{"ha":1135,"x_min":7,"x_max":1130,"o":"m 724 781 q 659 775 677 781 q 641 750 641 768 q 649 718 641 744 l 809 211 l 948 681 q 955 721 955 699 q 855 781 955 781 l 846 781 l 846 836 l 1130 836 l 1130 781 l 1125 781 q 1077 773 1097 781 q 1044 746 1057 764 q 1024 709 1031 727 q 1008 662 1017 692 l 804 -18 l 757 -18 l 570 558 l 398 -18 l 349 -18 l 98 736 q 77 773 88 765 q 29 781 65 781 l 7 781 l 7 836 l 334 836 l 334 781 l 281 781 q 231 758 231 781 q 237 729 231 750 l 404 211 l 538 655 l 508 745 q 484 774 500 767 q 435 781 468 781 l 408 781 l 408 836 l 743 836 l 743 781 l 724 781 z "},"X":{"ha":814,"x_min":-7,"x_max":829,"o":"m 219 110 q 236 71 219 88 q 294 54 253 54 l 323 54 l 323 0 l -6 0 l -6 54 l 0 54 q 151 147 86 54 l 338 408 l 110 737 q 73 773 92 766 q 13 781 54 781 l -7 781 l -7 836 l 351 836 l 351 781 l 307 781 q 251 766 251 781 q 264 737 251 758 l 418 515 l 543 696 q 559 736 559 720 q 479 781 559 781 l 463 781 l 463 836 l 781 836 l 781 781 l 763 781 q 685 760 717 781 q 604 673 654 738 l 450 463 l 693 115 q 740 63 722 73 q 814 54 759 54 l 829 54 l 829 0 l 449 0 l 449 54 l 481 54 q 546 57 533 54 q 559 75 559 60 q 544 111 559 90 l 372 355 l 237 161 q 219 110 219 135 z "},"Y":{"ha":814,"x_min":-15,"x_max":825,"o":"m 614 729 q 591 770 614 759 q 523 781 568 781 l 496 781 l 496 836 l 825 836 l 825 781 l 816 781 q 767 773 789 781 q 730 755 745 765 q 700 726 716 746 q 677 694 684 705 q 656 657 671 682 l 484 346 l 484 109 q 500 62 484 73 q 587 54 518 54 l 617 54 l 617 0 l 220 0 l 220 54 l 250 54 q 338 62 318 54 q 354 109 354 73 l 354 332 l 104 728 q 67 770 86 759 q 10 781 47 781 l -15 781 l -15 836 l 354 836 l 354 781 l 288 781 q 243 760 243 781 q 256 727 243 747 l 450 413 l 594 669 q 614 729 614 708 z "},"Z":{"ha":707,"x_min":28,"x_max":665,"o":"m 351 781 q 249 770 288 781 q 183 728 210 758 q 142 656 157 697 q 113 543 127 614 l 85 543 l 85 836 l 659 836 l 659 794 l 183 54 l 375 54 q 497 78 452 54 q 569 159 542 102 q 611 321 595 216 l 665 321 l 665 0 l 28 0 l 28 41 l 501 781 l 351 781 z "},"[":{"ha":385,"x_min":77,"x_max":344,"o":"m 180 -83 l 344 -83 l 344 -125 l 77 -125 l 77 836 l 344 836 l 344 793 l 180 793 l 180 -83 z "},"\\":{"ha":701,"x_min":85,"x_max":616,"o":"m 153 853 l 616 0 l 549 0 l 85 853 l 153 853 z "},"]":{"ha":385,"x_min":41,"x_max":308,"o":"m 203 794 l 41 794 l 41 836 l 308 836 l 308 -125 l 41 -125 l 41 -82 l 203 -82 l 203 794 z "},"^":{"ha":701,"x_min":60,"x_max":641,"o":"m 641 368 l 541 368 l 352 728 l 161 368 l 60 368 l 302 836 l 401 836 l 641 368 z "},"_":{"ha":578,"x_min":0,"x_max":578,"o":"m 0 -85 l 578 -85 l 578 -155 l 0 -155 l 0 -85 z "},"`":{"ha":385,"x_min":20,"x_max":280,"o":"m 20 777 q 31 806 20 795 q 60 817 43 817 q 118 781 82 817 l 280 619 l 233 619 l 49 732 q 20 777 20 750 z "},"a":{"ha":643,"x_min":51,"x_max":629,"o":"m 82 412 q 147 516 82 476 q 308 557 212 557 q 477 511 418 557 q 523 373 523 473 l 523 140 q 534 77 523 94 q 567 60 545 60 q 595 67 578 60 q 617 73 612 73 q 629 59 629 73 q 596 13 629 34 q 522 -8 564 -8 q 485 -4 500 -8 q 450 20 469 1 q 420 74 431 39 q 219 -18 342 -18 q 98 18 145 -18 q 51 118 51 54 q 66 186 51 155 q 115 239 81 217 q 176 275 150 261 q 256 302 202 290 q 328 319 309 315 q 399 332 347 323 q 414 334 410 334 l 414 380 q 387 475 414 444 q 290 507 360 507 q 219 494 252 507 q 186 462 186 481 q 199 440 186 459 q 212 399 212 420 q 192 354 212 368 q 149 340 172 340 q 103 357 124 340 q 82 412 82 374 m 168 134 q 194 69 168 94 q 259 44 220 44 q 359 81 314 44 q 410 160 404 118 q 414 231 414 177 l 414 285 q 224 231 281 263 q 168 134 168 199 z "},"b":{"ha":643,"x_min":9,"x_max":602,"o":"m 100 732 q 90 780 100 770 q 50 791 81 791 l 9 791 l 9 853 l 208 853 l 208 467 q 275 538 243 519 q 366 557 306 557 q 536 477 471 557 q 602 273 602 398 q 531 64 602 146 q 353 -18 460 -18 q 180 74 249 -18 l 123 -18 l 79 -18 q 100 282 100 77 l 100 732 m 480 262 q 471 362 480 318 q 448 431 462 406 q 416 471 435 456 q 380 492 397 487 q 345 498 363 498 q 308 493 326 498 q 271 473 291 488 q 236 433 250 458 q 212 363 222 408 q 203 259 203 318 q 213 163 203 205 q 237 98 222 122 q 272 58 252 73 q 311 38 292 43 q 349 33 329 33 q 412 52 385 33 q 453 104 438 71 q 474 177 467 138 q 480 262 480 216 z "},"c":{"ha":513,"x_min":39,"x_max":493,"o":"m 311 54 q 388 80 355 54 q 448 170 420 106 l 493 153 q 411 24 458 66 q 281 -18 364 -18 q 106 59 173 -18 q 39 260 39 136 q 111 473 39 389 q 298 557 183 557 q 426 516 377 557 q 478 419 478 478 q 458 362 478 385 q 408 340 439 340 q 357 359 376 340 q 338 405 338 378 q 353 448 338 425 q 368 472 368 471 q 349 496 368 485 q 303 507 330 507 q 200 443 239 507 q 161 273 161 379 q 199 116 161 178 q 311 54 237 54 z "},"d":{"ha":664,"x_min":50,"x_max":641,"o":"m 549 134 q 563 65 549 81 q 621 50 577 50 l 641 50 l 641 0 l 440 0 l 440 83 q 280 -18 386 -18 q 114 62 178 -18 q 50 264 50 142 q 78 410 50 343 q 160 516 106 476 q 280 557 213 557 q 440 471 376 557 l 440 732 q 430 780 440 769 q 390 791 419 791 l 321 791 l 321 853 l 549 853 l 549 134 m 440 267 q 427 378 440 331 q 392 449 414 425 q 348 484 370 473 q 303 494 326 494 q 236 470 264 494 q 193 410 207 445 q 172 250 172 355 q 184 148 172 191 q 217 84 197 105 q 259 54 238 63 q 302 45 279 45 q 380 79 348 45 q 426 161 412 113 q 440 267 440 210 z "},"e":{"ha":578,"x_min":41,"x_max":538,"o":"m 300 557 q 472 475 406 557 q 538 267 538 393 l 538 260 l 163 260 l 163 251 q 174 165 163 203 q 201 106 185 128 q 240 70 218 84 q 283 51 262 56 q 324 45 303 45 q 419 72 379 45 q 498 169 460 99 l 538 147 q 302 -18 467 -18 q 113 57 185 -18 q 41 254 41 132 q 114 471 41 385 q 300 557 187 557 m 414 353 q 382 465 414 423 q 298 507 351 507 q 232 485 260 507 q 190 430 204 463 q 170 366 176 396 q 164 310 164 336 l 367 310 q 404 319 394 310 q 414 353 414 328 z "},"f":{"ha":385,"x_min":22,"x_max":501,"o":"m 373 735 q 381 769 373 753 q 390 787 390 785 q 351 807 390 807 q 286 783 313 807 q 245 724 258 760 q 233 606 233 690 l 233 539 l 360 539 l 360 490 l 233 490 l 233 96 q 248 51 233 62 q 321 41 268 41 l 341 41 l 341 0 l 33 0 l 33 41 l 37 41 q 109 51 88 41 q 124 96 124 62 l 124 490 l 22 490 l 22 539 l 124 539 l 124 575 q 134 686 124 642 q 170 768 143 730 q 349 853 232 853 q 425 843 393 853 q 472 814 456 832 q 494 780 488 797 q 501 744 501 762 q 483 693 501 713 q 436 673 465 673 q 393 689 414 673 q 373 735 373 704 z "},"g":{"ha":621,"x_min":26,"x_max":627,"o":"m 132 126 q 151 94 132 102 q 227 85 169 85 l 345 85 q 451 79 412 85 q 510 60 490 73 q 543 23 530 47 q 562 -52 562 -8 q 488 -191 562 -144 q 271 -238 415 -238 q 185 -232 226 -238 q 107 -213 144 -226 q 48 -175 71 -200 q 26 -116 26 -150 q 133 -6 26 -44 q 56 94 56 20 q 84 171 56 144 q 165 210 112 198 q 95 270 122 229 q 68 365 68 311 q 73 413 68 390 q 93 464 78 436 q 132 511 108 491 q 198 544 155 530 q 296 557 241 557 q 440 513 374 557 q 502 561 479 549 q 551 573 524 573 q 605 555 583 573 q 627 509 627 538 q 612 467 627 484 q 575 450 597 450 q 541 459 553 450 q 527 480 529 469 q 521 500 524 491 q 511 509 517 509 q 472 481 498 509 q 515 368 515 432 q 513 332 515 349 q 501 290 511 315 q 474 246 491 265 q 426 209 458 227 q 349 183 393 191 q 241 178 319 178 q 132 126 132 178 m 408 367 q 397 439 408 409 q 368 483 387 469 q 332 502 350 496 q 295 507 315 507 q 205 469 236 507 q 174 363 174 430 q 204 261 174 299 q 290 222 235 222 q 378 261 348 222 q 408 367 408 300 m 480 -83 q 455 -32 480 -51 q 405 -14 429 -14 l 199 -14 q 139 -58 155 -38 q 123 -106 123 -78 q 136 -146 123 -130 q 172 -171 149 -163 q 220 -183 195 -180 q 275 -187 245 -187 q 362 -180 325 -187 q 422 -162 400 -173 q 457 -138 444 -152 q 476 -110 471 -123 q 480 -83 480 -97 z "},"h":{"ha":707,"x_min":18,"x_max":686,"o":"m 123 732 q 113 780 123 769 q 73 791 104 791 l 18 791 l 18 853 l 231 853 l 231 444 q 414 557 307 557 q 531 516 484 557 q 590 412 578 475 q 595 324 595 393 l 595 96 q 610 52 595 63 q 682 41 626 41 l 686 41 l 686 0 l 393 0 l 393 41 l 398 41 q 471 52 455 41 q 486 96 486 63 l 486 329 q 480 397 486 369 q 464 440 475 425 q 445 462 452 456 q 424 475 437 468 q 378 486 401 486 q 310 465 345 486 q 252 398 275 444 q 231 262 231 353 l 231 96 q 247 52 231 63 q 319 41 263 41 l 324 41 l 324 0 l 31 0 l 31 41 l 36 41 q 107 52 92 41 q 123 96 123 63 l 123 732 z "},"i":{"ha":364,"x_min":21,"x_max":334,"o":"m 130 419 q 121 466 130 455 q 80 477 112 477 l 21 477 l 21 539 l 239 539 l 239 96 q 254 52 239 63 q 326 41 269 41 l 334 41 l 334 0 l 35 0 l 35 41 l 43 41 q 114 52 98 41 q 130 96 130 63 l 130 419 m 117 760 q 136 808 117 788 q 184 827 155 827 q 232 808 212 827 q 251 760 251 788 q 231 713 251 732 q 183 693 212 693 q 136 714 155 693 q 117 760 117 735 z "},"j":{"ha":342,"x_min":-95,"x_max":252,"o":"m 45 -185 q 90 -170 72 -185 q 116 -124 107 -155 q 128 -59 125 -94 q 131 26 131 -24 l 131 419 q 123 467 131 455 q 81 477 113 477 l 14 477 l 14 539 l 239 539 l 239 82 q 231 -61 239 -7 q 192 -159 222 -115 q 35 -234 137 -234 q -58 -209 -20 -234 q -95 -139 -95 -184 q -76 -89 -95 -108 q -30 -69 -57 -69 q 11 -84 -8 -69 q 30 -124 30 -100 q 23 -150 30 -134 q 16 -170 16 -166 q 45 -185 16 -185 m 118 760 q 138 808 118 789 q 185 827 158 827 q 232 808 212 827 q 252 760 252 789 q 232 712 252 732 q 184 693 212 693 q 138 713 157 693 q 118 760 118 733 z "},"k":{"ha":686,"x_min":16,"x_max":680,"o":"m 121 732 q 112 780 121 770 q 72 791 102 791 l 16 791 l 16 853 l 231 853 l 231 280 l 387 431 q 413 475 413 456 q 359 498 413 498 l 323 498 l 323 539 l 627 539 l 627 498 q 523 467 567 490 q 432 397 478 444 l 380 346 l 544 121 q 606 61 582 75 q 680 41 629 47 l 680 0 l 374 0 l 374 41 l 396 41 q 447 61 447 41 q 439 82 447 69 l 301 275 l 231 208 l 231 96 q 245 51 231 62 q 318 41 266 41 l 323 41 l 323 0 l 30 0 l 30 41 l 35 41 q 106 51 86 41 q 121 96 121 62 l 121 732 z "},"l":{"ha":364,"x_min":22,"x_max":332,"o":"m 127 732 q 118 780 127 769 q 79 791 109 791 l 22 791 l 22 853 l 236 853 l 236 96 q 252 52 236 63 q 324 41 268 41 l 332 41 l 332 0 l 33 0 l 33 41 l 41 41 q 112 53 96 41 q 127 96 127 64 l 127 732 z "},"m":{"ha":1029,"x_min":26,"x_max":1004,"o":"m 365 486 q 270 435 307 486 q 233 307 233 383 l 233 97 q 248 51 233 62 q 319 41 268 41 l 324 41 l 324 0 l 33 0 l 33 41 l 37 41 q 109 51 88 41 q 121 98 121 60 l 121 420 q 116 467 121 458 q 74 477 104 477 l 26 477 l 26 539 l 233 539 l 233 450 q 399 557 299 557 q 501 525 458 557 q 559 441 543 493 q 740 557 629 557 q 809 544 778 557 q 860 510 840 530 q 890 471 879 490 q 906 435 901 452 q 913 355 913 406 l 913 97 q 928 51 913 62 q 1000 41 949 41 l 1004 41 l 1004 0 l 712 0 l 712 41 l 716 41 q 789 51 769 41 q 804 96 804 62 l 804 332 q 800 392 804 366 q 785 440 795 418 q 754 474 774 463 q 706 486 734 486 q 608 435 644 486 q 573 296 573 384 l 573 96 q 588 51 573 62 q 660 41 608 41 l 665 41 l 665 0 l 372 0 l 372 41 l 376 41 q 449 51 429 41 q 464 96 464 62 l 464 345 q 365 486 464 486 z "},"n":{"ha":707,"x_min":31,"x_max":686,"o":"m 123 419 q 113 466 123 456 q 73 477 104 477 l 31 477 l 31 539 l 231 539 l 231 446 q 414 557 307 557 q 530 516 483 557 q 590 412 578 476 q 595 324 595 393 l 595 96 q 610 52 595 63 q 682 41 626 41 l 686 41 l 686 0 l 393 0 l 393 41 l 398 41 q 471 52 455 41 q 486 96 486 63 l 486 330 q 378 486 486 486 q 310 465 345 486 q 252 398 275 444 q 231 262 231 353 l 231 96 q 247 52 231 63 q 319 41 263 41 l 324 41 l 324 0 l 31 0 l 31 41 l 36 41 q 107 52 92 41 q 123 96 123 63 l 123 419 z "},"o":{"ha":578,"x_min":39,"x_max":539,"o":"m 39 269 q 112 473 39 390 q 292 557 184 557 q 468 473 396 557 q 539 270 539 389 q 467 66 539 150 q 290 -18 395 -18 q 162 21 220 -18 q 72 124 104 59 q 39 269 39 190 m 418 270 q 406 392 418 342 q 373 466 393 442 q 333 498 353 489 q 292 507 313 507 q 161 269 161 507 q 170 167 161 211 q 191 98 178 123 q 222 58 204 73 q 256 38 240 43 q 290 33 272 33 q 323 37 307 33 q 357 57 338 42 q 388 97 375 73 q 409 166 401 122 q 418 270 418 211 z "},"p":{"ha":664,"x_min":33,"x_max":619,"o":"m 385 -18 q 294 7 328 -18 q 233 77 259 31 l 233 -138 q 248 -183 233 -170 q 321 -192 267 -192 l 334 -192 l 334 -234 l 33 -234 l 33 -192 l 37 -192 q 109 -183 90 -192 q 124 -138 124 -171 l 124 419 q 116 467 124 453 q 74 477 104 477 l 33 477 l 33 539 l 233 539 l 233 457 q 393 557 290 557 q 556 475 492 557 q 619 272 619 393 q 554 65 619 148 q 385 -18 489 -18 m 498 279 q 491 359 498 322 q 471 427 485 395 q 432 476 457 458 q 372 494 406 494 q 307 475 334 494 q 263 422 279 456 q 239 350 247 389 q 231 264 231 310 q 269 104 231 163 q 368 45 307 45 q 411 55 391 45 q 452 89 431 65 q 485 161 473 112 q 498 279 498 210 z "},"q":{"ha":643,"x_min":41,"x_max":634,"o":"m 41 257 q 113 472 41 387 q 290 557 184 557 q 465 460 397 557 l 519 539 l 562 539 q 544 441 544 448 q 543 412 544 439 q 543 357 543 384 l 543 -138 q 558 -183 543 -171 q 629 -192 577 -192 l 634 -192 l 634 -234 l 334 -234 l 334 -192 l 346 -192 q 419 -183 400 -192 q 434 -138 434 -170 l 434 67 q 365 0 397 17 q 277 -18 332 -18 q 107 61 172 -18 q 41 257 41 139 m 434 282 q 425 378 434 336 q 402 443 416 419 q 370 482 389 467 q 334 502 351 497 q 300 507 317 507 q 163 264 163 507 q 173 171 163 212 q 195 108 182 131 q 228 70 209 85 q 263 51 246 56 q 298 45 280 45 q 434 282 434 45 z "},"r":{"ha":513,"x_min":24,"x_max":503,"o":"m 229 96 q 245 52 229 63 q 316 41 261 41 l 338 41 l 338 0 l 29 0 l 29 41 l 33 41 q 106 51 86 41 q 121 96 121 62 l 121 419 q 113 467 121 455 q 72 477 103 477 l 24 477 l 24 539 l 229 539 l 229 396 q 303 515 257 473 q 403 557 350 557 q 476 532 449 557 q 503 464 503 507 q 484 407 503 429 q 433 385 464 385 q 387 403 404 385 q 369 449 369 421 q 390 501 369 476 q 315 460 347 496 q 264 372 282 425 q 238 264 246 319 q 229 154 229 209 l 229 96 z "},"s":{"ha":536,"x_min":59,"x_max":488,"o":"m 67 389 q 113 511 67 465 q 236 557 159 557 q 377 511 319 557 l 411 552 l 452 552 l 452 357 l 411 357 q 394 400 403 381 q 370 440 385 419 q 338 474 355 460 q 296 497 321 488 q 242 506 271 506 q 165 484 195 506 q 134 426 134 462 q 162 372 134 389 q 259 339 190 355 l 317 326 q 406 300 381 311 q 488 161 488 260 q 436 31 488 80 q 298 -18 385 -18 q 140 39 210 -18 l 100 -8 l 59 -8 l 59 211 l 105 211 q 173 81 125 130 q 300 33 221 33 q 383 58 351 33 q 416 125 416 83 q 386 182 416 161 q 292 216 356 202 l 231 231 q 105 285 144 250 q 67 389 67 319 z "},"t":{"ha":450,"x_min":21,"x_max":433,"o":"m 262 -18 q 219 -14 239 -18 q 186 -4 200 -10 q 161 12 172 1 q 142 33 150 22 q 130 59 135 43 q 122 88 125 75 q 118 122 119 101 q 116 157 117 142 q 116 195 116 172 l 116 490 l 21 490 l 21 534 q 134 596 92 534 q 177 768 177 659 l 224 768 l 224 539 l 395 539 l 395 490 l 224 490 l 224 174 q 238 80 224 106 q 293 54 252 54 q 359 93 336 54 q 383 211 383 133 l 432 211 q 432 199 432 208 q 433 184 433 190 q 389 38 433 94 q 262 -18 345 -18 z "},"u":{"ha":707,"x_min":24,"x_max":688,"o":"m 586 134 q 599 65 586 80 q 659 50 612 50 l 688 50 l 688 0 l 477 0 l 477 88 q 433 35 455 56 q 376 -2 412 14 q 296 -18 340 -18 q 140 57 188 -18 q 118 169 118 88 l 118 419 q 109 466 118 455 q 68 477 100 477 l 24 477 l 24 539 l 227 539 l 227 186 q 230 121 227 137 q 244 89 233 104 q 326 54 267 54 q 477 277 477 54 l 477 419 q 468 466 477 455 q 427 477 459 477 l 368 477 l 368 539 l 586 539 l 586 134 z "},"v":{"ha":621,"x_min":9,"x_max":611,"o":"m 267 498 q 217 491 230 498 q 203 471 203 484 q 210 447 203 462 l 341 140 l 448 408 q 458 457 458 439 q 396 498 458 498 l 380 498 l 380 539 l 611 539 l 611 498 l 606 498 q 499 389 542 498 l 334 -18 l 294 -18 l 95 448 q 68 487 83 477 q 18 498 53 498 l 9 498 l 9 539 l 282 539 l 282 498 l 267 498 z "},"w":{"ha":900,"x_min":18,"x_max":883,"o":"m 564 498 q 526 492 536 498 q 515 471 515 486 q 519 447 515 456 l 633 149 l 732 413 q 741 456 741 437 q 684 498 741 498 l 665 498 l 665 539 l 883 539 l 883 498 l 875 498 q 825 478 843 498 q 789 410 808 458 l 627 -18 l 591 -18 l 450 349 l 313 -18 l 272 -18 l 98 441 q 75 486 86 474 q 38 498 63 498 l 18 498 l 18 539 l 272 539 l 272 498 l 251 498 q 203 471 203 498 q 208 446 203 460 l 321 155 l 422 425 l 412 455 q 392 488 404 479 q 352 498 380 498 l 332 498 l 332 539 l 591 539 l 591 498 l 564 498 z "},"x":{"ha":621,"x_min":10,"x_max":612,"o":"m 180 73 q 189 52 180 59 q 208 43 197 45 q 237 41 218 41 l 254 41 l 254 0 l 10 0 l 10 41 l 18 41 q 121 102 72 41 l 254 257 l 113 435 q 65 486 83 473 q 18 498 48 498 l 18 539 l 292 539 l 292 498 l 275 498 q 224 477 224 498 q 236 452 224 464 l 326 338 l 398 425 q 421 472 421 455 q 369 498 421 498 l 347 498 l 347 539 l 587 539 l 587 498 l 576 498 q 490 449 532 498 l 357 295 l 503 98 q 604 41 545 41 l 612 41 l 612 0 l 321 0 l 321 41 l 329 41 q 390 62 390 41 q 375 97 390 75 l 287 214 l 190 97 q 180 73 180 89 z "},"y":{"ha":621,"x_min":3,"x_max":614,"o":"m 132 -130 q 128 -152 132 -137 q 124 -170 124 -167 q 142 -182 124 -182 q 208 -139 171 -182 q 275 -33 245 -96 l 295 8 l 106 435 q 77 481 94 465 q 28 498 60 498 l 15 498 l 15 539 l 290 539 l 290 498 l 267 498 q 213 469 213 498 q 220 444 213 460 l 347 147 l 452 408 q 464 455 464 435 q 401 498 464 498 l 383 498 l 383 539 l 614 539 l 614 498 l 608 498 q 552 476 573 498 q 511 404 532 454 l 378 77 q 331 -35 352 11 q 284 -122 309 -81 q 233 -187 258 -163 q 176 -225 208 -211 q 109 -239 145 -239 q 33 -213 62 -239 q 3 -149 3 -186 q 23 -97 3 -117 q 73 -77 43 -77 q 117 -94 102 -77 q 132 -130 132 -110 z "},"z":{"ha":556,"x_min":45,"x_max":503,"o":"m 260 490 q 155 454 187 490 q 113 344 122 419 l 77 344 l 77 539 l 495 539 l 495 498 l 180 50 l 298 50 q 419 89 380 50 q 457 207 457 127 l 503 207 l 503 0 l 45 0 l 45 41 l 361 490 l 260 490 z "},"{":{"ha":385,"x_min":77,"x_max":344,"o":"m 164 259 q 144 298 164 276 q 77 337 124 320 l 77 374 q 115 388 102 382 q 139 405 127 395 q 155 431 151 415 q 162 469 159 447 q 164 528 164 491 l 164 662 q 174 751 164 715 q 206 804 184 786 q 252 829 227 822 q 314 836 277 836 l 344 836 l 344 796 q 269 763 288 796 q 250 650 250 729 l 250 500 q 234 412 250 439 q 172 355 218 385 q 234 298 218 326 q 250 211 250 271 l 250 60 q 269 -53 250 -20 q 344 -85 288 -85 l 344 -125 l 314 -125 q 252 -118 277 -125 q 206 -93 227 -111 q 174 -40 184 -75 q 164 49 164 -5 l 164 259 z "},"|":{"ha":701,"x_min":306,"x_max":396,"o":"m 396 836 l 396 0 l 306 0 l 306 836 l 396 836 z "},"}":{"ha":385,"x_min":41,"x_max":309,"o":"m 222 452 q 225 436 222 444 q 237 417 229 428 q 263 394 245 406 q 309 374 282 382 l 309 337 q 263 319 277 326 q 237 294 248 311 q 222 253 225 277 q 220 183 220 229 l 220 49 q 188 -85 220 -45 q 71 -125 156 -125 l 41 -125 l 41 -85 q 115 -53 96 -85 q 134 60 134 -20 l 134 211 q 150 299 134 272 q 212 355 165 327 q 150 412 166 384 q 134 500 134 439 l 134 650 q 115 764 134 731 q 41 796 96 796 l 41 836 l 71 836 q 188 796 156 836 q 220 662 220 756 l 220 528 q 221 481 220 506 q 222 452 222 456 z "},"~":{"ha":701,"x_min":59,"x_max":642,"o":"m 642 315 q 569 227 612 262 q 480 191 526 191 q 366 227 442 191 l 313 254 q 250 281 264 277 q 220 286 237 286 q 120 211 172 286 l 59 254 q 132 342 87 306 q 221 378 176 378 q 336 341 256 378 l 389 316 q 481 286 448 286 q 581 359 532 286 l 642 315 z "},"̇":{"ha":0,"x_min":-62,"x_max":62,"o":"m 0 887 q -44 908 -26 887 q -62 961 -62 929 q -44 1014 -62 993 q 0 1034 -26 1034 q 45 1013 27 1034 q 62 961 62 992 q 44 908 62 929 q 0 887 26 887 z "},"̈":{"ha":0,"x_min":-205,"x_max":205,"o":"m -144 888 q -188 909 -171 888 q -205 961 -205 930 q -188 1013 -205 993 q -144 1033 -170 1033 q -100 1012 -117 1033 q -83 961 -83 991 q -100 909 -83 930 q -144 888 -118 888 m 144 888 q 100 909 117 888 q 83 961 83 930 q 100 1013 83 993 q 144 1033 118 1033 q 188 1012 171 1033 q 205 961 205 991 q 188 909 205 930 q 144 888 170 888 z "},"̊":{"ha":0,"x_min":-107,"x_max":107,"o":"m 0 833 q -78 871 -49 833 q -107 960 -107 909 q -78 1048 -107 1012 q 0 1084 -48 1084 q 77 1049 46 1084 q 107 960 107 1014 q 77 871 107 909 q 0 833 46 833 m 0 1040 q -49 1017 -32 1040 q -66 960 -66 994 q -50 905 -66 928 q 0 882 -33 882 q 48 905 32 882 q 65 960 65 928 q 48 1017 65 994 q 0 1040 32 1040 z "},"͏":{"ha":0,"x_min":0,"x_max":0,"o":""},"֑":{"ha":780,"x_min":111,"x_max":733,"o":"m 111 357 q 152 406 111 406 q 193 357 193 406 q 152 309 193 309 q 111 357 111 309 m 651 357 q 692 406 651 406 q 733 357 733 406 q 692 309 733 309 q 651 357 651 309 m 381 675 q 422 724 381 724 q 463 675 463 724 q 422 627 463 627 q 381 675 381 627 m 381 40 q 422 89 381 89 q 463 40 463 89 q 422 -8 463 -8 q 381 40 381 -8 m 616 516 q 657 565 616 565 q 699 516 699 565 q 657 468 699 468 q 616 516 616 468 m 616 199 q 657 248 616 248 q 699 199 699 248 q 657 151 699 151 q 616 199 616 151 m 146 516 q 186 565 146 565 q 228 516 228 565 q 186 468 228 468 q 146 516 146 468 m 146 199 q 186 248 146 248 q 228 199 228 248 q 186 151 228 151 q 146 199 146 151 m 246 634 q 287 683 246 683 q 328 634 328 683 q 287 586 328 586 q 246 634 246 586 m 516 634 q 557 683 516 683 q 598 634 598 683 q 557 586 598 586 q 516 634 516 586 m 246 81 q 287 130 246 130 q 328 81 328 130 q 287 33 328 33 q 246 81 246 33 m 516 81 q 557 130 516 130 q 598 81 598 130 q 557 33 598 33 q 516 81 516 33 z "},"֒":{"ha":780,"x_min":111,"x_max":733,"o":"m 111 357 q 152 406 111 406 q 193 357 193 406 q 152 309 193 309 q 111 357 111 309 m 651 357 q 692 406 651 406 q 733 357 733 406 q 692 309 733 309 q 651 357 651 309 m 381 675 q 422 724 381 724 q 463 675 463 724 q 422 627 463 627 q 381 675 381 627 m 381 40 q 422 89 381 89 q 463 40 463 89 q 422 -8 463 -8 q 381 40 381 -8 m 616 516 q 657 565 616 565 q 699 516 699 565 q 657 468 699 468 q 616 516 616 468 m 616 199 q 657 248 616 248 q 699 199 699 248 q 657 151 699 151 q 616 199 616 151 m 146 516 q 186 565 146 565 q 228 516 228 565 q 186 468 228 468 q 146 516 146 468 m 146 199 q 186 248 146 248 q 228 199 228 248 q 186 151 228 151 q 146 199 146 151 m 246 634 q 287 683 246 683 q 328 634 328 683 q 287 586 328 586 q 246 634 246 586 m 516 634 q 557 683 516 683 q 598 634 598 683 q 557 586 598 586 q 516 634 516 586 m 246 81 q 287 130 246 130 q 328 81 328 130 q 287 33 328 33 q 246 81 246 33 m 516 81 q 557 130 516 130 q 598 81 598 130 q 557 33 598 33 q 516 81 516 33 z "},"֓":{"ha":780,"x_min":111,"x_max":733,"o":"m 111 357 q 152 406 111 406 q 193 357 193 406 q 152 309 193 309 q 111 357 111 309 m 651 357 q 692 406 651 406 q 733 357 733 406 q 692 309 733 309 q 651 357 651 309 m 381 675 q 422 724 381 724 q 463 675 463 724 q 422 627 463 627 q 381 675 381 627 m 381 40 q 422 89 381 89 q 463 40 463 89 q 422 -8 463 -8 q 381 40 381 -8 m 616 516 q 657 565 616 565 q 699 516 699 565 q 657 468 699 468 q 616 516 616 468 m 616 199 q 657 248 616 248 q 699 199 699 248 q 657 151 699 151 q 616 199 616 151 m 146 516 q 186 565 146 565 q 228 516 228 565 q 186 468 228 468 q 146 516 146 468 m 146 199 q 186 248 146 248 q 228 199 228 248 q 186 151 228 151 q 146 199 146 151 m 246 634 q 287 683 246 683 q 328 634 328 683 q 287 586 328 586 q 246 634 246 586 m 516 634 q 557 683 516 683 q 598 634 598 683 q 557 586 598 586 q 516 634 516 586 m 246 81 q 287 130 246 130 q 328 81 328 130 q 287 33 328 33 q 246 81 246 33 m 516 81 q 557 130 516 130 q 598 81 598 130 q 557 33 598 33 q 516 81 516 33 z "},"֔":{"ha":780,"x_min":111,"x_max":733,"o":"m 111 357 q 152 406 111 406 q 193 357 193 406 q 152 309 193 309 q 111 357 111 309 m 651 357 q 692 406 651 406 q 733 357 733 406 q 692 309 733 309 q 651 357 651 309 m 381 675 q 422 724 381 724 q 463 675 463 724 q 422 627 463 627 q 381 675 381 627 m 381 40 q 422 89 381 89 q 463 40 463 89 q 422 -8 463 -8 q 381 40 381 -8 m 616 516 q 657 565 616 565 q 699 516 699 565 q 657 468 699 468 q 616 516 616 468 m 616 199 q 657 248 616 248 q 699 199 699 248 q 657 151 699 151 q 616 199 616 151 m 146 516 q 186 565 146 565 q 228 516 228 565 q 186 468 228 468 q 146 516 146 468 m 146 199 q 186 248 146 248 q 228 199 228 248 q 186 151 228 151 q 146 199 146 151 m 246 634 q 287 683 246 683 q 328 634 328 683 q 287 586 328 586 q 246 634 246 586 m 516 634 q 557 683 516 683 q 598 634 598 683 q 557 586 598 586 q 516 634 516 586 m 246 81 q 287 130 246 130 q 328 81 328 130 q 287 33 328 33 q 246 81 246 33 m 516 81 q 557 130 516 130 q 598 81 598 130 q 557 33 598 33 q 516 81 516 33 z "},"֕":{"ha":780,"x_min":111,"x_max":733,"o":"m 111 357 q 152 406 111 406 q 193 357 193 406 q 152 309 193 309 q 111 357 111 309 m 651 357 q 692 406 651 406 q 733 357 733 406 q 692 309 733 309 q 651 357 651 309 m 381 675 q 422 724 381 724 q 463 675 463 724 q 422 627 463 627 q 381 675 381 627 m 381 40 q 422 89 381 89 q 463 40 463 89 q 422 -8 463 -8 q 381 40 381 -8 m 616 516 q 657 565 616 565 q 699 516 699 565 q 657 468 699 468 q 616 516 616 468 m 616 199 q 657 248 616 248 q 699 199 699 248 q 657 151 699 151 q 616 199 616 151 m 146 516 q 186 565 146 565 q 228 516 228 565 q 186 468 228 468 q 146 516 146 468 m 146 199 q 186 248 146 248 q 228 199 228 248 q 186 151 228 151 q 146 199 146 151 m 246 634 q 287 683 246 683 q 328 634 328 683 q 287 586 328 586 q 246 634 246 586 m 516 634 q 557 683 516 683 q 598 634 598 683 q 557 586 598 586 q 516 634 516 586 m 246 81 q 287 130 246 130 q 328 81 328 130 q 287 33 328 33 q 246 81 246 33 m 516 81 q 557 130 516 130 q 598 81 598 130 q 557 33 598 33 q 516 81 516 33 z "},"֖":{"ha":780,"x_min":111,"x_max":733,"o":"m 111 357 q 152 406 111 406 q 193 357 193 406 q 152 309 193 309 q 111 357 111 309 m 651 357 q 692 406 651 406 q 733 357 733 406 q 692 309 733 309 q 651 357 651 309 m 381 675 q 422 724 381 724 q 463 675 463 724 q 422 627 463 627 q 381 675 381 627 m 381 40 q 422 89 381 89 q 463 40 463 89 q 422 -8 463 -8 q 381 40 381 -8 m 616 516 q 657 565 616 565 q 699 516 699 565 q 657 468 699 468 q 616 516 616 468 m 616 199 q 657 248 616 248 q 699 199 699 248 q 657 151 699 151 q 616 199 616 151 m 146 516 q 186 565 146 565 q 228 516 228 565 q 186 468 228 468 q 146 516 146 468 m 146 199 q 186 248 146 248 q 228 199 228 248 q 186 151 228 151 q 146 199 146 151 m 246 634 q 287 683 246 683 q 328 634 328 683 q 287 586 328 586 q 246 634 246 586 m 516 634 q 557 683 516 683 q 598 634 598 683 q 557 586 598 586 q 516 634 516 586 m 246 81 q 287 130 246 130 q 328 81 328 130 q 287 33 328 33 q 246 81 246 33 m 516 81 q 557 130 516 130 q 598 81 598 130 q 557 33 598 33 q 516 81 516 33 z "},"֗":{"ha":780,"x_min":111,"x_max":733,"o":"m 111 357 q 152 406 111 406 q 193 357 193 406 q 152 309 193 309 q 111 357 111 309 m 651 357 q 692 406 651 406 q 733 357 733 406 q 692 309 733 309 q 651 357 651 309 m 381 675 q 422 724 381 724 q 463 675 463 724 q 422 627 463 627 q 381 675 381 627 m 381 40 q 422 89 381 89 q 463 40 463 89 q 422 -8 463 -8 q 381 40 381 -8 m 616 516 q 657 565 616 565 q 699 516 699 565 q 657 468 699 468 q 616 516 616 468 m 616 199 q 657 248 616 248 q 699 199 699 248 q 657 151 699 151 q 616 199 616 151 m 146 516 q 186 565 146 565 q 228 516 228 565 q 186 468 228 468 q 146 516 146 468 m 146 199 q 186 248 146 248 q 228 199 228 248 q 186 151 228 151 q 146 199 146 151 m 246 634 q 287 683 246 683 q 328 634 328 683 q 287 586 328 586 q 246 634 246 586 m 516 634 q 557 683 516 683 q 598 634 598 683 q 557 586 598 586 q 516 634 516 586 m 246 81 q 287 130 246 130 q 328 81 328 130 q 287 33 328 33 q 246 81 246 33 m 516 81 q 557 130 516 130 q 598 81 598 130 q 557 33 598 33 q 516 81 516 33 z "},"֘":{"ha":780,"x_min":111,"x_max":733,"o":"m 111 357 q 152 406 111 406 q 193 357 193 406 q 152 309 193 309 q 111 357 111 309 m 651 357 q 692 406 651 406 q 733 357 733 406 q 692 309 733 309 q 651 357 651 309 m 381 675 q 422 724 381 724 q 463 675 463 724 q 422 627 463 627 q 381 675 381 627 m 381 40 q 422 89 381 89 q 463 40 463 89 q 422 -8 463 -8 q 381 40 381 -8 m 616 516 q 657 565 616 565 q 699 516 699 565 q 657 468 699 468 q 616 516 616 468 m 616 199 q 657 248 616 248 q 699 199 699 248 q 657 151 699 151 q 616 199 616 151 m 146 516 q 186 565 146 565 q 228 516 228 565 q 186 468 228 468 q 146 516 146 468 m 146 199 q 186 248 146 248 q 228 199 228 248 q 186 151 228 151 q 146 199 146 151 m 246 634 q 287 683 246 683 q 328 634 328 683 q 287 586 328 586 q 246 634 246 586 m 516 634 q 557 683 516 683 q 598 634 598 683 q 557 586 598 586 q 516 634 516 586 m 246 81 q 287 130 246 130 q 328 81 328 130 q 287 33 328 33 q 246 81 246 33 m 516 81 q 557 130 516 130 q 598 81 598 130 q 557 33 598 33 q 516 81 516 33 z "},"֙":{"ha":780,"x_min":111,"x_max":733,"o":"m 111 357 q 152 406 111 406 q 193 357 193 406 q 152 309 193 309 q 111 357 111 309 m 651 357 q 692 406 651 406 q 733 357 733 406 q 692 309 733 309 q 651 357 651 309 m 381 675 q 422 724 381 724 q 463 675 463 724 q 422 627 463 627 q 381 675 381 627 m 381 40 q 422 89 381 89 q 463 40 463 89 q 422 -8 463 -8 q 381 40 381 -8 m 616 516 q 657 565 616 565 q 699 516 699 565 q 657 468 699 468 q 616 516 616 468 m 616 199 q 657 248 616 248 q 699 199 699 248 q 657 151 699 151 q 616 199 616 151 m 146 516 q 186 565 146 565 q 228 516 228 565 q 186 468 228 468 q 146 516 146 468 m 146 199 q 186 248 146 248 q 228 199 228 248 q 186 151 228 151 q 146 199 146 151 m 246 634 q 287 683 246 683 q 328 634 328 683 q 287 586 328 586 q 246 634 246 586 m 516 634 q 557 683 516 683 q 598 634 598 683 q 557 586 598 586 q 516 634 516 586 m 246 81 q 287 130 246 130 q 328 81 328 130 q 287 33 328 33 q 246 81 246 33 m 516 81 q 557 130 516 130 q 598 81 598 130 q 557 33 598 33 q 516 81 516 33 z "},"֚":{"ha":780,"x_min":111,"x_max":733,"o":"m 111 357 q 152 406 111 406 q 193 357 193 406 q 152 309 193 309 q 111 357 111 309 m 651 357 q 692 406 651 406 q 733 357 733 406 q 692 309 733 309 q 651 357 651 309 m 381 675 q 422 724 381 724 q 463 675 463 724 q 422 627 463 627 q 381 675 381 627 m 381 40 q 422 89 381 89 q 463 40 463 89 q 422 -8 463 -8 q 381 40 381 -8 m 616 516 q 657 565 616 565 q 699 516 699 565 q 657 468 699 468 q 616 516 616 468 m 616 199 q 657 248 616 248 q 699 199 699 248 q 657 151 699 151 q 616 199 616 151 m 146 516 q 186 565 146 565 q 228 516 228 565 q 186 468 228 468 q 146 516 146 468 m 146 199 q 186 248 146 248 q 228 199 228 248 q 186 151 228 151 q 146 199 146 151 m 246 634 q 287 683 246 683 q 328 634 328 683 q 287 586 328 586 q 246 634 246 586 m 516 634 q 557 683 516 683 q 598 634 598 683 q 557 586 598 586 q 516 634 516 586 m 246 81 q 287 130 246 130 q 328 81 328 130 q 287 33 328 33 q 246 81 246 33 m 516 81 q 557 130 516 130 q 598 81 598 130 q 557 33 598 33 q 516 81 516 33 z "},"֛":{"ha":780,"x_min":111,"x_max":733,"o":"m 111 357 q 152 406 111 406 q 193 357 193 406 q 152 309 193 309 q 111 357 111 309 m 651 357 q 692 406 651 406 q 733 357 733 406 q 692 309 733 309 q 651 357 651 309 m 381 675 q 422 724 381 724 q 463 675 463 724 q 422 627 463 627 q 381 675 381 627 m 381 40 q 422 89 381 89 q 463 40 463 89 q 422 -8 463 -8 q 381 40 381 -8 m 616 516 q 657 565 616 565 q 699 516 699 565 q 657 468 699 468 q 616 516 616 468 m 616 199 q 657 248 616 248 q 699 199 699 248 q 657 151 699 151 q 616 199 616 151 m 146 516 q 186 565 146 565 q 228 516 228 565 q 186 468 228 468 q 146 516 146 468 m 146 199 q 186 248 146 248 q 228 199 228 248 q 186 151 228 151 q 146 199 146 151 m 246 634 q 287 683 246 683 q 328 634 328 683 q 287 586 328 586 q 246 634 246 586 m 516 634 q 557 683 516 683 q 598 634 598 683 q 557 586 598 586 q 516 634 516 586 m 246 81 q 287 130 246 130 q 328 81 328 130 q 287 33 328 33 q 246 81 246 33 m 516 81 q 557 130 516 130 q 598 81 598 130 q 557 33 598 33 q 516 81 516 33 z "},"֜":{"ha":780,"x_min":111,"x_max":733,"o":"m 111 357 q 152 406 111 406 q 193 357 193 406 q 152 309 193 309 q 111 357 111 309 m 651 357 q 692 406 651 406 q 733 357 733 406 q 692 309 733 309 q 651 357 651 309 m 381 675 q 422 724 381 724 q 463 675 463 724 q 422 627 463 627 q 381 675 381 627 m 381 40 q 422 89 381 89 q 463 40 463 89 q 422 -8 463 -8 q 381 40 381 -8 m 616 516 q 657 565 616 565 q 699 516 699 565 q 657 468 699 468 q 616 516 616 468 m 616 199 q 657 248 616 248 q 699 199 699 248 q 657 151 699 151 q 616 199 616 151 m 146 516 q 186 565 146 565 q 228 516 228 565 q 186 468 228 468 q 146 516 146 468 m 146 199 q 186 248 146 248 q 228 199 228 248 q 186 151 228 151 q 146 199 146 151 m 246 634 q 287 683 246 683 q 328 634 328 683 q 287 586 328 586 q 246 634 246 586 m 516 634 q 557 683 516 683 q 598 634 598 683 q 557 586 598 586 q 516 634 516 586 m 246 81 q 287 130 246 130 q 328 81 328 130 q 287 33 328 33 q 246 81 246 33 m 516 81 q 557 130 516 130 q 598 81 598 130 q 557 33 598 33 q 516 81 516 33 z "},"֝":{"ha":780,"x_min":111,"x_max":733,"o":"m 111 357 q 152 406 111 406 q 193 357 193 406 q 152 309 193 309 q 111 357 111 309 m 651 357 q 692 406 651 406 q 733 357 733 406 q 692 309 733 309 q 651 357 651 309 m 381 675 q 422 724 381 724 q 463 675 463 724 q 422 627 463 627 q 381 675 381 627 m 381 40 q 422 89 381 89 q 463 40 463 89 q 422 -8 463 -8 q 381 40 381 -8 m 616 516 q 657 565 616 565 q 699 516 699 565 q 657 468 699 468 q 616 516 616 468 m 616 199 q 657 248 616 248 q 699 199 699 248 q 657 151 699 151 q 616 199 616 151 m 146 516 q 186 565 146 565 q 228 516 228 565 q 186 468 228 468 q 146 516 146 468 m 146 199 q 186 248 146 248 q 228 199 228 248 q 186 151 228 151 q 146 199 146 151 m 246 634 q 287 683 246 683 q 328 634 328 683 q 287 586 328 586 q 246 634 246 586 m 516 634 q 557 683 516 683 q 598 634 598 683 q 557 586 598 586 q 516 634 516 586 m 246 81 q 287 130 246 130 q 328 81 328 130 q 287 33 328 33 q 246 81 246 33 m 516 81 q 557 130 516 130 q 598 81 598 130 q 557 33 598 33 q 516 81 516 33 z "},"֞":{"ha":780,"x_min":111,"x_max":733,"o":"m 111 357 q 152 406 111 406 q 193 357 193 406 q 152 309 193 309 q 111 357 111 309 m 651 357 q 692 406 651 406 q 733 357 733 406 q 692 309 733 309 q 651 357 651 309 m 381 675 q 422 724 381 724 q 463 675 463 724 q 422 627 463 627 q 381 675 381 627 m 381 40 q 422 89 381 89 q 463 40 463 89 q 422 -8 463 -8 q 381 40 381 -8 m 616 516 q 657 565 616 565 q 699 516 699 565 q 657 468 699 468 q 616 516 616 468 m 616 199 q 657 248 616 248 q 699 199 699 248 q 657 151 699 151 q 616 199 616 151 m 146 516 q 186 565 146 565 q 228 516 228 565 q 186 468 228 468 q 146 516 146 468 m 146 199 q 186 248 146 248 q 228 199 228 248 q 186 151 228 151 q 146 199 146 151 m 246 634 q 287 683 246 683 q 328 634 328 683 q 287 586 328 586 q 246 634 246 586 m 516 634 q 557 683 516 683 q 598 634 598 683 q 557 586 598 586 q 516 634 516 586 m 246 81 q 287 130 246 130 q 328 81 328 130 q 287 33 328 33 q 246 81 246 33 m 516 81 q 557 130 516 130 q 598 81 598 130 q 557 33 598 33 q 516 81 516 33 z "},"֟":{"ha":780,"x_min":111,"x_max":733,"o":"m 111 357 q 152 406 111 406 q 193 357 193 406 q 152 309 193 309 q 111 357 111 309 m 651 357 q 692 406 651 406 q 733 357 733 406 q 692 309 733 309 q 651 357 651 309 m 381 675 q 422 724 381 724 q 463 675 463 724 q 422 627 463 627 q 381 675 381 627 m 381 40 q 422 89 381 89 q 463 40 463 89 q 422 -8 463 -8 q 381 40 381 -8 m 616 516 q 657 565 616 565 q 699 516 699 565 q 657 468 699 468 q 616 516 616 468 m 616 199 q 657 248 616 248 q 699 199 699 248 q 657 151 699 151 q 616 199 616 151 m 146 516 q 186 565 146 565 q 228 516 228 565 q 186 468 228 468 q 146 516 146 468 m 146 199 q 186 248 146 248 q 228 199 228 248 q 186 151 228 151 q 146 199 146 151 m 246 634 q 287 683 246 683 q 328 634 328 683 q 287 586 328 586 q 246 634 246 586 m 516 634 q 557 683 516 683 q 598 634 598 683 q 557 586 598 586 q 516 634 516 586 m 246 81 q 287 130 246 130 q 328 81 328 130 q 287 33 328 33 q 246 81 246 33 m 516 81 q 557 130 516 130 q 598 81 598 130 q 557 33 598 33 q 516 81 516 33 z "},"֠":{"ha":780,"x_min":111,"x_max":733,"o":"m 111 357 q 152 406 111 406 q 193 357 193 406 q 152 309 193 309 q 111 357 111 309 m 651 357 q 692 406 651 406 q 733 357 733 406 q 692 309 733 309 q 651 357 651 309 m 381 675 q 422 724 381 724 q 463 675 463 724 q 422 627 463 627 q 381 675 381 627 m 381 40 q 422 89 381 89 q 463 40 463 89 q 422 -8 463 -8 q 381 40 381 -8 m 616 516 q 657 565 616 565 q 699 516 699 565 q 657 468 699 468 q 616 516 616 468 m 616 199 q 657 248 616 248 q 699 199 699 248 q 657 151 699 151 q 616 199 616 151 m 146 516 q 186 565 146 565 q 228 516 228 565 q 186 468 228 468 q 146 516 146 468 m 146 199 q 186 248 146 248 q 228 199 228 248 q 186 151 228 151 q 146 199 146 151 m 246 634 q 287 683 246 683 q 328 634 328 683 q 287 586 328 586 q 246 634 246 586 m 516 634 q 557 683 516 683 q 598 634 598 683 q 557 586 598 586 q 516 634 516 586 m 246 81 q 287 130 246 130 q 328 81 328 130 q 287 33 328 33 q 246 81 246 33 m 516 81 q 557 130 516 130 q 598 81 598 130 q 557 33 598 33 q 516 81 516 33 z "},"֡":{"ha":780,"x_min":111,"x_max":733,"o":"m 111 357 q 152 406 111 406 q 193 357 193 406 q 152 309 193 309 q 111 357 111 309 m 651 357 q 692 406 651 406 q 733 357 733 406 q 692 309 733 309 q 651 357 651 309 m 381 675 q 422 724 381 724 q 463 675 463 724 q 422 627 463 627 q 381 675 381 627 m 381 40 q 422 89 381 89 q 463 40 463 89 q 422 -8 463 -8 q 381 40 381 -8 m 616 516 q 657 565 616 565 q 699 516 699 565 q 657 468 699 468 q 616 516 616 468 m 616 199 q 657 248 616 248 q 699 199 699 248 q 657 151 699 151 q 616 199 616 151 m 146 516 q 186 565 146 565 q 228 516 228 565 q 186 468 228 468 q 146 516 146 468 m 146 199 q 186 248 146 248 q 228 199 228 248 q 186 151 228 151 q 146 199 146 151 m 246 634 q 287 683 246 683 q 328 634 328 683 q 287 586 328 586 q 246 634 246 586 m 516 634 q 557 683 516 683 q 598 634 598 683 q 557 586 598 586 q 516 634 516 586 m 246 81 q 287 130 246 130 q 328 81 328 130 q 287 33 328 33 q 246 81 246 33 m 516 81 q 557 130 516 130 q 598 81 598 130 q 557 33 598 33 q 516 81 516 33 z "},"֢":{"ha":780,"x_min":111,"x_max":733,"o":"m 111 357 q 152 406 111 406 q 193 357 193 406 q 152 309 193 309 q 111 357 111 309 m 651 357 q 692 406 651 406 q 733 357 733 406 q 692 309 733 309 q 651 357 651 309 m 381 675 q 422 724 381 724 q 463 675 463 724 q 422 627 463 627 q 381 675 381 627 m 381 40 q 422 89 381 89 q 463 40 463 89 q 422 -8 463 -8 q 381 40 381 -8 m 616 516 q 657 565 616 565 q 699 516 699 565 q 657 468 699 468 q 616 516 616 468 m 616 199 q 657 248 616 248 q 699 199 699 248 q 657 151 699 151 q 616 199 616 151 m 146 516 q 186 565 146 565 q 228 516 228 565 q 186 468 228 468 q 146 516 146 468 m 146 199 q 186 248 146 248 q 228 199 228 248 q 186 151 228 151 q 146 199 146 151 m 246 634 q 287 683 246 683 q 328 634 328 683 q 287 586 328 586 q 246 634 246 586 m 516 634 q 557 683 516 683 q 598 634 598 683 q 557 586 598 586 q 516 634 516 586 m 246 81 q 287 130 246 130 q 328 81 328 130 q 287 33 328 33 q 246 81 246 33 m 516 81 q 557 130 516 130 q 598 81 598 130 q 557 33 598 33 q 516 81 516 33 z "},"֣":{"ha":780,"x_min":111,"x_max":733,"o":"m 111 357 q 152 406 111 406 q 193 357 193 406 q 152 309 193 309 q 111 357 111 309 m 651 357 q 692 406 651 406 q 733 357 733 406 q 692 309 733 309 q 651 357 651 309 m 381 675 q 422 724 381 724 q 463 675 463 724 q 422 627 463 627 q 381 675 381 627 m 381 40 q 422 89 381 89 q 463 40 463 89 q 422 -8 463 -8 q 381 40 381 -8 m 616 516 q 657 565 616 565 q 699 516 699 565 q 657 468 699 468 q 616 516 616 468 m 616 199 q 657 248 616 248 q 699 199 699 248 q 657 151 699 151 q 616 199 616 151 m 146 516 q 186 565 146 565 q 228 516 228 565 q 186 468 228 468 q 146 516 146 468 m 146 199 q 186 248 146 248 q 228 199 228 248 q 186 151 228 151 q 146 199 146 151 m 246 634 q 287 683 246 683 q 328 634 328 683 q 287 586 328 586 q 246 634 246 586 m 516 634 q 557 683 516 683 q 598 634 598 683 q 557 586 598 586 q 516 634 516 586 m 246 81 q 287 130 246 130 q 328 81 328 130 q 287 33 328 33 q 246 81 246 33 m 516 81 q 557 130 516 130 q 598 81 598 130 q 557 33 598 33 q 516 81 516 33 z "},"֤":{"ha":780,"x_min":111,"x_max":733,"o":"m 111 357 q 152 406 111 406 q 193 357 193 406 q 152 309 193 309 q 111 357 111 309 m 651 357 q 692 406 651 406 q 733 357 733 406 q 692 309 733 309 q 651 357 651 309 m 381 675 q 422 724 381 724 q 463 675 463 724 q 422 627 463 627 q 381 675 381 627 m 381 40 q 422 89 381 89 q 463 40 463 89 q 422 -8 463 -8 q 381 40 381 -8 m 616 516 q 657 565 616 565 q 699 516 699 565 q 657 468 699 468 q 616 516 616 468 m 616 199 q 657 248 616 248 q 699 199 699 248 q 657 151 699 151 q 616 199 616 151 m 146 516 q 186 565 146 565 q 228 516 228 565 q 186 468 228 468 q 146 516 146 468 m 146 199 q 186 248 146 248 q 228 199 228 248 q 186 151 228 151 q 146 199 146 151 m 246 634 q 287 683 246 683 q 328 634 328 683 q 287 586 328 586 q 246 634 246 586 m 516 634 q 557 683 516 683 q 598 634 598 683 q 557 586 598 586 q 516 634 516 586 m 246 81 q 287 130 246 130 q 328 81 328 130 q 287 33 328 33 q 246 81 246 33 m 516 81 q 557 130 516 130 q 598 81 598 130 q 557 33 598 33 q 516 81 516 33 z "},"֥":{"ha":780,"x_min":111,"x_max":733,"o":"m 111 357 q 152 406 111 406 q 193 357 193 406 q 152 309 193 309 q 111 357 111 309 m 651 357 q 692 406 651 406 q 733 357 733 406 q 692 309 733 309 q 651 357 651 309 m 381 675 q 422 724 381 724 q 463 675 463 724 q 422 627 463 627 q 381 675 381 627 m 381 40 q 422 89 381 89 q 463 40 463 89 q 422 -8 463 -8 q 381 40 381 -8 m 616 516 q 657 565 616 565 q 699 516 699 565 q 657 468 699 468 q 616 516 616 468 m 616 199 q 657 248 616 248 q 699 199 699 248 q 657 151 699 151 q 616 199 616 151 m 146 516 q 186 565 146 565 q 228 516 228 565 q 186 468 228 468 q 146 516 146 468 m 146 199 q 186 248 146 248 q 228 199 228 248 q 186 151 228 151 q 146 199 146 151 m 246 634 q 287 683 246 683 q 328 634 328 683 q 287 586 328 586 q 246 634 246 586 m 516 634 q 557 683 516 683 q 598 634 598 683 q 557 586 598 586 q 516 634 516 586 m 246 81 q 287 130 246 130 q 328 81 328 130 q 287 33 328 33 q 246 81 246 33 m 516 81 q 557 130 516 130 q 598 81 598 130 q 557 33 598 33 q 516 81 516 33 z "},"֦":{"ha":780,"x_min":111,"x_max":733,"o":"m 111 357 q 152 406 111 406 q 193 357 193 406 q 152 309 193 309 q 111 357 111 309 m 651 357 q 692 406 651 406 q 733 357 733 406 q 692 309 733 309 q 651 357 651 309 m 381 675 q 422 724 381 724 q 463 675 463 724 q 422 627 463 627 q 381 675 381 627 m 381 40 q 422 89 381 89 q 463 40 463 89 q 422 -8 463 -8 q 381 40 381 -8 m 616 516 q 657 565 616 565 q 699 516 699 565 q 657 468 699 468 q 616 516 616 468 m 616 199 q 657 248 616 248 q 699 199 699 248 q 657 151 699 151 q 616 199 616 151 m 146 516 q 186 565 146 565 q 228 516 228 565 q 186 468 228 468 q 146 516 146 468 m 146 199 q 186 248 146 248 q 228 199 228 248 q 186 151 228 151 q 146 199 146 151 m 246 634 q 287 683 246 683 q 328 634 328 683 q 287 586 328 586 q 246 634 246 586 m 516 634 q 557 683 516 683 q 598 634 598 683 q 557 586 598 586 q 516 634 516 586 m 246 81 q 287 130 246 130 q 328 81 328 130 q 287 33 328 33 q 246 81 246 33 m 516 81 q 557 130 516 130 q 598 81 598 130 q 557 33 598 33 q 516 81 516 33 z "},"֧":{"ha":780,"x_min":111,"x_max":733,"o":"m 111 357 q 152 406 111 406 q 193 357 193 406 q 152 309 193 309 q 111 357 111 309 m 651 357 q 692 406 651 406 q 733 357 733 406 q 692 309 733 309 q 651 357 651 309 m 381 675 q 422 724 381 724 q 463 675 463 724 q 422 627 463 627 q 381 675 381 627 m 381 40 q 422 89 381 89 q 463 40 463 89 q 422 -8 463 -8 q 381 40 381 -8 m 616 516 q 657 565 616 565 q 699 516 699 565 q 657 468 699 468 q 616 516 616 468 m 616 199 q 657 248 616 248 q 699 199 699 248 q 657 151 699 151 q 616 199 616 151 m 146 516 q 186 565 146 565 q 228 516 228 565 q 186 468 228 468 q 146 516 146 468 m 146 199 q 186 248 146 248 q 228 199 228 248 q 186 151 228 151 q 146 199 146 151 m 246 634 q 287 683 246 683 q 328 634 328 683 q 287 586 328 586 q 246 634 246 586 m 516 634 q 557 683 516 683 q 598 634 598 683 q 557 586 598 586 q 516 634 516 586 m 246 81 q 287 130 246 130 q 328 81 328 130 q 287 33 328 33 q 246 81 246 33 m 516 81 q 557 130 516 130 q 598 81 598 130 q 557 33 598 33 q 516 81 516 33 z "},"֨":{"ha":780,"x_min":111,"x_max":733,"o":"m 111 357 q 152 406 111 406 q 193 357 193 406 q 152 309 193 309 q 111 357 111 309 m 651 357 q 692 406 651 406 q 733 357 733 406 q 692 309 733 309 q 651 357 651 309 m 381 675 q 422 724 381 724 q 463 675 463 724 q 422 627 463 627 q 381 675 381 627 m 381 40 q 422 89 381 89 q 463 40 463 89 q 422 -8 463 -8 q 381 40 381 -8 m 616 516 q 657 565 616 565 q 699 516 699 565 q 657 468 699 468 q 616 516 616 468 m 616 199 q 657 248 616 248 q 699 199 699 248 q 657 151 699 151 q 616 199 616 151 m 146 516 q 186 565 146 565 q 228 516 228 565 q 186 468 228 468 q 146 516 146 468 m 146 199 q 186 248 146 248 q 228 199 228 248 q 186 151 228 151 q 146 199 146 151 m 246 634 q 287 683 246 683 q 328 634 328 683 q 287 586 328 586 q 246 634 246 586 m 516 634 q 557 683 516 683 q 598 634 598 683 q 557 586 598 586 q 516 634 516 586 m 246 81 q 287 130 246 130 q 328 81 328 130 q 287 33 328 33 q 246 81 246 33 m 516 81 q 557 130 516 130 q 598 81 598 130 q 557 33 598 33 q 516 81 516 33 z "},"֩":{"ha":780,"x_min":111,"x_max":733,"o":"m 111 357 q 152 406 111 406 q 193 357 193 406 q 152 309 193 309 q 111 357 111 309 m 651 357 q 692 406 651 406 q 733 357 733 406 q 692 309 733 309 q 651 357 651 309 m 381 675 q 422 724 381 724 q 463 675 463 724 q 422 627 463 627 q 381 675 381 627 m 381 40 q 422 89 381 89 q 463 40 463 89 q 422 -8 463 -8 q 381 40 381 -8 m 616 516 q 657 565 616 565 q 699 516 699 565 q 657 468 699 468 q 616 516 616 468 m 616 199 q 657 248 616 248 q 699 199 699 248 q 657 151 699 151 q 616 199 616 151 m 146 516 q 186 565 146 565 q 228 516 228 565 q 186 468 228 468 q 146 516 146 468 m 146 199 q 186 248 146 248 q 228 199 228 248 q 186 151 228 151 q 146 199 146 151 m 246 634 q 287 683 246 683 q 328 634 328 683 q 287 586 328 586 q 246 634 246 586 m 516 634 q 557 683 516 683 q 598 634 598 683 q 557 586 598 586 q 516 634 516 586 m 246 81 q 287 130 246 130 q 328 81 328 130 q 287 33 328 33 q 246 81 246 33 m 516 81 q 557 130 516 130 q 598 81 598 130 q 557 33 598 33 q 516 81 516 33 z "},"֪":{"ha":780,"x_min":111,"x_max":733,"o":"m 111 357 q 152 406 111 406 q 193 357 193 406 q 152 309 193 309 q 111 357 111 309 m 651 357 q 692 406 651 406 q 733 357 733 406 q 692 309 733 309 q 651 357 651 309 m 381 675 q 422 724 381 724 q 463 675 463 724 q 422 627 463 627 q 381 675 381 627 m 381 40 q 422 89 381 89 q 463 40 463 89 q 422 -8 463 -8 q 381 40 381 -8 m 616 516 q 657 565 616 565 q 699 516 699 565 q 657 468 699 468 q 616 516 616 468 m 616 199 q 657 248 616 248 q 699 199 699 248 q 657 151 699 151 q 616 199 616 151 m 146 516 q 186 565 146 565 q 228 516 228 565 q 186 468 228 468 q 146 516 146 468 m 146 199 q 186 248 146 248 q 228 199 228 248 q 186 151 228 151 q 146 199 146 151 m 246 634 q 287 683 246 683 q 328 634 328 683 q 287 586 328 586 q 246 634 246 586 m 516 634 q 557 683 516 683 q 598 634 598 683 q 557 586 598 586 q 516 634 516 586 m 246 81 q 287 130 246 130 q 328 81 328 130 q 287 33 328 33 q 246 81 246 33 m 516 81 q 557 130 516 130 q 598 81 598 130 q 557 33 598 33 q 516 81 516 33 z "},"֫":{"ha":780,"x_min":111,"x_max":733,"o":"m 111 357 q 152 406 111 406 q 193 357 193 406 q 152 309 193 309 q 111 357 111 309 m 651 357 q 692 406 651 406 q 733 357 733 406 q 692 309 733 309 q 651 357 651 309 m 381 675 q 422 724 381 724 q 463 675 463 724 q 422 627 463 627 q 381 675 381 627 m 381 40 q 422 89 381 89 q 463 40 463 89 q 422 -8 463 -8 q 381 40 381 -8 m 616 516 q 657 565 616 565 q 699 516 699 565 q 657 468 699 468 q 616 516 616 468 m 616 199 q 657 248 616 248 q 699 199 699 248 q 657 151 699 151 q 616 199 616 151 m 146 516 q 186 565 146 565 q 228 516 228 565 q 186 468 228 468 q 146 516 146 468 m 146 199 q 186 248 146 248 q 228 199 228 248 q 186 151 228 151 q 146 199 146 151 m 246 634 q 287 683 246 683 q 328 634 328 683 q 287 586 328 586 q 246 634 246 586 m 516 634 q 557 683 516 683 q 598 634 598 683 q 557 586 598 586 q 516 634 516 586 m 246 81 q 287 130 246 130 q 328 81 328 130 q 287 33 328 33 q 246 81 246 33 m 516 81 q 557 130 516 130 q 598 81 598 130 q 557 33 598 33 q 516 81 516 33 z "},"֬":{"ha":780,"x_min":111,"x_max":733,"o":"m 111 357 q 152 406 111 406 q 193 357 193 406 q 152 309 193 309 q 111 357 111 309 m 651 357 q 692 406 651 406 q 733 357 733 406 q 692 309 733 309 q 651 357 651 309 m 381 675 q 422 724 381 724 q 463 675 463 724 q 422 627 463 627 q 381 675 381 627 m 381 40 q 422 89 381 89 q 463 40 463 89 q 422 -8 463 -8 q 381 40 381 -8 m 616 516 q 657 565 616 565 q 699 516 699 565 q 657 468 699 468 q 616 516 616 468 m 616 199 q 657 248 616 248 q 699 199 699 248 q 657 151 699 151 q 616 199 616 151 m 146 516 q 186 565 146 565 q 228 516 228 565 q 186 468 228 468 q 146 516 146 468 m 146 199 q 186 248 146 248 q 228 199 228 248 q 186 151 228 151 q 146 199 146 151 m 246 634 q 287 683 246 683 q 328 634 328 683 q 287 586 328 586 q 246 634 246 586 m 516 634 q 557 683 516 683 q 598 634 598 683 q 557 586 598 586 q 516 634 516 586 m 246 81 q 287 130 246 130 q 328 81 328 130 q 287 33 328 33 q 246 81 246 33 m 516 81 q 557 130 516 130 q 598 81 598 130 q 557 33 598 33 q 516 81 516 33 z "},"֭":{"ha":780,"x_min":111,"x_max":733,"o":"m 111 357 q 152 406 111 406 q 193 357 193 406 q 152 309 193 309 q 111 357 111 309 m 651 357 q 692 406 651 406 q 733 357 733 406 q 692 309 733 309 q 651 357 651 309 m 381 675 q 422 724 381 724 q 463 675 463 724 q 422 627 463 627 q 381 675 381 627 m 381 40 q 422 89 381 89 q 463 40 463 89 q 422 -8 463 -8 q 381 40 381 -8 m 616 516 q 657 565 616 565 q 699 516 699 565 q 657 468 699 468 q 616 516 616 468 m 616 199 q 657 248 616 248 q 699 199 699 248 q 657 151 699 151 q 616 199 616 151 m 146 516 q 186 565 146 565 q 228 516 228 565 q 186 468 228 468 q 146 516 146 468 m 146 199 q 186 248 146 248 q 228 199 228 248 q 186 151 228 151 q 146 199 146 151 m 246 634 q 287 683 246 683 q 328 634 328 683 q 287 586 328 586 q 246 634 246 586 m 516 634 q 557 683 516 683 q 598 634 598 683 q 557 586 598 586 q 516 634 516 586 m 246 81 q 287 130 246 130 q 328 81 328 130 q 287 33 328 33 q 246 81 246 33 m 516 81 q 557 130 516 130 q 598 81 598 130 q 557 33 598 33 q 516 81 516 33 z "},"֮":{"ha":780,"x_min":111,"x_max":733,"o":"m 111 357 q 152 406 111 406 q 193 357 193 406 q 152 309 193 309 q 111 357 111 309 m 651 357 q 692 406 651 406 q 733 357 733 406 q 692 309 733 309 q 651 357 651 309 m 381 675 q 422 724 381 724 q 463 675 463 724 q 422 627 463 627 q 381 675 381 627 m 381 40 q 422 89 381 89 q 463 40 463 89 q 422 -8 463 -8 q 381 40 381 -8 m 616 516 q 657 565 616 565 q 699 516 699 565 q 657 468 699 468 q 616 516 616 468 m 616 199 q 657 248 616 248 q 699 199 699 248 q 657 151 699 151 q 616 199 616 151 m 146 516 q 186 565 146 565 q 228 516 228 565 q 186 468 228 468 q 146 516 146 468 m 146 199 q 186 248 146 248 q 228 199 228 248 q 186 151 228 151 q 146 199 146 151 m 246 634 q 287 683 246 683 q 328 634 328 683 q 287 586 328 586 q 246 634 246 586 m 516 634 q 557 683 516 683 q 598 634 598 683 q 557 586 598 586 q 516 634 516 586 m 246 81 q 287 130 246 130 q 328 81 328 130 q 287 33 328 33 q 246 81 246 33 m 516 81 q 557 130 516 130 q 598 81 598 130 q 557 33 598 33 q 516 81 516 33 z "},"֯":{"ha":780,"x_min":111,"x_max":733,"o":"m 111 357 q 152 406 111 406 q 193 357 193 406 q 152 309 193 309 q 111 357 111 309 m 651 357 q 692 406 651 406 q 733 357 733 406 q 692 309 733 309 q 651 357 651 309 m 381 675 q 422 724 381 724 q 463 675 463 724 q 422 627 463 627 q 381 675 381 627 m 381 40 q 422 89 381 89 q 463 40 463 89 q 422 -8 463 -8 q 381 40 381 -8 m 616 516 q 657 565 616 565 q 699 516 699 565 q 657 468 699 468 q 616 516 616 468 m 616 199 q 657 248 616 248 q 699 199 699 248 q 657 151 699 151 q 616 199 616 151 m 146 516 q 186 565 146 565 q 228 516 228 565 q 186 468 228 468 q 146 516 146 468 m 146 199 q 186 248 146 248 q 228 199 228 248 q 186 151 228 151 q 146 199 146 151 m 246 634 q 287 683 246 683 q 328 634 328 683 q 287 586 328 586 q 246 634 246 586 m 516 634 q 557 683 516 683 q 598 634 598 683 q 557 586 598 586 q 516 634 516 586 m 246 81 q 287 130 246 130 q 328 81 328 130 q 287 33 328 33 q 246 81 246 33 m 516 81 q 557 130 516 130 q 598 81 598 130 q 557 33 598 33 q 516 81 516 33 z "},"ְ":{"ha":0,"x_min":-47,"x_max":47,"o":"m 0 -398 q -34 -382 -21 -398 q -47 -342 -47 -366 q -34 -302 -47 -318 q 0 -287 -20 -287 q 34 -303 21 -287 q 47 -342 47 -319 q 34 -382 47 -367 q 0 -398 20 -398 m 0 -226 q -34 -210 -21 -226 q -47 -170 -47 -194 q -34 -130 -47 -146 q 0 -115 -20 -115 q 34 -131 21 -115 q 47 -170 47 -146 q 34 -210 47 -195 q 0 -226 20 -226 z "},"ֱ":{"ha":0,"x_min":-206,"x_max":206,"o":"m 159 -398 q 124 -382 138 -398 q 111 -342 111 -366 q 125 -302 111 -318 q 159 -287 139 -287 q 193 -303 180 -287 q 206 -342 206 -319 q 193 -382 206 -367 q 159 -398 179 -398 m 159 -226 q 124 -210 138 -226 q 111 -170 111 -194 q 125 -130 111 -146 q 159 -115 139 -115 q 193 -131 180 -115 q 206 -170 206 -146 q 193 -210 206 -195 q 159 -226 179 -226 m 0 -115 q 35 -131 21 -115 q 49 -170 49 -146 q 35 -210 49 -195 q 0 -226 21 -226 q -34 -210 -21 -226 q -46 -170 -46 -194 q -33 -130 -46 -146 q 0 -115 -20 -115 m -79 -287 q -44 -303 -58 -287 q -31 -342 -31 -319 q -45 -382 -31 -367 q -79 -398 -58 -398 q -113 -382 -100 -398 q -126 -342 -126 -366 q -113 -302 -126 -318 q -79 -287 -99 -287 m -159 -115 q -124 -131 -138 -115 q -111 -170 -111 -146 q -125 -210 -111 -195 q -159 -226 -139 -226 q -193 -210 -180 -226 q -206 -170 -206 -194 q -193 -130 -206 -146 q -159 -115 -179 -115 z "},"ֲ":{"ha":0,"x_min":-181,"x_max":181,"o":"m 21 -195 l -181 -195 l -181 -132 l 21 -132 l 21 -195 m 134 -398 q 100 -382 113 -398 q 87 -342 87 -366 q 100 -302 87 -318 q 134 -287 113 -287 q 168 -303 155 -287 q 181 -342 181 -319 q 168 -382 181 -367 q 134 -398 154 -398 m 134 -226 q 100 -210 113 -226 q 87 -170 87 -194 q 100 -130 87 -146 q 134 -115 113 -115 q 168 -131 155 -115 q 181 -170 181 -146 q 168 -210 181 -195 q 134 -226 154 -226 z "},"ֳ":{"ha":0,"x_min":-180,"x_max":180,"o":"m -95 -195 l -180 -195 l -180 -132 l 20 -132 l 20 -195 l -66 -195 l -66 -218 l -66 -220 q -57 -278 -66 -255 l -33 -339 q -66 -396 -48 -378 q -95 -396 -83 -400 q -127 -339 -115 -379 l -103 -278 q -95 -221 -95 -260 l -95 -218 q -95 -195 -95 -218 m 133 -398 q 100 -382 113 -398 q 87 -342 87 -366 q 100 -302 87 -318 q 133 -287 113 -287 q 167 -303 154 -287 q 180 -342 180 -319 q 167 -382 180 -367 q 133 -398 153 -398 m 133 -226 q 100 -210 113 -226 q 87 -170 87 -194 q 100 -130 87 -146 q 133 -115 113 -115 q 167 -131 154 -115 q 180 -170 180 -146 q 167 -210 180 -195 q 133 -226 153 -226 z "},"ִ":{"ha":0,"x_min":-47,"x_max":47,"o":"m 0 -226 q -34 -210 -21 -226 q -47 -170 -47 -194 q -34 -130 -47 -146 q 0 -115 -20 -115 q 34 -131 21 -115 q 47 -170 47 -146 q 34 -210 47 -195 q 0 -226 20 -226 z "},"ֵ":{"ha":0,"x_min":-121,"x_max":121,"o":"m 121 -170 q 107 -210 121 -195 q 73 -226 94 -226 q 39 -210 52 -226 q 26 -170 26 -194 q 39 -130 26 -146 q 73 -115 53 -115 q 107 -131 94 -115 q 121 -170 121 -146 m -26 -170 q -39 -210 -26 -195 q -73 -226 -53 -226 q -107 -210 -94 -226 q -121 -170 -121 -194 q -107 -130 -121 -146 q -73 -115 -94 -115 q -39 -131 -52 -115 q -26 -170 -26 -146 z "},"ֶ":{"ha":0,"x_min":-127,"x_max":127,"o":"m 80 -115 q 114 -131 101 -115 q 127 -170 127 -146 q 114 -210 127 -195 q 80 -226 100 -226 q 46 -210 59 -226 q 33 -170 33 -194 q 46 -130 33 -146 q 80 -115 60 -115 m 0 -280 q 34 -296 21 -280 q 47 -336 47 -312 q 34 -376 47 -360 q 0 -391 20 -391 q -34 -375 -21 -391 q -47 -336 -47 -359 q -34 -296 -47 -311 q 0 -280 -20 -280 m -80 -115 q -46 -131 -59 -115 q -33 -170 -33 -146 q -46 -210 -33 -195 q -80 -226 -60 -226 q -114 -210 -101 -226 q -127 -170 -127 -194 q -114 -130 -127 -146 q -80 -115 -100 -115 z "},"ַ":{"ha":0,"x_min":-102,"x_max":102,"o":"m 102 -195 l -102 -195 l -102 -132 l 102 -132 l 102 -195 z "},"ָ":{"ha":0,"x_min":-100,"x_max":100,"o":"m -15 -195 l -100 -195 l -100 -132 l 100 -132 l 100 -195 l 14 -195 l 14 -218 q 14 -220 14 -218 q 23 -278 14 -250 l 47 -339 q 14 -397 32 -378 q -15 -396 -1 -400 q -47 -339 -35 -379 l -23 -278 q -15 -221 -15 -260 l -15 -219 q -15 -195 -15 -219 z "},"ֹ":{"ha":0,"x_min":-47,"x_max":47,"o":"m 0 829 q -34 845 -21 829 q -47 884 -47 861 q -34 924 -47 909 q 0 940 -20 940 q 34 924 21 940 q 47 884 47 908 q 34 844 47 860 q 0 829 20 829 z "},"ֺ":{"ha":0,"x_min":-47,"x_max":47,"o":"m 0 829 q -34 845 -21 829 q -47 884 -47 861 q -34 924 -47 909 q 0 940 -20 940 q 34 924 21 940 q 47 884 47 908 q 34 844 47 860 q 0 829 20 829 z "},"ֻ":{"ha":0,"x_min":-151,"x_max":151,"o":"m -104 -219 q -137 -203 -124 -219 q -151 -165 -151 -188 q -138 -127 -151 -142 q -104 -111 -125 -111 q -71 -127 -84 -111 q -58 -165 -58 -142 q -72 -204 -58 -189 q -104 -219 -85 -219 m 104 -401 q 72 -385 85 -401 q 58 -347 58 -370 q 71 -309 58 -324 q 104 -293 84 -293 q 138 -309 125 -293 q 151 -347 151 -324 q 137 -386 151 -371 q 104 -401 124 -401 m -3 -307 q -35 -292 -22 -307 q -47 -254 -47 -276 q -35 -215 -47 -231 q -3 -199 -22 -199 q 31 -215 18 -199 q 43 -254 43 -231 q 30 -292 43 -277 q -3 -307 17 -307 z "},"ּ":{"ha":0,"x_min":-47,"x_max":47,"o":"m 0 296 q -34 312 -21 296 q -47 352 -47 328 q -34 392 -47 376 q 0 408 -20 408 q 34 392 21 408 q 47 352 47 376 q 34 312 47 328 q 0 296 20 296 z "},"ֽ":{"ha":780,"x_min":111,"x_max":733,"o":"m 111 357 q 152 406 111 406 q 193 357 193 406 q 152 309 193 309 q 111 357 111 309 m 651 357 q 692 406 651 406 q 733 357 733 406 q 692 309 733 309 q 651 357 651 309 m 381 675 q 422 724 381 724 q 463 675 463 724 q 422 627 463 627 q 381 675 381 627 m 381 40 q 422 89 381 89 q 463 40 463 89 q 422 -8 463 -8 q 381 40 381 -8 m 616 516 q 657 565 616 565 q 699 516 699 565 q 657 468 699 468 q 616 516 616 468 m 616 199 q 657 248 616 248 q 699 199 699 248 q 657 151 699 151 q 616 199 616 151 m 146 516 q 186 565 146 565 q 228 516 228 565 q 186 468 228 468 q 146 516 146 468 m 146 199 q 186 248 146 248 q 228 199 228 248 q 186 151 228 151 q 146 199 146 151 m 246 634 q 287 683 246 683 q 328 634 328 683 q 287 586 328 586 q 246 634 246 586 m 516 634 q 557 683 516 683 q 598 634 598 683 q 557 586 598 586 q 516 634 516 586 m 246 81 q 287 130 246 130 q 328 81 328 130 q 287 33 328 33 q 246 81 246 33 m 516 81 q 557 130 516 130 q 598 81 598 130 q 557 33 598 33 q 516 81 516 33 z "},"־":{"ha":428,"x_min":50,"x_max":385,"o":"m 53 563 q 50 568 50 563 q 66 639 50 575 l 85 709 q 90 714 87 714 l 381 714 q 385 709 385 714 l 366 639 q 352 583 359 611 q 344 563 348 563 l 53 563 z "},"ֿ":{"ha":0,"x_min":-105,"x_max":105,"o":"m 105 830 l -105 830 l -105 894 l 105 894 l 105 830 z "},"׀":{"ha":407,"x_min":175,"x_max":232,"o":"m 232 -111 l 175 -111 l 175 833 l 232 833 l 232 -111 z "},"ׁ":{"ha":0,"x_min":-47,"x_max":47,"o":"m 0 829 q -34 845 -21 829 q -47 884 -47 861 q -34 924 -47 909 q 0 940 -20 940 q 34 924 21 940 q 47 884 47 908 q 34 844 47 860 q 0 829 20 829 z "},"ׂ":{"ha":0,"x_min":-47,"x_max":47,"o":"m 0 829 q -34 845 -21 829 q -47 884 -47 861 q -34 924 -47 909 q 0 940 -20 940 q 34 924 21 940 q 47 884 47 908 q 34 844 47 860 q 0 829 20 829 z "},"׃":{"ha":332,"x_min":54,"x_max":234,"o":"m 134 660 q 189 609 163 629 q 224 584 215 589 q 234 572 234 578 q 233 564 234 566 l 199 509 l 168 453 q 161 450 165 450 q 111 479 147 450 q 54 531 75 508 q 54 544 50 536 q 121 658 95 619 q 134 660 125 666 m 134 198 q 170 162 153 178 q 199 139 188 146 q 218 126 210 132 q 230 118 226 121 q 234 111 233 115 q 233 102 235 106 l 199 47 l 168 -9 q 161 -12 165 -12 q 111 17 147 -12 q 54 69 75 46 q 54 82 50 75 q 121 196 95 157 q 134 198 125 204 z "},"ׄ":{"ha":780,"x_min":111,"x_max":733,"o":"m 111 357 q 152 406 111 406 q 193 357 193 406 q 152 309 193 309 q 111 357 111 309 m 651 357 q 692 406 651 406 q 733 357 733 406 q 692 309 733 309 q 651 357 651 309 m 381 675 q 422 724 381 724 q 463 675 463 724 q 422 627 463 627 q 381 675 381 627 m 381 40 q 422 89 381 89 q 463 40 463 89 q 422 -8 463 -8 q 381 40 381 -8 m 616 516 q 657 565 616 565 q 699 516 699 565 q 657 468 699 468 q 616 516 616 468 m 616 199 q 657 248 616 248 q 699 199 699 248 q 657 151 699 151 q 616 199 616 151 m 146 516 q 186 565 146 565 q 228 516 228 565 q 186 468 228 468 q 146 516 146 468 m 146 199 q 186 248 146 248 q 228 199 228 248 q 186 151 228 151 q 146 199 146 151 m 246 634 q 287 683 246 683 q 328 634 328 683 q 287 586 328 586 q 246 634 246 586 m 516 634 q 557 683 516 683 q 598 634 598 683 q 557 586 598 586 q 516 634 516 586 m 246 81 q 287 130 246 130 q 328 81 328 130 q 287 33 328 33 q 246 81 246 33 m 516 81 q 557 130 516 130 q 598 81 598 130 q 557 33 598 33 q 516 81 516 33 z "},"ׅ":{"ha":780,"x_min":111,"x_max":733,"o":"m 111 357 q 152 406 111 406 q 193 357 193 406 q 152 309 193 309 q 111 357 111 309 m 651 357 q 692 406 651 406 q 733 357 733 406 q 692 309 733 309 q 651 357 651 309 m 381 675 q 422 724 381 724 q 463 675 463 724 q 422 627 463 627 q 381 675 381 627 m 381 40 q 422 89 381 89 q 463 40 463 89 q 422 -8 463 -8 q 381 40 381 -8 m 616 516 q 657 565 616 565 q 699 516 699 565 q 657 468 699 468 q 616 516 616 468 m 616 199 q 657 248 616 248 q 699 199 699 248 q 657 151 699 151 q 616 199 616 151 m 146 516 q 186 565 146 565 q 228 516 228 565 q 186 468 228 468 q 146 516 146 468 m 146 199 q 186 248 146 248 q 228 199 228 248 q 186 151 228 151 q 146 199 146 151 m 246 634 q 287 683 246 683 q 328 634 328 683 q 287 586 328 586 q 246 634 246 586 m 516 634 q 557 683 516 683 q 598 634 598 683 q 557 586 598 586 q 516 634 516 586 m 246 81 q 287 130 246 130 q 328 81 328 130 q 287 33 328 33 q 246 81 246 33 m 516 81 q 557 130 516 130 q 598 81 598 130 q 557 33 598 33 q 516 81 516 33 z "},"׆":{"ha":432,"x_min":78,"x_max":389,"o":"m 148 377 q 139 446 148 405 q 131 509 131 487 q 136 555 131 533 q 92 584 106 559 q 78 643 78 608 q 106 768 78 686 l 136 768 q 172 724 149 735 q 231 713 196 713 q 266 714 243 713 q 300 715 289 715 q 341 711 323 715 l 301 552 q 260 555 277 555 q 182 495 182 555 q 190 386 182 460 q 197 276 197 312 q 197 263 197 271 q 197 250 197 254 l 182 163 l 345 163 l 389 0 l 113 0 q 106 86 106 30 q 127 212 106 116 q 148 377 148 308 z "},"ׇ":{"ha":0,"x_min":-100,"x_max":100,"o":"m -16 -189 l -100 -189 l -100 -125 l 100 -125 l 100 -189 l 16 -189 l 16 -217 q 16 -220 16 -217 q 24 -312 16 -292 l 48 -373 q 14 -431 34 -412 q -16 -430 -3 -434 q -46 -373 -35 -414 l -22 -312 q -16 -221 -16 -298 l -16 -218 q -16 -189 -16 -218 z "},"א":{"ha":711,"x_min":109,"x_max":671,"o":"m 593 705 q 665 612 665 679 q 621 498 665 556 l 608 498 q 608 515 608 498 q 608 524 608 515 q 603 542 608 536 q 583 547 599 547 q 534 455 548 492 q 519 382 519 417 q 555 288 519 330 l 618 216 q 671 91 671 156 q 624 -12 671 32 l 606 -12 q 570 76 606 36 l 276 414 q 201 316 201 376 q 214 269 201 293 q 245 225 227 245 q 282 183 264 204 q 314 138 301 163 q 327 91 327 114 q 304 30 327 59 q 257 0 281 0 l 255 0 l 127 0 l 127 19 q 168 66 168 30 q 138 154 168 84 q 109 256 109 224 q 250 442 109 361 l 168 536 q 116 661 116 596 q 162 770 116 720 l 180 770 q 215 675 180 715 l 470 386 q 538 552 488 475 q 437 677 437 568 q 465 770 437 730 l 483 770 q 535 718 494 728 l 593 705 z "},"ב":{"ha":656,"x_min":90,"x_max":640,"o":"m 380 552 l 227 552 q 151 581 178 552 q 124 655 124 610 q 165 766 124 719 l 183 766 q 251 716 195 716 l 350 716 q 441 711 404 716 q 506 693 479 707 q 548 664 532 680 q 571 616 563 647 q 583 554 580 586 q 585 470 585 522 l 585 374 q 576 250 585 295 q 541 163 567 205 l 640 163 q 614 0 640 67 l 93 0 q 90 31 90 17 q 97 96 90 58 q 119 163 105 134 l 505 163 q 522 356 522 250 q 500 524 522 479 q 464 547 491 543 q 380 552 437 552 z "},"ג":{"ha":451,"x_min":52,"x_max":435,"o":"m 317 406 q 336 325 317 370 q 376 243 354 279 q 416 161 398 208 q 435 75 435 114 q 410 -12 435 25 l 393 -12 l 296 221 l 286 221 l 195 0 l 52 -12 l 87 152 q 120 157 96 153 q 153 163 144 161 q 178 170 162 165 q 204 182 193 174 q 224 201 214 189 q 273 406 273 256 q 270 469 273 444 q 263 508 267 494 q 251 530 260 522 q 236 541 241 538 q 215 546 230 543 l 189 552 q 127 586 142 563 q 113 653 113 610 q 155 762 113 712 l 174 762 q 175 743 175 754 q 177 727 176 731 q 184 719 178 722 q 203 715 190 715 l 252 710 q 309 685 290 710 q 328 614 328 659 q 323 510 328 587 q 317 406 317 433 z "},"ד":{"ha":596,"x_min":68,"x_max":559,"o":"m 455 404 q 463 261 455 366 q 470 119 470 157 q 372 -17 470 -1 l 360 0 q 378 68 378 27 q 375 186 378 115 q 372 287 372 257 q 395 446 372 384 q 476 552 418 507 l 172 552 q 95 580 121 552 q 68 652 68 608 q 109 764 68 720 l 127 764 q 195 716 138 716 l 475 716 q 541 699 523 716 q 559 635 559 681 q 555 595 559 610 q 543 570 551 580 q 526 554 535 561 q 504 532 517 547 q 479 499 490 518 q 455 404 455 462 z "},"ה":{"ha":726,"x_min":133,"x_max":675,"o":"m 625 412 q 641 265 625 366 q 656 119 656 164 q 559 -17 656 -1 l 549 -3 q 566 68 566 28 q 561 190 566 98 q 555 309 555 281 q 569 452 555 396 q 621 552 583 507 l 235 552 q 159 580 185 552 q 133 652 133 608 q 174 764 133 720 l 193 764 q 256 716 204 716 l 587 716 q 657 697 640 716 q 675 635 675 678 l 675 602 q 667 568 675 585 q 650 538 659 551 q 633 491 641 524 q 625 412 625 458 m 245 199 q 248 133 245 186 q 250 66 250 80 q 224 1 250 24 q 149 -22 199 -22 l 139 -7 q 157 42 157 12 q 155 106 157 55 q 153 170 153 157 q 180 290 153 243 q 256 336 207 336 q 279 331 270 336 l 279 313 q 254 269 264 302 q 245 199 245 235 z "},"ו":{"ha":328,"x_min":50,"x_max":285,"o":"m 180 716 q 258 680 232 716 q 285 559 285 644 l 285 73 q 239 -12 285 12 l 224 -7 l 224 450 q 209 522 224 497 q 193 541 201 535 q 161 552 184 546 q 82 583 106 566 q 52 640 59 600 q 50 658 50 646 q 62 710 50 682 q 90 754 73 738 l 109 754 q 180 716 113 716 z "},"ז":{"ha":372,"x_min":64,"x_max":350,"o":"m 313 499 l 301 499 q 276 530 298 517 q 231 548 254 543 q 218 444 218 490 q 239 283 218 388 q 260 131 260 179 q 164 -17 260 -2 l 151 -3 q 173 71 173 28 q 162 195 173 104 q 151 320 151 286 q 201 548 151 441 q 98 578 133 548 q 64 659 64 608 q 101 770 64 722 l 119 770 q 164 723 127 731 q 321 684 260 723 q 350 607 350 665 q 313 499 350 547 z "},"ח":{"ha":722,"x_min":130,"x_max":671,"o":"m 619 412 q 635 269 619 373 q 651 119 651 164 q 556 -17 651 -3 l 545 -3 q 563 68 563 24 q 557 190 563 98 q 552 309 552 281 q 565 452 552 397 q 616 552 578 507 l 273 552 q 231 497 241 529 q 221 405 221 466 q 235 268 221 362 q 248 130 248 173 q 147 -17 248 -3 l 138 -3 q 159 95 159 31 l 159 117 l 149 289 l 149 326 q 168 455 149 402 q 233 552 187 509 q 151 576 172 552 q 130 652 130 601 q 171 764 130 720 l 189 764 q 256 716 201 716 l 584 716 q 652 700 632 716 q 671 638 671 683 l 671 635 q 663 575 671 601 q 645 535 655 549 q 627 489 635 520 q 619 412 619 457 z "},"ט":{"ha":688,"x_min":91,"x_max":639,"o":"m 178 552 q 111 585 130 561 q 91 657 91 610 q 119 770 91 712 l 138 770 q 211 717 143 717 q 292 630 292 717 q 286 575 292 615 q 275 520 280 534 q 265 520 267 517 q 259 532 264 523 q 245 545 254 541 q 231 549 243 545 q 210 552 218 552 q 188 429 188 479 q 204 308 188 366 q 258 163 220 249 l 538 163 q 576 281 566 222 q 587 427 587 340 q 556 524 587 495 q 480 552 526 552 q 349 444 382 552 l 328 450 q 512 724 385 724 q 639 427 639 724 q 552 0 639 244 l 193 0 q 168 184 193 47 q 144 383 144 320 q 178 552 144 465 z "},"י":{"ha":308,"x_min":45,"x_max":271,"o":"m 168 326 l 149 347 q 198 402 184 374 q 212 478 212 431 l 212 503 q 201 541 212 529 q 153 552 190 552 q 72 583 99 552 q 45 663 45 614 q 77 770 45 712 l 95 770 q 114 732 98 746 q 157 719 130 719 l 180 716 q 248 684 225 716 q 271 591 271 651 l 271 539 q 168 326 271 380 z "},"ך":{"ha":574,"x_min":73,"x_max":536,"o":"m 500 543 q 488 494 488 529 q 488 488 488 494 l 510 -120 q 510 -129 510 -123 q 511 -137 511 -134 q 496 -203 511 -180 q 446 -240 481 -227 l 433 -234 l 431 553 l 169 553 q 98 581 122 553 q 73 653 73 608 q 115 764 73 717 l 132 764 q 205 717 142 717 l 450 716 q 536 642 536 716 l 536 621 q 522 575 536 591 l 500 543 z "},"כ":{"ha":639,"x_min":85,"x_max":587,"o":"m 525 344 q 525 351 525 344 q 519 438 525 404 q 499 500 514 473 q 457 540 485 528 q 385 552 429 552 l 198 552 q 129 579 152 552 q 106 652 106 607 q 147 764 106 716 l 165 764 q 233 716 176 716 l 372 716 q 587 364 587 716 q 579 221 587 280 q 555 126 571 161 q 522 71 539 90 q 478 37 504 51 q 308 0 414 0 l 85 0 l 115 163 l 372 163 q 490 203 454 163 q 525 344 525 244 z "},"ל":{"ha":611,"x_min":95,"x_max":585,"o":"m 234 716 l 455 716 q 552 686 517 716 q 585 536 585 654 l 585 463 q 546 331 585 374 l 417 186 q 370 84 370 134 q 373 58 370 74 q 375 35 375 42 q 330 -15 375 -15 q 292 7 307 -15 q 277 57 277 28 q 301 129 277 94 q 385 224 326 165 l 484 326 q 526 439 526 370 l 526 479 q 503 540 526 528 q 401 552 480 552 l 204 552 q 125 582 153 552 q 98 661 98 612 q 96 693 98 670 q 95 730 95 717 q 112 823 95 785 q 200 892 142 892 q 300 866 232 892 q 401 840 368 840 q 428 856 417 840 q 442 893 438 873 q 457 930 446 913 q 486 947 468 947 q 535 934 511 947 q 580 921 559 921 l 580 903 q 557 877 563 890 q 549 852 554 869 q 539 825 544 836 q 526 803 534 815 q 502 785 517 791 q 467 779 488 779 q 370 794 419 779 q 278 823 321 808 q 203 838 236 838 q 168 819 182 838 q 155 777 155 801 q 234 716 155 716 z "},"ם":{"ha":681,"x_min":103,"x_max":625,"o":"m 117 0 l 117 364 q 158 465 117 419 l 236 552 l 201 552 q 128 579 153 552 q 103 652 103 607 q 144 762 103 717 l 162 762 q 227 716 173 716 l 376 716 q 579 671 533 716 q 625 473 625 625 l 625 0 l 117 0 m 282 552 l 208 445 q 178 340 178 402 l 178 163 l 567 163 l 567 321 q 541 515 567 460 q 503 545 529 538 q 424 552 476 552 l 282 552 z "},"מ":{"ha":742,"x_min":126,"x_max":683,"o":"m 462 725 q 567 678 522 715 q 635 586 611 642 q 671 468 660 530 q 683 332 683 405 q 658 116 683 239 l 635 0 l 296 0 l 336 163 l 612 163 q 623 227 621 197 q 625 317 625 256 l 625 319 q 583 472 625 413 q 472 531 540 531 l 467 531 q 271 414 350 531 q 179 0 179 276 l 134 0 q 132 32 134 12 q 131 59 131 52 q 165 306 131 202 q 277 494 199 409 q 280 523 280 515 q 278 534 280 530 q 271 541 277 538 q 259 544 265 543 q 240 547 254 545 q 216 552 227 549 q 151 593 175 561 q 126 664 126 626 q 155 770 126 720 l 173 770 q 225 722 185 728 l 267 716 q 324 659 324 708 q 321 628 324 646 q 318 601 318 609 q 339 559 318 572 q 462 725 462 628 z "},"ן":{"ha":311,"x_min":61,"x_max":277,"o":"m 165 368 q 177 427 165 399 q 200 478 189 456 q 212 517 212 500 l 212 521 q 205 546 212 538 q 171 553 199 553 q 85 582 109 553 q 61 663 61 611 q 98 771 61 726 l 116 771 q 118 761 117 769 q 119 751 119 753 q 121 743 120 749 q 124 735 123 736 q 127 729 125 733 q 132 723 130 724 q 138 720 134 722 q 146 717 142 718 q 157 716 151 716 l 174 716 q 251 687 224 716 q 277 605 277 658 q 265 550 277 586 q 240 464 252 515 q 227 355 227 413 q 228 342 227 351 q 228 329 228 334 l 250 -60 q 250 -73 250 -64 q 250 -86 250 -82 q 178 -239 250 -212 l 165 -234 l 165 368 z "},"נ":{"ha":416,"x_min":47,"x_max":372,"o":"m 330 379 q 351 214 330 310 q 372 88 372 118 q 366 0 372 27 l 47 0 l 72 163 l 277 163 l 275 252 l 275 270 q 282 381 275 305 q 288 490 288 456 l 288 495 q 277 536 288 522 q 238 550 267 550 q 189 559 210 550 q 156 580 168 568 q 139 609 145 592 q 131 639 132 627 q 130 665 130 651 l 130 667 q 171 773 130 732 l 189 773 q 203 731 195 739 q 233 720 212 720 l 262 717 q 355 623 355 707 q 342 501 355 590 q 330 379 330 412 z "},"ס":{"ha":704,"x_min":119,"x_max":652,"o":"m 652 364 q 641 210 652 275 q 604 92 630 144 q 528 12 577 39 q 408 -15 479 -15 l 382 -15 q 271 12 321 -15 q 188 82 220 38 q 137 181 155 125 q 119 296 119 236 q 138 437 119 378 q 195 554 156 496 q 140 588 161 554 q 119 652 119 623 q 162 764 119 715 l 180 764 q 247 716 191 716 l 412 716 q 511 700 469 716 q 586 644 553 683 q 636 535 619 606 q 652 364 652 465 m 591 340 q 585 436 591 399 q 561 501 578 473 q 512 540 543 528 q 430 552 480 552 l 235 552 q 195 457 207 504 q 183 351 183 410 q 234 191 183 243 q 365 138 285 138 l 425 138 q 550 187 509 138 q 591 340 591 236 z "},"ע":{"ha":624,"x_min":47,"x_max":587,"o":"m 470 191 q 281 5 470 27 l 47 -22 l 77 137 l 250 156 q 198 309 250 267 q 154 362 163 338 q 145 437 145 385 q 158 552 145 477 q 80 589 106 562 q 53 656 53 616 q 80 767 53 713 l 98 767 q 157 713 111 718 l 189 713 q 243 685 221 713 q 265 616 265 656 q 230 520 265 565 l 218 520 q 208 546 214 540 q 186 552 201 552 q 192 456 186 477 q 227 417 198 436 q 264 388 254 399 q 281 356 275 377 q 288 297 288 336 l 288 163 l 330 168 q 346 170 336 169 q 360 172 356 172 q 371 175 363 173 q 380 178 378 176 q 387 185 382 180 q 393 195 391 190 q 399 210 395 201 q 405 230 402 219 q 411 257 408 241 q 462 403 425 319 q 498 506 498 488 q 464 552 498 545 q 395 592 417 563 q 373 661 373 622 q 406 767 373 711 l 425 767 q 448 728 431 739 q 487 714 460 720 q 534 704 513 708 q 571 683 555 701 q 587 635 587 666 q 575 576 587 609 q 546 506 563 543 q 512 426 529 469 q 482 321 494 382 q 470 191 470 259 z "},"ף":{"ha":601,"x_min":96,"x_max":572,"o":"m 277 264 q 249 268 269 264 q 217 271 230 271 q 140 235 168 271 l 117 235 q 96 322 96 279 q 178 552 96 440 q 132 586 149 558 q 115 652 115 614 q 158 764 115 717 l 176 764 q 242 716 188 716 l 345 716 l 363 716 q 526 646 493 716 q 550 492 550 596 l 564 186 q 568 11 564 118 q 572 -136 572 -97 q 559 -206 572 -188 q 510 -237 546 -224 l 494 -232 l 494 336 q 489 436 494 395 q 476 499 484 477 q 454 534 469 522 q 426 549 439 546 q 391 552 412 552 l 210 552 q 185 513 192 524 q 173 486 179 503 q 168 455 168 470 q 182 413 168 425 q 241 393 197 401 q 300 336 300 382 l 300 290 q 277 264 300 264 z "},"פ":{"ha":618,"x_min":75,"x_max":562,"o":"m 259 311 q 229 314 253 311 q 199 317 205 317 q 122 281 150 317 l 100 281 q 75 391 75 339 q 88 482 75 446 q 138 552 102 518 l 111 583 q 99 612 104 591 q 94 652 94 633 q 135 764 94 718 l 153 764 q 220 716 163 716 l 349 716 q 562 364 562 716 q 494 68 562 136 q 285 0 426 0 l 75 0 l 114 163 l 338 163 q 394 165 371 163 q 440 179 416 168 q 479 208 465 189 q 503 260 493 227 q 512 341 512 294 q 505 436 512 397 q 487 498 498 475 q 456 532 476 520 q 417 548 437 545 q 368 552 398 552 l 191 552 q 146 480 146 524 q 160 450 146 460 q 192 437 173 440 q 231 431 212 434 q 263 417 250 428 q 276 384 276 406 l 276 347 q 259 311 276 311 z "},"ץ":{"ha":671,"x_min":68,"x_max":642,"o":"m 602 511 l 590 511 q 578 536 586 530 q 551 541 571 541 q 458 460 492 496 l 397 398 q 294 260 321 319 q 268 143 268 201 q 278 19 268 106 q 288 -110 288 -68 q 219 -241 288 -215 l 203 -236 l 189 322 l 189 325 q 210 417 189 354 q 230 507 230 481 q 201 547 230 535 q 101 585 133 559 q 68 660 68 611 q 100 768 68 718 l 118 768 q 172 721 129 726 l 216 716 q 287 691 262 716 q 311 621 311 665 q 272 488 311 583 q 243 376 243 415 l 243 370 l 245 313 l 256 313 q 508 549 380 458 q 411 660 411 565 q 442 768 411 717 l 460 768 q 477 734 463 747 q 517 721 492 721 l 559 716 q 596 707 591 709 q 616 694 602 705 q 642 627 642 675 q 602 511 642 563 z "},"צ":{"ha":656,"x_min":85,"x_max":625,"o":"m 185 552 q 110 582 135 552 q 85 659 85 611 q 115 770 85 722 l 134 770 q 189 718 145 718 l 213 716 q 278 696 260 716 q 295 624 295 675 q 290 559 295 608 q 284 494 284 510 q 322 408 284 439 l 387 354 q 486 547 431 473 q 411 659 411 564 q 439 770 411 715 l 458 770 q 518 718 465 718 l 555 715 q 607 686 588 715 q 625 614 625 656 q 587 503 625 551 l 575 503 q 571 519 572 515 q 567 530 570 523 q 557 539 563 537 q 541 542 551 542 q 531 541 534 542 q 475 459 498 509 q 452 363 452 408 q 511 252 452 300 l 602 177 l 563 0 l 139 0 l 168 163 l 474 163 l 283 317 q 241 393 241 351 l 241 395 l 245 493 l 245 498 q 231 540 245 528 q 185 552 218 552 z "},"ק":{"ha":676,"x_min":113,"x_max":635,"o":"m 469 716 q 598 672 561 716 q 635 529 635 627 l 635 463 q 619 349 635 388 q 563 282 603 309 l 414 183 q 361 80 361 149 q 362 60 361 77 q 363 32 363 43 q 316 -15 363 -15 q 272 3 294 -15 q 250 47 250 22 q 287 141 250 99 q 392 229 323 184 l 522 316 q 574 422 574 351 l 574 471 q 552 536 574 520 q 462 552 529 552 l 210 552 q 137 580 162 552 q 113 652 113 608 q 154 764 113 716 l 172 764 q 239 716 182 716 l 469 716 m 153 -234 l 138 -230 l 138 353 q 187 455 138 412 l 212 459 l 212 -181 q 153 -234 212 -199 z "},"ר":{"ha":599,"x_min":66,"x_max":561,"o":"m 513 -13 l 499 -8 l 499 321 q 488 472 499 433 q 435 534 476 511 q 350 552 403 552 l 163 552 q 92 580 117 552 q 66 652 66 608 q 108 764 66 716 l 125 764 q 193 716 137 716 l 312 716 q 514 671 469 716 q 561 473 561 626 l 561 54 q 513 -13 561 12 z "},"ש":{"ha":876,"x_min":97,"x_max":854,"o":"m 608 0 l 229 0 q 195 154 215 75 q 164 283 174 234 q 154 380 154 332 q 178 545 154 475 q 117 588 138 557 q 97 655 97 618 q 131 770 97 718 l 149 770 q 170 735 155 747 q 230 715 184 724 q 278 681 260 709 q 296 613 296 652 q 259 511 296 557 l 248 511 q 236 536 243 530 q 210 541 229 541 q 198 403 198 488 q 214 294 198 348 q 271 163 231 241 l 304 163 q 387 340 352 251 q 456 554 422 429 q 396 599 416 569 q 376 665 376 629 q 411 770 376 723 l 429 770 q 467 724 437 732 l 510 715 q 564 682 549 703 q 578 628 578 661 l 578 624 q 533 515 578 572 l 522 515 q 519 529 520 521 q 517 540 518 537 q 514 546 517 543 q 507 551 512 550 q 492 552 501 552 q 436 349 467 437 q 356 163 405 260 l 572 163 q 623 271 587 211 q 737 439 660 331 q 744 450 740 444 q 750 458 749 456 q 755 464 752 460 q 759 470 758 469 q 761 475 760 472 q 763 480 763 479 q 764 486 764 482 q 765 492 765 489 q 765 498 765 494 q 753 530 765 517 q 726 550 742 543 q 693 565 709 557 q 665 591 676 574 q 653 635 653 608 q 666 705 653 667 q 699 770 680 744 l 717 770 q 751 726 722 738 l 789 713 q 854 621 854 691 q 835 544 854 586 q 786 453 817 503 q 724 344 756 404 q 659 194 691 285 q 608 0 627 103 z "},"ת":{"ha":696,"x_min":61,"x_max":658,"o":"m 608 -12 l 593 -7 l 593 321 q 588 436 593 397 q 572 491 582 475 q 540 526 563 507 q 444 552 507 552 l 292 552 l 272 506 q 230 352 230 406 q 239 237 230 294 q 262 85 262 121 l 262 80 l 258 0 l 61 0 l 90 163 l 175 163 l 171 271 l 171 290 q 221 500 171 414 l 252 552 l 225 552 q 153 579 176 552 q 130 652 130 606 q 171 764 130 717 l 191 764 q 258 716 203 716 l 410 716 q 612 671 567 716 q 658 473 658 626 l 658 73 q 608 -12 658 14 z "},"װ":{"ha":718,"x_min":50,"x_max":636,"o":"m 532 716 q 610 680 583 716 q 636 559 636 644 l 636 73 q 590 -12 636 12 l 575 -7 l 575 450 q 560 522 575 497 q 544 541 552 535 q 513 552 536 546 q 434 583 457 566 q 403 640 410 600 q 401 658 401 646 q 413 710 401 682 q 441 754 425 738 l 460 754 q 532 716 465 716 m 180 716 q 258 680 232 716 q 285 559 285 644 l 285 73 q 239 -12 285 12 l 224 -7 l 224 450 q 209 522 224 497 q 193 541 201 535 q 161 552 184 546 q 82 583 106 566 q 52 640 59 600 q 50 658 50 646 q 62 710 50 682 q 90 754 73 738 l 109 754 q 180 716 113 716 z "},"ױ":{"ha":713,"x_min":45,"x_max":632,"o":"m 168 326 l 149 347 q 198 402 184 374 q 212 478 212 431 l 212 503 q 201 541 212 529 q 153 552 190 552 q 72 583 99 552 q 45 663 45 614 q 77 770 45 712 l 95 770 q 114 732 98 746 q 157 719 130 719 l 180 716 q 248 684 225 716 q 271 591 271 651 l 271 539 q 168 326 271 380 m 528 716 q 606 680 579 716 q 632 559 632 644 l 632 73 q 586 -12 632 12 l 571 -7 l 571 450 q 556 522 571 497 q 540 541 548 535 q 509 552 532 546 q 430 583 453 566 q 399 640 406 600 q 397 658 397 646 q 409 710 397 682 q 437 754 420 738 l 456 754 q 528 716 460 716 z "},"ײ":{"ha":694,"x_min":45,"x_max":618,"o":"m 515 326 l 496 347 q 545 402 532 374 q 559 478 559 431 l 559 503 q 548 541 559 529 q 500 552 537 552 q 419 583 446 552 q 392 663 392 614 q 424 770 392 712 l 442 770 q 461 732 446 746 q 504 719 477 719 l 528 716 q 595 684 572 716 q 618 591 618 651 l 618 539 q 515 326 618 380 m 168 326 l 149 347 q 198 402 184 374 q 212 478 212 431 l 212 503 q 201 541 212 529 q 153 552 190 552 q 72 583 99 552 q 45 663 45 614 q 77 770 45 712 l 95 770 q 114 732 98 746 q 157 719 130 719 l 180 716 q 248 684 225 716 q 271 591 271 651 l 271 539 q 168 326 271 380 z "},"׳":{"ha":290,"x_min":73,"x_max":224,"o":"m 163 544 l 100 422 l 73 422 l 78 615 q 172 743 78 743 q 224 688 224 743 q 163 544 224 661 z "},"״":{"ha":516,"x_min":73,"x_max":450,"o":"m 163 544 l 100 422 l 73 422 l 78 615 q 172 743 78 743 q 224 688 224 743 q 163 544 224 661 m 389 544 l 326 421 l 298 421 l 304 615 q 397 745 304 745 q 450 689 450 745 q 389 544 450 661 z "}," ":{"ha":68,"x_min":0,"x_max":0,"o":""}," ":{"ha":27,"x_min":0,"x_max":0,"o":""},"​":{"ha":0,"x_min":0,"x_max":0,"o":""},"‌":{"ha":0,"x_min":-96,"x_max":95,"o":"m -73 1284 l 0 1211 l 72 1284 l 95 1261 l 22 1189 l 95 1116 l 72 1094 l 0 1166 l -73 1094 l -96 1116 l -23 1189 l -96 1261 l -73 1284 z "},"‍":{"ha":0,"x_min":-138,"x_max":138,"o":"m 106 1110 l 106 1173 l -106 1173 l -106 1110 l -138 1110 l -138 1205 l 138 1205 l 138 1110 l 106 1110 z "},"‎":{"ha":0,"x_min":-104,"x_max":132,"o":"m 14 1261 l 37 1284 l 132 1189 l 37 1093 l 14 1116 l 71 1173 l -104 1173 l -104 1205 l 71 1205 l 14 1261 z "},"‏":{"ha":0,"x_min":-132,"x_max":105,"o":"m -14 1117 l -36 1094 l -132 1190 l -36 1285 l -14 1262 l -71 1205 l 105 1205 l 105 1173 l -70 1173 l -14 1117 z "},"‘":{"ha":261,"x_min":52,"x_max":214,"o":"m 198 650 q 178 600 198 620 q 130 579 158 579 q 72 604 92 579 q 52 671 52 629 q 87 792 52 739 q 198 907 122 846 l 214 890 q 157 836 172 852 q 123 781 132 806 q 119 752 119 766 q 148 716 119 716 q 182 697 165 716 q 198 650 198 679 z "},"’":{"ha":260,"x_min":52,"x_max":214,"o":"m 68 836 q 88 886 68 865 q 136 907 109 907 q 194 882 174 907 q 214 815 214 857 q 179 694 214 748 q 68 579 144 640 l 52 597 q 109 652 83 626 q 142 705 134 682 q 146 734 146 720 q 118 770 146 770 q 84 788 100 770 q 68 836 68 806 z "},"‚":{"ha":260,"x_min":47,"x_max":210,"o":"m 63 68 q 83 118 63 98 q 131 138 103 138 q 189 113 169 138 q 210 46 210 88 q 174 -75 210 -21 q 63 -190 139 -129 l 47 -172 q 104 -117 79 -143 q 138 -64 130 -87 q 142 -35 142 -48 q 112 0 142 0 q 79 19 95 0 q 63 68 63 39 z "},"“":{"ha":493,"x_min":46,"x_max":428,"o":"m 411 650 q 391 600 411 620 q 343 579 371 579 q 285 604 305 579 q 264 671 264 629 q 300 792 264 739 q 411 907 335 846 l 427 890 q 370 836 385 852 q 336 781 345 806 q 332 752 332 766 q 361 716 332 716 q 395 697 378 716 q 411 650 411 679 m 193 650 q 173 600 193 620 q 125 579 153 579 q 66 604 87 579 q 46 671 46 629 q 81 792 46 739 q 193 907 117 846 l 209 890 q 152 836 167 852 q 118 781 127 806 q 114 752 114 766 q 142 716 114 716 q 176 697 160 716 q 193 650 193 679 z "},"”":{"ha":493,"x_min":52,"x_max":433,"o":"m 287 836 q 307 886 287 865 q 355 907 328 907 q 413 882 393 907 q 433 815 433 857 q 398 694 433 748 q 287 579 363 640 l 271 597 q 328 652 302 626 q 361 705 353 682 q 366 734 366 720 q 337 770 366 770 q 303 788 319 770 q 287 836 287 806 m 68 836 q 88 886 68 865 q 136 907 109 907 q 194 882 174 907 q 214 815 214 857 q 179 694 214 748 q 68 579 144 640 l 52 597 q 109 652 83 626 q 142 705 134 682 q 146 734 146 720 q 118 770 146 770 q 84 788 100 770 q 68 836 68 806 z "},"„":{"ha":493,"x_min":47,"x_max":429,"o":"m 282 68 q 302 118 282 98 q 350 138 322 138 q 408 113 388 138 q 429 46 429 88 q 393 -75 429 -21 q 282 -190 358 -129 l 266 -172 q 323 -117 298 -143 q 357 -64 349 -87 q 361 -35 361 -48 q 331 0 361 0 q 298 19 314 0 q 282 68 282 39 m 63 68 q 83 118 63 98 q 131 138 103 138 q 189 113 169 138 q 210 46 210 88 q 174 -75 210 -21 q 63 -190 139 -129 l 47 -172 q 104 -117 79 -143 q 138 -64 130 -87 q 142 -35 142 -48 q 112 0 142 0 q 79 19 95 0 q 63 68 63 39 z "},"₪":{"ha":694,"x_min":43,"x_max":661,"o":"m 488 138 l 385 138 l 385 553 q 385 557 385 553 q 353 651 385 627 q 250 680 315 680 l 146 680 l 146 0 l 43 0 l 43 716 l 260 716 q 434 675 380 716 q 488 556 488 635 l 488 553 l 488 138 m 216 568 l 319 568 l 319 163 q 352 65 319 90 q 455 37 389 37 l 558 37 l 558 716 l 661 716 l 661 0 l 444 0 q 271 41 324 0 q 216 163 216 81 l 216 568 z "},"€":{"ha":694,"x_min":56,"x_max":605,"o":"m 114 437 q 162 592 127 524 q 261 703 198 660 q 406 745 325 745 q 591 698 500 745 l 591 536 l 570 536 q 526 664 570 621 q 406 708 482 708 q 341 692 370 708 q 292 651 312 677 q 257 590 272 626 q 233 517 241 555 q 220 437 224 479 l 541 437 l 528 395 l 217 395 q 216 372 217 387 q 215 349 215 357 l 515 349 l 502 307 l 216 307 q 265 106 216 185 q 392 27 313 27 q 458 36 429 27 q 511 63 488 44 q 550 100 535 83 q 588 149 565 118 l 605 138 q 563 78 582 102 q 515 30 543 54 q 451 -6 487 5 q 370 -18 414 -18 q 229 26 289 -18 q 140 143 170 70 q 111 307 111 216 l 56 307 l 68 349 l 109 349 l 109 358 l 109 395 l 56 395 l 68 437 l 114 437 z "},"◌":{"ha":780,"x_min":111,"x_max":733,"o":"m 111 357 q 152 406 111 406 q 193 357 193 406 q 152 309 193 309 q 111 357 111 309 m 651 357 q 692 406 651 406 q 733 357 733 406 q 692 309 733 309 q 651 357 651 309 m 381 675 q 422 724 381 724 q 463 675 463 724 q 422 627 463 627 q 381 675 381 627 m 381 40 q 422 89 381 89 q 463 40 463 89 q 422 -8 463 -8 q 381 40 381 -8 m 616 516 q 657 565 616 565 q 699 516 699 565 q 657 468 699 468 q 616 516 616 468 m 616 199 q 657 248 616 248 q 699 199 699 248 q 657 151 699 151 q 616 199 616 151 m 146 516 q 186 565 146 565 q 228 516 228 565 q 186 468 228 468 q 146 516 146 468 m 146 199 q 186 248 146 248 q 228 199 228 248 q 186 151 228 151 q 146 199 146 151 m 246 634 q 287 683 246 683 q 328 634 328 683 q 287 586 328 586 q 246 634 246 586 m 516 634 q 557 683 516 683 q 598 634 598 683 q 557 586 598 586 q 516 634 516 586 m 246 81 q 287 130 246 130 q 328 81 328 130 q 287 33 328 33 q 246 81 246 33 m 516 81 q 557 130 516 130 q 598 81 598 130 q 557 33 598 33 q 516 81 516 33 z "},"יִ":{"ha":308,"x_min":45,"x_max":271,"o":"m 165 121 q 131 137 144 121 q 118 176 118 153 q 132 216 118 201 q 165 232 146 232 q 199 216 186 232 q 212 176 212 200 q 199 136 212 151 q 165 121 186 121 m 168 326 l 149 347 q 198 402 184 374 q 212 478 212 431 l 212 503 q 201 541 212 529 q 153 552 190 552 q 72 583 99 552 q 45 663 45 614 q 77 770 45 712 l 95 770 q 114 732 98 746 q 157 719 130 719 l 180 716 q 248 684 225 716 q 271 591 271 651 l 271 539 q 168 326 271 380 z "},"ﬞ":{"ha":0,"x_min":-126,"x_max":126,"o":"m 0 806 q -53 857 -12 813 q -126 923 -94 901 l -126 934 q -121 943 -126 935 q 0 870 -117 941 q 123 932 69 912 q 126 923 126 928 l 126 912 q 54 854 98 898 q 0 806 9 810 z "},"ײַ":{"ha":623,"x_min":45,"x_max":578,"o":"m 445 326 l 426 347 q 475 402 462 374 q 489 478 489 431 l 489 503 q 478 541 489 529 q 430 552 467 552 q 349 583 376 552 q 322 663 322 614 q 354 770 322 712 l 372 770 q 391 732 376 746 q 434 719 407 719 l 458 716 q 526 684 503 716 q 549 591 549 651 l 549 539 q 445 326 549 380 m 168 326 l 149 347 q 198 402 184 374 q 212 478 212 431 l 212 503 q 201 541 212 529 q 153 552 190 552 q 72 583 99 552 q 45 663 45 614 q 77 770 45 712 l 95 770 q 114 732 98 746 q 157 719 130 719 l 180 716 q 248 684 225 716 q 271 591 271 651 l 271 539 q 168 326 271 380 m 578 195 l 52 195 l 52 258 l 578 258 l 578 195 z "},"ﬠ":{"ha":624,"x_min":47,"x_max":587,"o":"m 470 191 q 281 5 470 27 l 47 -22 l 77 137 l 250 156 q 198 309 250 267 q 154 362 163 338 q 145 437 145 385 q 158 552 145 477 q 80 589 106 562 q 53 656 53 616 q 80 767 53 713 l 98 767 q 157 713 111 718 l 189 713 q 243 685 221 713 q 265 616 265 656 q 230 520 265 565 l 218 520 q 208 546 214 540 q 186 552 201 552 q 192 456 186 477 q 227 417 198 436 q 264 388 254 399 q 281 356 275 377 q 288 297 288 336 l 288 163 l 330 168 q 346 170 336 169 q 360 172 356 172 q 371 175 363 173 q 380 178 378 176 q 387 185 382 180 q 393 195 391 190 q 399 210 395 201 q 405 230 402 219 q 411 257 408 241 q 462 403 425 319 q 498 506 498 488 q 464 552 498 545 q 395 592 417 563 q 373 661 373 622 q 406 767 373 711 l 425 767 q 448 728 431 739 q 487 714 460 720 q 534 704 513 708 q 571 683 555 701 q 587 635 587 666 q 575 576 587 609 q 546 506 563 543 q 512 426 529 469 q 482 321 494 382 q 470 191 470 259 z "},"ﬡ":{"ha":1057,"x_min":109,"x_max":1017,"o":"m 172 65 q 140 156 172 84 q 109 260 109 229 q 267 456 109 358 l 172 536 q 118 660 118 597 q 166 770 118 718 l 184 770 q 219 675 184 715 q 838 255 417 422 q 811 381 811 320 q 828 473 811 433 q 884 555 845 513 q 807 596 833 564 q 782 676 782 629 q 811 770 782 728 l 827 770 q 880 718 839 728 l 939 704 q 1016 618 1016 686 q 1004 557 1016 594 q 929 551 983 551 q 864 381 864 450 q 901 288 864 330 l 964 215 q 1017 90 1017 155 q 969 -12 1017 31 l 951 -12 q 916 75 951 35 q 293 427 601 220 q 205 315 205 375 q 221 253 205 288 q 257 190 237 218 q 293 128 277 163 q 309 65 309 93 q 259 0 309 0 l 131 0 l 131 18 q 172 65 172 30 z "},"ﬢ":{"ha":1010,"x_min":68,"x_max":972,"o":"m 869 404 q 876 261 869 366 q 884 119 884 157 q 785 -17 884 -1 l 774 0 q 791 68 791 26 q 788 186 791 115 q 785 287 785 257 q 807 447 785 386 q 885 553 828 508 l 155 553 q 87 579 106 553 q 68 652 68 605 q 109 764 68 720 l 127 764 q 195 716 138 716 l 889 716 q 955 699 937 716 q 972 635 972 681 q 966 587 972 605 q 949 563 959 570 q 922 539 939 555 q 892 499 905 522 q 869 404 869 460 z "},"ﬣ":{"ha":1106,"x_min":133,"x_max":1055,"o":"m 1004 410 q 1020 266 1004 368 q 1036 117 1036 164 q 939 -19 1036 -4 l 928 -5 q 946 66 946 25 q 941 187 946 96 q 935 307 935 278 q 949 451 935 394 q 1001 553 964 507 l 233 553 q 142 652 142 553 q 184 764 142 718 l 202 764 q 266 714 214 714 l 966 714 q 1037 695 1019 714 q 1055 633 1055 677 l 1055 600 q 1047 566 1055 583 q 1029 536 1039 549 q 1012 489 1020 522 q 1004 410 1004 456 m 239 199 q 241 133 239 186 q 244 67 244 81 q 218 2 244 25 q 142 -22 193 -22 l 133 -7 q 151 43 151 12 q 149 116 151 71 q 146 170 146 161 q 174 286 146 243 q 251 330 201 330 q 274 324 264 330 l 274 306 q 249 265 258 296 q 239 199 239 235 z "},"ﬤ":{"ha":978,"x_min":85,"x_max":926,"o":"m 874 341 l 874 347 q 868 436 874 400 q 847 499 863 471 q 802 539 831 526 q 728 552 773 552 l 203 552 q 131 580 157 552 q 106 652 106 608 q 147 764 106 715 l 165 764 q 233 716 176 716 l 711 716 q 926 364 926 716 q 918 221 926 280 q 894 126 910 161 q 861 71 878 90 q 817 37 843 51 q 647 0 753 0 l 85 0 l 142 163 l 724 163 q 840 202 806 163 q 874 341 874 241 z "},"ﬥ":{"ha":955,"x_min":95,"x_max":929,"o":"m 234 720 l 799 720 q 896 689 861 720 q 929 539 929 658 l 929 467 q 890 334 929 378 l 761 190 q 714 87 714 138 q 716 61 714 77 q 719 39 719 45 q 673 -12 719 -12 q 636 10 651 -12 q 621 60 621 32 q 645 133 621 97 q 728 227 670 168 l 827 330 q 869 442 869 374 l 869 483 q 847 544 869 532 q 745 555 824 555 l 204 555 q 125 585 153 555 q 98 663 98 614 q 96 695 98 671 q 95 732 95 718 q 112 825 95 787 q 200 893 142 893 q 388 875 292 893 q 559 838 484 857 q 677 820 635 820 q 704 837 694 820 q 719 873 715 853 q 734 910 723 894 q 762 927 745 927 q 812 914 787 927 q 857 901 836 901 l 857 883 q 834 857 840 870 q 826 833 831 850 q 816 806 821 816 q 802 784 811 795 q 779 766 793 772 q 744 760 764 760 q 617 772 687 760 q 491 799 547 785 q 356 826 435 814 q 203 839 277 839 q 168 821 182 839 q 155 778 155 802 q 234 720 155 720 z "},"ﬦ":{"ha":1062,"x_min":103,"x_max":1004,"o":"m 117 0 l 117 366 q 158 467 117 420 l 245 567 l 201 567 q 103 654 103 567 q 144 764 103 718 l 162 764 q 227 716 173 716 l 755 716 q 957 671 911 716 q 1004 473 1004 625 l 1004 0 l 117 0 m 279 552 l 208 446 q 178 341 178 402 l 178 163 l 946 163 l 946 321 q 919 515 946 459 q 877 545 907 538 q 793 552 847 552 l 279 552 z "},"ﬧ":{"ha":975,"x_min":66,"x_max":935,"o":"m 888 -13 l 873 -8 l 873 321 q 862 473 873 433 q 810 534 851 513 q 724 553 776 553 l 163 553 q 92 580 117 553 q 66 652 66 608 q 108 764 66 716 l 125 764 q 193 716 136 716 l 686 716 q 888 671 843 716 q 935 473 935 625 l 935 54 q 888 -13 935 12 z "},"ﬨ":{"ha":1095,"x_min":61,"x_max":1055,"o":"m 1004 -11 l 990 -6 l 990 322 q 986 437 990 400 q 972 491 981 475 q 941 527 963 508 q 845 552 909 552 l 296 552 l 272 506 q 230 352 230 425 q 230 346 230 351 q 229 339 229 342 q 239 237 229 300 q 262 85 262 117 l 262 80 l 262 0 l 61 0 l 97 163 l 177 163 l 170 271 l 170 294 q 221 500 170 421 l 254 552 l 241 553 q 228 552 228 553 q 154 579 178 552 q 130 652 130 607 q 172 764 130 718 l 191 764 q 258 717 202 717 l 806 717 q 1008 672 963 717 q 1055 474 1055 626 l 1055 73 q 1004 -11 1055 15 z "},"﬩":{"ha":721,"x_min":116,"x_max":661,"o":"m 661 291 l 116 291 q 116 350 116 291 l 363 350 l 363 642 q 414 642 363 642 l 414 350 l 661 350 l 661 291 z "},"שׁ":{"ha":876,"x_min":111,"x_max":733,"o":"m 111 357 q 152 406 111 406 q 193 357 193 406 q 152 309 193 309 q 111 357 111 309 m 651 357 q 692 406 651 406 q 733 357 733 406 q 692 309 733 309 q 651 357 651 309 m 381 675 q 422 724 381 724 q 463 675 463 724 q 422 627 463 627 q 381 675 381 627 m 381 40 q 422 89 381 89 q 463 40 463 89 q 422 -8 463 -8 q 381 40 381 -8 m 616 516 q 657 565 616 565 q 699 516 699 565 q 657 468 699 468 q 616 516 616 468 m 616 199 q 657 248 616 248 q 699 199 699 248 q 657 151 699 151 q 616 199 616 151 m 146 516 q 186 565 146 565 q 228 516 228 565 q 186 468 228 468 q 146 516 146 468 m 146 199 q 186 248 146 248 q 228 199 228 248 q 186 151 228 151 q 146 199 146 151 m 246 634 q 287 683 246 683 q 328 634 328 683 q 287 586 328 586 q 246 634 246 586 m 516 634 q 557 683 516 683 q 598 634 598 683 q 557 586 598 586 q 516 634 516 586 m 246 81 q 287 130 246 130 q 328 81 328 130 q 287 33 328 33 q 246 81 246 33 m 516 81 q 557 130 516 130 q 598 81 598 130 q 557 33 598 33 q 516 81 516 33 z "},"שׂ":{"ha":876,"x_min":111,"x_max":733,"o":"m 111 357 q 152 406 111 406 q 193 357 193 406 q 152 309 193 309 q 111 357 111 309 m 651 357 q 692 406 651 406 q 733 357 733 406 q 692 309 733 309 q 651 357 651 309 m 381 675 q 422 724 381 724 q 463 675 463 724 q 422 627 463 627 q 381 675 381 627 m 381 40 q 422 89 381 89 q 463 40 463 89 q 422 -8 463 -8 q 381 40 381 -8 m 616 516 q 657 565 616 565 q 699 516 699 565 q 657 468 699 468 q 616 516 616 468 m 616 199 q 657 248 616 248 q 699 199 699 248 q 657 151 699 151 q 616 199 616 151 m 146 516 q 186 565 146 565 q 228 516 228 565 q 186 468 228 468 q 146 516 146 468 m 146 199 q 186 248 146 248 q 228 199 228 248 q 186 151 228 151 q 146 199 146 151 m 246 634 q 287 683 246 683 q 328 634 328 683 q 287 586 328 586 q 246 634 246 586 m 516 634 q 557 683 516 683 q 598 634 598 683 q 557 586 598 586 q 516 634 516 586 m 246 81 q 287 130 246 130 q 328 81 328 130 q 287 33 328 33 q 246 81 246 33 m 516 81 q 557 130 516 130 q 598 81 598 130 q 557 33 598 33 q 516 81 516 33 z "},"שּׁ":{"ha":876,"x_min":111,"x_max":733,"o":"m 111 357 q 152 406 111 406 q 193 357 193 406 q 152 309 193 309 q 111 357 111 309 m 651 357 q 692 406 651 406 q 733 357 733 406 q 692 309 733 309 q 651 357 651 309 m 381 675 q 422 724 381 724 q 463 675 463 724 q 422 627 463 627 q 381 675 381 627 m 381 40 q 422 89 381 89 q 463 40 463 89 q 422 -8 463 -8 q 381 40 381 -8 m 616 516 q 657 565 616 565 q 699 516 699 565 q 657 468 699 468 q 616 516 616 468 m 616 199 q 657 248 616 248 q 699 199 699 248 q 657 151 699 151 q 616 199 616 151 m 146 516 q 186 565 146 565 q 228 516 228 565 q 186 468 228 468 q 146 516 146 468 m 146 199 q 186 248 146 248 q 228 199 228 248 q 186 151 228 151 q 146 199 146 151 m 246 634 q 287 683 246 683 q 328 634 328 683 q 287 586 328 586 q 246 634 246 586 m 516 634 q 557 683 516 683 q 598 634 598 683 q 557 586 598 586 q 516 634 516 586 m 246 81 q 287 130 246 130 q 328 81 328 130 q 287 33 328 33 q 246 81 246 33 m 516 81 q 557 130 516 130 q 598 81 598 130 q 557 33 598 33 q 516 81 516 33 z "},"שּׂ":{"ha":876,"x_min":111,"x_max":733,"o":"m 111 357 q 152 406 111 406 q 193 357 193 406 q 152 309 193 309 q 111 357 111 309 m 651 357 q 692 406 651 406 q 733 357 733 406 q 692 309 733 309 q 651 357 651 309 m 381 675 q 422 724 381 724 q 463 675 463 724 q 422 627 463 627 q 381 675 381 627 m 381 40 q 422 89 381 89 q 463 40 463 89 q 422 -8 463 -8 q 381 40 381 -8 m 616 516 q 657 565 616 565 q 699 516 699 565 q 657 468 699 468 q 616 516 616 468 m 616 199 q 657 248 616 248 q 699 199 699 248 q 657 151 699 151 q 616 199 616 151 m 146 516 q 186 565 146 565 q 228 516 228 565 q 186 468 228 468 q 146 516 146 468 m 146 199 q 186 248 146 248 q 228 199 228 248 q 186 151 228 151 q 146 199 146 151 m 246 634 q 287 683 246 683 q 328 634 328 683 q 287 586 328 586 q 246 634 246 586 m 516 634 q 557 683 516 683 q 598 634 598 683 q 557 586 598 586 q 516 634 516 586 m 246 81 q 287 130 246 130 q 328 81 328 130 q 287 33 328 33 q 246 81 246 33 m 516 81 q 557 130 516 130 q 598 81 598 130 q 557 33 598 33 q 516 81 516 33 z "},"אַ":{"ha":711,"x_min":111,"x_max":733,"o":"m 111 357 q 152 406 111 406 q 193 357 193 406 q 152 309 193 309 q 111 357 111 309 m 651 357 q 692 406 651 406 q 733 357 733 406 q 692 309 733 309 q 651 357 651 309 m 381 675 q 422 724 381 724 q 463 675 463 724 q 422 627 463 627 q 381 675 381 627 m 381 40 q 422 89 381 89 q 463 40 463 89 q 422 -8 463 -8 q 381 40 381 -8 m 616 516 q 657 565 616 565 q 699 516 699 565 q 657 468 699 468 q 616 516 616 468 m 616 199 q 657 248 616 248 q 699 199 699 248 q 657 151 699 151 q 616 199 616 151 m 146 516 q 186 565 146 565 q 228 516 228 565 q 186 468 228 468 q 146 516 146 468 m 146 199 q 186 248 146 248 q 228 199 228 248 q 186 151 228 151 q 146 199 146 151 m 246 634 q 287 683 246 683 q 328 634 328 683 q 287 586 328 586 q 246 634 246 586 m 516 634 q 557 683 516 683 q 598 634 598 683 q 557 586 598 586 q 516 634 516 586 m 246 81 q 287 130 246 130 q 328 81 328 130 q 287 33 328 33 q 246 81 246 33 m 516 81 q 557 130 516 130 q 598 81 598 130 q 557 33 598 33 q 516 81 516 33 z "},"אָ":{"ha":711,"x_min":111,"x_max":733,"o":"m 111 357 q 152 406 111 406 q 193 357 193 406 q 152 309 193 309 q 111 357 111 309 m 651 357 q 692 406 651 406 q 733 357 733 406 q 692 309 733 309 q 651 357 651 309 m 381 675 q 422 724 381 724 q 463 675 463 724 q 422 627 463 627 q 381 675 381 627 m 381 40 q 422 89 381 89 q 463 40 463 89 q 422 -8 463 -8 q 381 40 381 -8 m 616 516 q 657 565 616 565 q 699 516 699 565 q 657 468 699 468 q 616 516 616 468 m 616 199 q 657 248 616 248 q 699 199 699 248 q 657 151 699 151 q 616 199 616 151 m 146 516 q 186 565 146 565 q 228 516 228 565 q 186 468 228 468 q 146 516 146 468 m 146 199 q 186 248 146 248 q 228 199 228 248 q 186 151 228 151 q 146 199 146 151 m 246 634 q 287 683 246 683 q 328 634 328 683 q 287 586 328 586 q 246 634 246 586 m 516 634 q 557 683 516 683 q 598 634 598 683 q 557 586 598 586 q 516 634 516 586 m 246 81 q 287 130 246 130 q 328 81 328 130 q 287 33 328 33 q 246 81 246 33 m 516 81 q 557 130 516 130 q 598 81 598 130 q 557 33 598 33 q 516 81 516 33 z "},"אּ":{"ha":711,"x_min":111,"x_max":733,"o":"m 111 357 q 152 406 111 406 q 193 357 193 406 q 152 309 193 309 q 111 357 111 309 m 651 357 q 692 406 651 406 q 733 357 733 406 q 692 309 733 309 q 651 357 651 309 m 381 675 q 422 724 381 724 q 463 675 463 724 q 422 627 463 627 q 381 675 381 627 m 381 40 q 422 89 381 89 q 463 40 463 89 q 422 -8 463 -8 q 381 40 381 -8 m 616 516 q 657 565 616 565 q 699 516 699 565 q 657 468 699 468 q 616 516 616 468 m 616 199 q 657 248 616 248 q 699 199 699 248 q 657 151 699 151 q 616 199 616 151 m 146 516 q 186 565 146 565 q 228 516 228 565 q 186 468 228 468 q 146 516 146 468 m 146 199 q 186 248 146 248 q 228 199 228 248 q 186 151 228 151 q 146 199 146 151 m 246 634 q 287 683 246 683 q 328 634 328 683 q 287 586 328 586 q 246 634 246 586 m 516 634 q 557 683 516 683 q 598 634 598 683 q 557 586 598 586 q 516 634 516 586 m 246 81 q 287 130 246 130 q 328 81 328 130 q 287 33 328 33 q 246 81 246 33 m 516 81 q 557 130 516 130 q 598 81 598 130 q 557 33 598 33 q 516 81 516 33 z "},"בּ":{"ha":656,"x_min":111,"x_max":733,"o":"m 111 357 q 152 406 111 406 q 193 357 193 406 q 152 309 193 309 q 111 357 111 309 m 651 357 q 692 406 651 406 q 733 357 733 406 q 692 309 733 309 q 651 357 651 309 m 381 675 q 422 724 381 724 q 463 675 463 724 q 422 627 463 627 q 381 675 381 627 m 381 40 q 422 89 381 89 q 463 40 463 89 q 422 -8 463 -8 q 381 40 381 -8 m 616 516 q 657 565 616 565 q 699 516 699 565 q 657 468 699 468 q 616 516 616 468 m 616 199 q 657 248 616 248 q 699 199 699 248 q 657 151 699 151 q 616 199 616 151 m 146 516 q 186 565 146 565 q 228 516 228 565 q 186 468 228 468 q 146 516 146 468 m 146 199 q 186 248 146 248 q 228 199 228 248 q 186 151 228 151 q 146 199 146 151 m 246 634 q 287 683 246 683 q 328 634 328 683 q 287 586 328 586 q 246 634 246 586 m 516 634 q 557 683 516 683 q 598 634 598 683 q 557 586 598 586 q 516 634 516 586 m 246 81 q 287 130 246 130 q 328 81 328 130 q 287 33 328 33 q 246 81 246 33 m 516 81 q 557 130 516 130 q 598 81 598 130 q 557 33 598 33 q 516 81 516 33 z "},"גּ":{"ha":451,"x_min":111,"x_max":733,"o":"m 111 357 q 152 406 111 406 q 193 357 193 406 q 152 309 193 309 q 111 357 111 309 m 651 357 q 692 406 651 406 q 733 357 733 406 q 692 309 733 309 q 651 357 651 309 m 381 675 q 422 724 381 724 q 463 675 463 724 q 422 627 463 627 q 381 675 381 627 m 381 40 q 422 89 381 89 q 463 40 463 89 q 422 -8 463 -8 q 381 40 381 -8 m 616 516 q 657 565 616 565 q 699 516 699 565 q 657 468 699 468 q 616 516 616 468 m 616 199 q 657 248 616 248 q 699 199 699 248 q 657 151 699 151 q 616 199 616 151 m 146 516 q 186 565 146 565 q 228 516 228 565 q 186 468 228 468 q 146 516 146 468 m 146 199 q 186 248 146 248 q 228 199 228 248 q 186 151 228 151 q 146 199 146 151 m 246 634 q 287 683 246 683 q 328 634 328 683 q 287 586 328 586 q 246 634 246 586 m 516 634 q 557 683 516 683 q 598 634 598 683 q 557 586 598 586 q 516 634 516 586 m 246 81 q 287 130 246 130 q 328 81 328 130 q 287 33 328 33 q 246 81 246 33 m 516 81 q 557 130 516 130 q 598 81 598 130 q 557 33 598 33 q 516 81 516 33 z "},"דּ":{"ha":596,"x_min":111,"x_max":733,"o":"m 111 357 q 152 406 111 406 q 193 357 193 406 q 152 309 193 309 q 111 357 111 309 m 651 357 q 692 406 651 406 q 733 357 733 406 q 692 309 733 309 q 651 357 651 309 m 381 675 q 422 724 381 724 q 463 675 463 724 q 422 627 463 627 q 381 675 381 627 m 381 40 q 422 89 381 89 q 463 40 463 89 q 422 -8 463 -8 q 381 40 381 -8 m 616 516 q 657 565 616 565 q 699 516 699 565 q 657 468 699 468 q 616 516 616 468 m 616 199 q 657 248 616 248 q 699 199 699 248 q 657 151 699 151 q 616 199 616 151 m 146 516 q 186 565 146 565 q 228 516 228 565 q 186 468 228 468 q 146 516 146 468 m 146 199 q 186 248 146 248 q 228 199 228 248 q 186 151 228 151 q 146 199 146 151 m 246 634 q 287 683 246 683 q 328 634 328 683 q 287 586 328 586 q 246 634 246 586 m 516 634 q 557 683 516 683 q 598 634 598 683 q 557 586 598 586 q 516 634 516 586 m 246 81 q 287 130 246 130 q 328 81 328 130 q 287 33 328 33 q 246 81 246 33 m 516 81 q 557 130 516 130 q 598 81 598 130 q 557 33 598 33 q 516 81 516 33 z "},"הּ":{"ha":780,"x_min":111,"x_max":733,"o":"m 111 357 q 152 406 111 406 q 193 357 193 406 q 152 309 193 309 q 111 357 111 309 m 651 357 q 692 406 651 406 q 733 357 733 406 q 692 309 733 309 q 651 357 651 309 m 381 675 q 422 724 381 724 q 463 675 463 724 q 422 627 463 627 q 381 675 381 627 m 381 40 q 422 89 381 89 q 463 40 463 89 q 422 -8 463 -8 q 381 40 381 -8 m 616 516 q 657 565 616 565 q 699 516 699 565 q 657 468 699 468 q 616 516 616 468 m 616 199 q 657 248 616 248 q 699 199 699 248 q 657 151 699 151 q 616 199 616 151 m 146 516 q 186 565 146 565 q 228 516 228 565 q 186 468 228 468 q 146 516 146 468 m 146 199 q 186 248 146 248 q 228 199 228 248 q 186 151 228 151 q 146 199 146 151 m 246 634 q 287 683 246 683 q 328 634 328 683 q 287 586 328 586 q 246 634 246 586 m 516 634 q 557 683 516 683 q 598 634 598 683 q 557 586 598 586 q 516 634 516 586 m 246 81 q 287 130 246 130 q 328 81 328 130 q 287 33 328 33 q 246 81 246 33 m 516 81 q 557 130 516 130 q 598 81 598 130 q 557 33 598 33 q 516 81 516 33 z "},"וּ":{"ha":346,"x_min":68,"x_max":302,"o":"m 127 296 q 93 312 106 296 q 80 352 80 328 q 94 392 80 376 q 127 408 107 408 q 162 392 149 408 q 175 352 175 376 q 161 312 175 328 q 127 296 148 296 m 198 716 q 276 680 250 716 q 302 559 302 644 l 302 73 q 256 -12 302 12 l 241 -7 l 241 450 q 227 522 241 497 q 210 541 218 535 q 179 552 202 546 q 100 583 123 566 q 69 640 77 600 q 68 658 68 646 q 79 710 68 682 q 108 754 91 738 l 126 754 q 198 716 131 716 z "},"זּ":{"ha":445,"x_min":68,"x_max":422,"o":"m 115 313 q 81 329 94 313 q 68 369 68 345 q 81 409 68 393 q 115 425 95 425 q 150 409 136 425 q 163 369 163 393 q 149 329 163 345 q 115 313 136 313 m 385 499 l 374 499 q 348 530 370 517 q 303 548 326 543 q 291 444 291 490 q 312 283 291 388 q 333 131 333 179 q 237 -17 333 -2 l 224 -3 q 245 71 245 28 q 235 195 245 104 q 224 320 224 286 q 274 548 224 441 q 171 578 205 548 q 136 659 136 608 q 174 770 136 722 l 192 770 q 237 723 200 731 q 394 684 333 723 q 422 607 422 665 q 385 499 422 547 z "},"טּ":{"ha":688,"x_min":111,"x_max":733,"o":"m 111 357 q 152 406 111 406 q 193 357 193 406 q 152 309 193 309 q 111 357 111 309 m 651 357 q 692 406 651 406 q 733 357 733 406 q 692 309 733 309 q 651 357 651 309 m 381 675 q 422 724 381 724 q 463 675 463 724 q 422 627 463 627 q 381 675 381 627 m 381 40 q 422 89 381 89 q 463 40 463 89 q 422 -8 463 -8 q 381 40 381 -8 m 616 516 q 657 565 616 565 q 699 516 699 565 q 657 468 699 468 q 616 516 616 468 m 616 199 q 657 248 616 248 q 699 199 699 248 q 657 151 699 151 q 616 199 616 151 m 146 516 q 186 565 146 565 q 228 516 228 565 q 186 468 228 468 q 146 516 146 468 m 146 199 q 186 248 146 248 q 228 199 228 248 q 186 151 228 151 q 146 199 146 151 m 246 634 q 287 683 246 683 q 328 634 328 683 q 287 586 328 586 q 246 634 246 586 m 516 634 q 557 683 516 683 q 598 634 598 683 q 557 586 598 586 q 516 634 516 586 m 246 81 q 287 130 246 130 q 328 81 328 130 q 287 33 328 33 q 246 81 246 33 m 516 81 q 557 130 516 130 q 598 81 598 130 q 557 33 598 33 q 516 81 516 33 z "},"יּ":{"ha":315,"x_min":52,"x_max":279,"o":"m 104 393 q 70 409 83 393 q 56 449 56 425 q 70 489 56 473 q 104 505 83 505 q 138 489 125 505 q 151 449 151 473 q 138 409 151 425 q 104 393 124 393 m 174 326 l 155 347 q 205 402 191 374 q 218 478 218 431 l 218 503 q 208 541 218 529 q 159 552 197 552 q 79 583 106 552 q 52 663 52 614 q 83 770 52 712 l 102 770 q 121 732 105 746 q 163 719 136 719 l 187 716 q 255 684 232 716 q 278 591 278 651 l 278 539 q 174 326 278 380 z "},"ךּ":{"ha":574,"x_min":111,"x_max":733,"o":"m 111 357 q 152 406 111 406 q 193 357 193 406 q 152 309 193 309 q 111 357 111 309 m 651 357 q 692 406 651 406 q 733 357 733 406 q 692 309 733 309 q 651 357 651 309 m 381 675 q 422 724 381 724 q 463 675 463 724 q 422 627 463 627 q 381 675 381 627 m 381 40 q 422 89 381 89 q 463 40 463 89 q 422 -8 463 -8 q 381 40 381 -8 m 616 516 q 657 565 616 565 q 699 516 699 565 q 657 468 699 468 q 616 516 616 468 m 616 199 q 657 248 616 248 q 699 199 699 248 q 657 151 699 151 q 616 199 616 151 m 146 516 q 186 565 146 565 q 228 516 228 565 q 186 468 228 468 q 146 516 146 468 m 146 199 q 186 248 146 248 q 228 199 228 248 q 186 151 228 151 q 146 199 146 151 m 246 634 q 287 683 246 683 q 328 634 328 683 q 287 586 328 586 q 246 634 246 586 m 516 634 q 557 683 516 683 q 598 634 598 683 q 557 586 598 586 q 516 634 516 586 m 246 81 q 287 130 246 130 q 328 81 328 130 q 287 33 328 33 q 246 81 246 33 m 516 81 q 557 130 516 130 q 598 81 598 130 q 557 33 598 33 q 516 81 516 33 z "},"כּ":{"ha":639,"x_min":111,"x_max":733,"o":"m 111 357 q 152 406 111 406 q 193 357 193 406 q 152 309 193 309 q 111 357 111 309 m 651 357 q 692 406 651 406 q 733 357 733 406 q 692 309 733 309 q 651 357 651 309 m 381 675 q 422 724 381 724 q 463 675 463 724 q 422 627 463 627 q 381 675 381 627 m 381 40 q 422 89 381 89 q 463 40 463 89 q 422 -8 463 -8 q 381 40 381 -8 m 616 516 q 657 565 616 565 q 699 516 699 565 q 657 468 699 468 q 616 516 616 468 m 616 199 q 657 248 616 248 q 699 199 699 248 q 657 151 699 151 q 616 199 616 151 m 146 516 q 186 565 146 565 q 228 516 228 565 q 186 468 228 468 q 146 516 146 468 m 146 199 q 186 248 146 248 q 228 199 228 248 q 186 151 228 151 q 146 199 146 151 m 246 634 q 287 683 246 683 q 328 634 328 683 q 287 586 328 586 q 246 634 246 586 m 516 634 q 557 683 516 683 q 598 634 598 683 q 557 586 598 586 q 516 634 516 586 m 246 81 q 287 130 246 130 q 328 81 328 130 q 287 33 328 33 q 246 81 246 33 m 516 81 q 557 130 516 130 q 598 81 598 130 q 557 33 598 33 q 516 81 516 33 z "},"לּ":{"ha":611,"x_min":111,"x_max":733,"o":"m 111 357 q 152 406 111 406 q 193 357 193 406 q 152 309 193 309 q 111 357 111 309 m 651 357 q 692 406 651 406 q 733 357 733 406 q 692 309 733 309 q 651 357 651 309 m 381 675 q 422 724 381 724 q 463 675 463 724 q 422 627 463 627 q 381 675 381 627 m 381 40 q 422 89 381 89 q 463 40 463 89 q 422 -8 463 -8 q 381 40 381 -8 m 616 516 q 657 565 616 565 q 699 516 699 565 q 657 468 699 468 q 616 516 616 468 m 616 199 q 657 248 616 248 q 699 199 699 248 q 657 151 699 151 q 616 199 616 151 m 146 516 q 186 565 146 565 q 228 516 228 565 q 186 468 228 468 q 146 516 146 468 m 146 199 q 186 248 146 248 q 228 199 228 248 q 186 151 228 151 q 146 199 146 151 m 246 634 q 287 683 246 683 q 328 634 328 683 q 287 586 328 586 q 246 634 246 586 m 516 634 q 557 683 516 683 q 598 634 598 683 q 557 586 598 586 q 516 634 516 586 m 246 81 q 287 130 246 130 q 328 81 328 130 q 287 33 328 33 q 246 81 246 33 m 516 81 q 557 130 516 130 q 598 81 598 130 q 557 33 598 33 q 516 81 516 33 z "},"מּ":{"ha":742,"x_min":111,"x_max":733,"o":"m 111 357 q 152 406 111 406 q 193 357 193 406 q 152 309 193 309 q 111 357 111 309 m 651 357 q 692 406 651 406 q 733 357 733 406 q 692 309 733 309 q 651 357 651 309 m 381 675 q 422 724 381 724 q 463 675 463 724 q 422 627 463 627 q 381 675 381 627 m 381 40 q 422 89 381 89 q 463 40 463 89 q 422 -8 463 -8 q 381 40 381 -8 m 616 516 q 657 565 616 565 q 699 516 699 565 q 657 468 699 468 q 616 516 616 468 m 616 199 q 657 248 616 248 q 699 199 699 248 q 657 151 699 151 q 616 199 616 151 m 146 516 q 186 565 146 565 q 228 516 228 565 q 186 468 228 468 q 146 516 146 468 m 146 199 q 186 248 146 248 q 228 199 228 248 q 186 151 228 151 q 146 199 146 151 m 246 634 q 287 683 246 683 q 328 634 328 683 q 287 586 328 586 q 246 634 246 586 m 516 634 q 557 683 516 683 q 598 634 598 683 q 557 586 598 586 q 516 634 516 586 m 246 81 q 287 130 246 130 q 328 81 328 130 q 287 33 328 33 q 246 81 246 33 m 516 81 q 557 130 516 130 q 598 81 598 130 q 557 33 598 33 q 516 81 516 33 z "},"נּ":{"ha":416,"x_min":47,"x_max":372,"o":"m 159 296 q 124 312 138 296 q 111 352 111 328 q 125 392 111 376 q 159 408 138 408 q 193 392 180 408 q 206 352 206 376 q 193 312 206 328 q 159 296 179 296 m 330 379 q 351 214 330 310 q 372 88 372 118 q 366 0 372 27 l 47 0 l 72 163 l 277 163 l 275 252 l 275 270 q 282 381 275 305 q 288 490 288 456 l 288 495 q 277 536 288 522 q 238 550 267 550 q 189 559 210 550 q 156 580 168 568 q 139 609 145 592 q 131 639 132 627 q 130 665 130 651 l 130 667 q 171 773 130 732 l 189 773 q 203 731 195 739 q 233 720 212 720 l 262 717 q 355 623 355 707 q 342 501 355 590 q 330 379 330 412 z "},"סּ":{"ha":704,"x_min":111,"x_max":733,"o":"m 111 357 q 152 406 111 406 q 193 357 193 406 q 152 309 193 309 q 111 357 111 309 m 651 357 q 692 406 651 406 q 733 357 733 406 q 692 309 733 309 q 651 357 651 309 m 381 675 q 422 724 381 724 q 463 675 463 724 q 422 627 463 627 q 381 675 381 627 m 381 40 q 422 89 381 89 q 463 40 463 89 q 422 -8 463 -8 q 381 40 381 -8 m 616 516 q 657 565 616 565 q 699 516 699 565 q 657 468 699 468 q 616 516 616 468 m 616 199 q 657 248 616 248 q 699 199 699 248 q 657 151 699 151 q 616 199 616 151 m 146 516 q 186 565 146 565 q 228 516 228 565 q 186 468 228 468 q 146 516 146 468 m 146 199 q 186 248 146 248 q 228 199 228 248 q 186 151 228 151 q 146 199 146 151 m 246 634 q 287 683 246 683 q 328 634 328 683 q 287 586 328 586 q 246 634 246 586 m 516 634 q 557 683 516 683 q 598 634 598 683 q 557 586 598 586 q 516 634 516 586 m 246 81 q 287 130 246 130 q 328 81 328 130 q 287 33 328 33 q 246 81 246 33 m 516 81 q 557 130 516 130 q 598 81 598 130 q 557 33 598 33 q 516 81 516 33 z "},"ףּ":{"ha":601,"x_min":111,"x_max":733,"o":"m 111 357 q 152 406 111 406 q 193 357 193 406 q 152 309 193 309 q 111 357 111 309 m 651 357 q 692 406 651 406 q 733 357 733 406 q 692 309 733 309 q 651 357 651 309 m 381 675 q 422 724 381 724 q 463 675 463 724 q 422 627 463 627 q 381 675 381 627 m 381 40 q 422 89 381 89 q 463 40 463 89 q 422 -8 463 -8 q 381 40 381 -8 m 616 516 q 657 565 616 565 q 699 516 699 565 q 657 468 699 468 q 616 516 616 468 m 616 199 q 657 248 616 248 q 699 199 699 248 q 657 151 699 151 q 616 199 616 151 m 146 516 q 186 565 146 565 q 228 516 228 565 q 186 468 228 468 q 146 516 146 468 m 146 199 q 186 248 146 248 q 228 199 228 248 q 186 151 228 151 q 146 199 146 151 m 246 634 q 287 683 246 683 q 328 634 328 683 q 287 586 328 586 q 246 634 246 586 m 516 634 q 557 683 516 683 q 598 634 598 683 q 557 586 598 586 q 516 634 516 586 m 246 81 q 287 130 246 130 q 328 81 328 130 q 287 33 328 33 q 246 81 246 33 m 516 81 q 557 130 516 130 q 598 81 598 130 q 557 33 598 33 q 516 81 516 33 z "},"פּ":{"ha":618,"x_min":111,"x_max":733,"o":"m 111 357 q 152 406 111 406 q 193 357 193 406 q 152 309 193 309 q 111 357 111 309 m 651 357 q 692 406 651 406 q 733 357 733 406 q 692 309 733 309 q 651 357 651 309 m 381 675 q 422 724 381 724 q 463 675 463 724 q 422 627 463 627 q 381 675 381 627 m 381 40 q 422 89 381 89 q 463 40 463 89 q 422 -8 463 -8 q 381 40 381 -8 m 616 516 q 657 565 616 565 q 699 516 699 565 q 657 468 699 468 q 616 516 616 468 m 616 199 q 657 248 616 248 q 699 199 699 248 q 657 151 699 151 q 616 199 616 151 m 146 516 q 186 565 146 565 q 228 516 228 565 q 186 468 228 468 q 146 516 146 468 m 146 199 q 186 248 146 248 q 228 199 228 248 q 186 151 228 151 q 146 199 146 151 m 246 634 q 287 683 246 683 q 328 634 328 683 q 287 586 328 586 q 246 634 246 586 m 516 634 q 557 683 516 683 q 598 634 598 683 q 557 586 598 586 q 516 634 516 586 m 246 81 q 287 130 246 130 q 328 81 328 130 q 287 33 328 33 q 246 81 246 33 m 516 81 q 557 130 516 130 q 598 81 598 130 q 557 33 598 33 q 516 81 516 33 z "},"צּ":{"ha":780,"x_min":111,"x_max":733,"o":"m 111 357 q 152 406 111 406 q 193 357 193 406 q 152 309 193 309 q 111 357 111 309 m 651 357 q 692 406 651 406 q 733 357 733 406 q 692 309 733 309 q 651 357 651 309 m 381 675 q 422 724 381 724 q 463 675 463 724 q 422 627 463 627 q 381 675 381 627 m 381 40 q 422 89 381 89 q 463 40 463 89 q 422 -8 463 -8 q 381 40 381 -8 m 616 516 q 657 565 616 565 q 699 516 699 565 q 657 468 699 468 q 616 516 616 468 m 616 199 q 657 248 616 248 q 699 199 699 248 q 657 151 699 151 q 616 199 616 151 m 146 516 q 186 565 146 565 q 228 516 228 565 q 186 468 228 468 q 146 516 146 468 m 146 199 q 186 248 146 248 q 228 199 228 248 q 186 151 228 151 q 146 199 146 151 m 246 634 q 287 683 246 683 q 328 634 328 683 q 287 586 328 586 q 246 634 246 586 m 516 634 q 557 683 516 683 q 598 634 598 683 q 557 586 598 586 q 516 634 516 586 m 246 81 q 287 130 246 130 q 328 81 328 130 q 287 33 328 33 q 246 81 246 33 m 516 81 q 557 130 516 130 q 598 81 598 130 q 557 33 598 33 q 516 81 516 33 z "},"קּ":{"ha":676,"x_min":111,"x_max":733,"o":"m 111 357 q 152 406 111 406 q 193 357 193 406 q 152 309 193 309 q 111 357 111 309 m 651 357 q 692 406 651 406 q 733 357 733 406 q 692 309 733 309 q 651 357 651 309 m 381 675 q 422 724 381 724 q 463 675 463 724 q 422 627 463 627 q 381 675 381 627 m 381 40 q 422 89 381 89 q 463 40 463 89 q 422 -8 463 -8 q 381 40 381 -8 m 616 516 q 657 565 616 565 q 699 516 699 565 q 657 468 699 468 q 616 516 616 468 m 616 199 q 657 248 616 248 q 699 199 699 248 q 657 151 699 151 q 616 199 616 151 m 146 516 q 186 565 146 565 q 228 516 228 565 q 186 468 228 468 q 146 516 146 468 m 146 199 q 186 248 146 248 q 228 199 228 248 q 186 151 228 151 q 146 199 146 151 m 246 634 q 287 683 246 683 q 328 634 328 683 q 287 586 328 586 q 246 634 246 586 m 516 634 q 557 683 516 683 q 598 634 598 683 q 557 586 598 586 q 516 634 516 586 m 246 81 q 287 130 246 130 q 328 81 328 130 q 287 33 328 33 q 246 81 246 33 m 516 81 q 557 130 516 130 q 598 81 598 130 q 557 33 598 33 q 516 81 516 33 z "},"רּ":{"ha":599,"x_min":111,"x_max":733,"o":"m 111 357 q 152 406 111 406 q 193 357 193 406 q 152 309 193 309 q 111 357 111 309 m 651 357 q 692 406 651 406 q 733 357 733 406 q 692 309 733 309 q 651 357 651 309 m 381 675 q 422 724 381 724 q 463 675 463 724 q 422 627 463 627 q 381 675 381 627 m 381 40 q 422 89 381 89 q 463 40 463 89 q 422 -8 463 -8 q 381 40 381 -8 m 616 516 q 657 565 616 565 q 699 516 699 565 q 657 468 699 468 q 616 516 616 468 m 616 199 q 657 248 616 248 q 699 199 699 248 q 657 151 699 151 q 616 199 616 151 m 146 516 q 186 565 146 565 q 228 516 228 565 q 186 468 228 468 q 146 516 146 468 m 146 199 q 186 248 146 248 q 228 199 228 248 q 186 151 228 151 q 146 199 146 151 m 246 634 q 287 683 246 683 q 328 634 328 683 q 287 586 328 586 q 246 634 246 586 m 516 634 q 557 683 516 683 q 598 634 598 683 q 557 586 598 586 q 516 634 516 586 m 246 81 q 287 130 246 130 q 328 81 328 130 q 287 33 328 33 q 246 81 246 33 m 516 81 q 557 130 516 130 q 598 81 598 130 q 557 33 598 33 q 516 81 516 33 z "},"שּ":{"ha":876,"x_min":111,"x_max":733,"o":"m 111 357 q 152 406 111 406 q 193 357 193 406 q 152 309 193 309 q 111 357 111 309 m 651 357 q 692 406 651 406 q 733 357 733 406 q 692 309 733 309 q 651 357 651 309 m 381 675 q 422 724 381 724 q 463 675 463 724 q 422 627 463 627 q 381 675 381 627 m 381 40 q 422 89 381 89 q 463 40 463 89 q 422 -8 463 -8 q 381 40 381 -8 m 616 516 q 657 565 616 565 q 699 516 699 565 q 657 468 699 468 q 616 516 616 468 m 616 199 q 657 248 616 248 q 699 199 699 248 q 657 151 699 151 q 616 199 616 151 m 146 516 q 186 565 146 565 q 228 516 228 565 q 186 468 228 468 q 146 516 146 468 m 146 199 q 186 248 146 248 q 228 199 228 248 q 186 151 228 151 q 146 199 146 151 m 246 634 q 287 683 246 683 q 328 634 328 683 q 287 586 328 586 q 246 634 246 586 m 516 634 q 557 683 516 683 q 598 634 598 683 q 557 586 598 586 q 516 634 516 586 m 246 81 q 287 130 246 130 q 328 81 328 130 q 287 33 328 33 q 246 81 246 33 m 516 81 q 557 130 516 130 q 598 81 598 130 q 557 33 598 33 q 516 81 516 33 z "},"תּ":{"ha":696,"x_min":111,"x_max":733,"o":"m 111 357 q 152 406 111 406 q 193 357 193 406 q 152 309 193 309 q 111 357 111 309 m 651 357 q 692 406 651 406 q 733 357 733 406 q 692 309 733 309 q 651 357 651 309 m 381 675 q 422 724 381 724 q 463 675 463 724 q 422 627 463 627 q 381 675 381 627 m 381 40 q 422 89 381 89 q 463 40 463 89 q 422 -8 463 -8 q 381 40 381 -8 m 616 516 q 657 565 616 565 q 699 516 699 565 q 657 468 699 468 q 616 516 616 468 m 616 199 q 657 248 616 248 q 699 199 699 248 q 657 151 699 151 q 616 199 616 151 m 146 516 q 186 565 146 565 q 228 516 228 565 q 186 468 228 468 q 146 516 146 468 m 146 199 q 186 248 146 248 q 228 199 228 248 q 186 151 228 151 q 146 199 146 151 m 246 634 q 287 683 246 683 q 328 634 328 683 q 287 586 328 586 q 246 634 246 586 m 516 634 q 557 683 516 683 q 598 634 598 683 q 557 586 598 586 q 516 634 516 586 m 246 81 q 287 130 246 130 q 328 81 328 130 q 287 33 328 33 q 246 81 246 33 m 516 81 q 557 130 516 130 q 598 81 598 130 q 557 33 598 33 q 516 81 516 33 z "},"וֹ":{"ha":328,"x_min":50,"x_max":307,"o":"m 258 819 q 224 834 237 819 q 211 874 211 850 q 224 914 211 899 q 258 930 238 930 q 293 914 279 930 q 306 874 306 898 q 292 834 306 850 q 258 819 279 819 m 180 716 q 258 680 232 716 q 285 559 285 644 l 285 73 q 239 -12 285 12 l 224 -7 l 224 450 q 209 522 224 497 q 193 541 201 535 q 161 552 184 546 q 82 583 106 566 q 52 640 59 600 q 50 658 50 646 q 62 710 50 682 q 90 754 73 738 l 109 754 q 180 716 113 716 z "},"בֿ":{"ha":656,"x_min":111,"x_max":733,"o":"m 111 357 q 152 406 111 406 q 193 357 193 406 q 152 309 193 309 q 111 357 111 309 m 651 357 q 692 406 651 406 q 733 357 733 406 q 692 309 733 309 q 651 357 651 309 m 381 675 q 422 724 381 724 q 463 675 463 724 q 422 627 463 627 q 381 675 381 627 m 381 40 q 422 89 381 89 q 463 40 463 89 q 422 -8 463 -8 q 381 40 381 -8 m 616 516 q 657 565 616 565 q 699 516 699 565 q 657 468 699 468 q 616 516 616 468 m 616 199 q 657 248 616 248 q 699 199 699 248 q 657 151 699 151 q 616 199 616 151 m 146 516 q 186 565 146 565 q 228 516 228 565 q 186 468 228 468 q 146 516 146 468 m 146 199 q 186 248 146 248 q 228 199 228 248 q 186 151 228 151 q 146 199 146 151 m 246 634 q 287 683 246 683 q 328 634 328 683 q 287 586 328 586 q 246 634 246 586 m 516 634 q 557 683 516 683 q 598 634 598 683 q 557 586 598 586 q 516 634 516 586 m 246 81 q 287 130 246 130 q 328 81 328 130 q 287 33 328 33 q 246 81 246 33 m 516 81 q 557 130 516 130 q 598 81 598 130 q 557 33 598 33 q 516 81 516 33 z "},"כֿ":{"ha":639,"x_min":111,"x_max":733,"o":"m 111 357 q 152 406 111 406 q 193 357 193 406 q 152 309 193 309 q 111 357 111 309 m 651 357 q 692 406 651 406 q 733 357 733 406 q 692 309 733 309 q 651 357 651 309 m 381 675 q 422 724 381 724 q 463 675 463 724 q 422 627 463 627 q 381 675 381 627 m 381 40 q 422 89 381 89 q 463 40 463 89 q 422 -8 463 -8 q 381 40 381 -8 m 616 516 q 657 565 616 565 q 699 516 699 565 q 657 468 699 468 q 616 516 616 468 m 616 199 q 657 248 616 248 q 699 199 699 248 q 657 151 699 151 q 616 199 616 151 m 146 516 q 186 565 146 565 q 228 516 228 565 q 186 468 228 468 q 146 516 146 468 m 146 199 q 186 248 146 248 q 228 199 228 248 q 186 151 228 151 q 146 199 146 151 m 246 634 q 287 683 246 683 q 328 634 328 683 q 287 586 328 586 q 246 634 246 586 m 516 634 q 557 683 516 683 q 598 634 598 683 q 557 586 598 586 q 516 634 516 586 m 246 81 q 287 130 246 130 q 328 81 328 130 q 287 33 328 33 q 246 81 246 33 m 516 81 q 557 130 516 130 q 598 81 598 130 q 557 33 598 33 q 516 81 516 33 z "},"פֿ":{"ha":618,"x_min":111,"x_max":733,"o":"m 111 357 q 152 406 111 406 q 193 357 193 406 q 152 309 193 309 q 111 357 111 309 m 651 357 q 692 406 651 406 q 733 357 733 406 q 692 309 733 309 q 651 357 651 309 m 381 675 q 422 724 381 724 q 463 675 463 724 q 422 627 463 627 q 381 675 381 627 m 381 40 q 422 89 381 89 q 463 40 463 89 q 422 -8 463 -8 q 381 40 381 -8 m 616 516 q 657 565 616 565 q 699 516 699 565 q 657 468 699 468 q 616 516 616 468 m 616 199 q 657 248 616 248 q 699 199 699 248 q 657 151 699 151 q 616 199 616 151 m 146 516 q 186 565 146 565 q 228 516 228 565 q 186 468 228 468 q 146 516 146 468 m 146 199 q 186 248 146 248 q 228 199 228 248 q 186 151 228 151 q 146 199 146 151 m 246 634 q 287 683 246 683 q 328 634 328 683 q 287 586 328 586 q 246 634 246 586 m 516 634 q 557 683 516 683 q 598 634 598 683 q 557 586 598 586 q 516 634 516 586 m 246 81 q 287 130 246 130 q 328 81 328 130 q 287 33 328 33 q 246 81 246 33 m 516 81 q 557 130 516 130 q 598 81 598 130 q 557 33 598 33 q 516 81 516 33 z "},"ﭏ":{"ha":704,"x_min":52,"x_max":653,"o":"m 64 853 q 152 923 94 923 q 252 897 184 923 q 353 871 319 871 q 379 887 369 871 q 394 924 390 904 q 409 961 398 945 q 437 978 420 978 q 487 965 463 978 q 532 952 511 952 l 532 934 q 509 908 515 921 q 501 884 506 901 q 491 857 496 867 q 477 834 486 846 q 454 817 469 823 q 419 810 439 810 q 322 825 371 810 q 230 854 273 840 q 155 869 188 869 q 120 850 134 869 q 106 808 106 832 q 121 752 106 779 q 155 725 136 725 l 188 725 q 254 679 219 725 l 458 401 q 464 447 462 433 q 478 495 466 460 q 510 565 490 530 q 438 606 458 575 q 419 686 419 636 q 447 779 419 739 l 465 779 q 490 740 470 758 q 535 722 511 722 q 593 712 568 722 q 630 686 617 702 q 648 654 642 670 q 653 622 653 638 q 613 508 653 559 l 600 508 l 600 525 l 600 533 q 582 551 600 543 q 545 560 563 560 l 525 483 q 517 456 524 477 q 508 419 511 435 q 505 389 505 404 q 537 297 505 339 l 595 222 q 653 100 653 149 q 606 -3 653 41 l 588 -3 q 553 82 588 33 l 279 463 l 224 523 q 156 557 198 557 l 136 557 q 86 585 102 557 q 58 671 71 614 q 52 751 52 700 q 64 853 52 826 z "}}}
